SplineFontDB: 3.0
FontName: LerLatmo
FullName: LerLatmo
FamilyName: LerLatmo
Weight: Regular
Copyright: Copyright (c) 2016, TUSF,
UComments: "2016-12-6: Created with FontForge (http://fontforge.org)"
Version: 001.000
ItalicAngle: 0
UnderlinePosition: -306
UnderlineWidth: 102
Ascent: 1638
Descent: 410
InvalidEm: 0
LayerCount: 2
Layer: 0 0 "Back" 1
Layer: 1 0 "Fore" 0
XUID: [1021 913 -1209976370 4439358]
StyleMap: 0x0000
FSType: 0
OS2Version: 0
OS2_WeightWidthSlopeOnly: 0
OS2_UseTypoMetrics: 1
CreationTime: 1481039941
ModificationTime: 1481060375
OS2TypoAscent: 0
OS2TypoAOffset: 1
OS2TypoDescent: 0
OS2TypoDOffset: 1
OS2TypoLinegap: 184
OS2WinAscent: 0
OS2WinAOffset: 1
OS2WinDescent: 0
OS2WinDOffset: 1
HheadAscent: 0
HheadAOffset: 1
HheadDescent: 0
HheadDOffset: 1
OS2Vendor: 'PfEd'
Lookup: 4 0 0 "ccmp" { "ccmp-1"  } ['ccmp' ('DFLT' <'dflt' > 'latn' <'dflt' > ) ]
Lookup: 4 0 0 "ccmp-0" { "ccmp-0 subtable"  } ['ccmp' ('latn' <'dflt' > 'DFLT' <'dflt' > ) ]
Lookup: 4 0 0 "ccmp-1" { "ccmp-1 subtable"  } ['ccmp' ('latn' <'dflt' > 'DFLT' <'dflt' > ) ]
MarkAttachClasses: 1
DEI: 91125
Encoding: Custom
UnicodeInterp: none
NameList: AGL For New Fonts
DisplaySize: -48
AntiAlias: 1
FitToEm: 0
WinInfo: 0 16 7
BeginPrivate: 0
EndPrivate
BeginChars: 493 287

StartChar: B
Encoding: 66 66 0
Width: 1171
GlyphClass: 2
Flags: W
HStem: 932 20G<922.667 1049>
VStem: 861 188<-261.913 730.961>
LayerCount: 2
Fore
SplineSet
934 -332 m 0
 926 -324 915.666666667 -315.333333333 903 -306 c 0
 883 -291.333333333 871 -267.5 867 -234.5 c 0
 863 -201.5 861 -99.6666666667 861 71 c 2
 861 180 l 2
 861 332 858.5 461.833333333 853.5 569.5 c 0
 848.5 677.166666667 842.666666667 731 836 731 c 0
 829.333333333 731 818.666666667 722.666666667 804 706 c 0
 789.333333333 689.333333333 774.666666667 669 760 645 c 0
 745.333333333 621.666666667 708 574.666666667 648 504 c 0
 588 433.333333333 523 360.333333333 453 285 c 0
 362.333333333 187 291 116.666666667 239 74 c 0
 187 31.3333333333 147 10 119 10 c 0
 99 10 81.5 11.8333333333 66.5 15.5 c 0
 51.5 19.1666666667 44 23.6666666667 44 29 c 0
 44 33.6666666667 73.3333333333 67.1666666667 132 129.5 c 0
 190.666666667 191.833333333 261.666666667 264.666666667 345 348 c 0
 426.333333333 429.333333333 506 514.666666667 584 604 c 0
 662 693.333333333 714.666666667 759 742 801 c 0
 784 865.666666667 817.166666667 907 841.5 925 c 0
 865.833333333 943 900.333333333 952 945 952 c 2
 1049 952 l 1
 1049 264 l 2
 1049 -126.666666667 1053.66666667 -334.666666667 1063 -360 c 0
 1067.66666667 -371.333333333 1070 -381 1070 -389 c 0
 1070 -402.333333333 1064 -409 1052 -409 c 0
 1024.66666667 -409 985.333333333 -383.333333333 934 -332 c 0
EndSplineSet
Validated: 1
EndChar

StartChar: b
Encoding: 98 98 1
Width: 1171
GlyphClass: 2
Flags: W
HStem: 932 20G<922.667 1049>
VStem: 861 188<-261.913 730.961>
LayerCount: 2
Fore
SplineSet
934 -332 m 0
 926 -324 915.666666667 -315.333333333 903 -306 c 0
 883 -291.333333333 871 -267.5 867 -234.5 c 0
 863 -201.5 861 -99.6666666667 861 71 c 2
 861 180 l 2
 861 332 858.5 461.833333333 853.5 569.5 c 0
 848.5 677.166666667 842.666666667 731 836 731 c 0
 829.333333333 731 818.666666667 722.666666667 804 706 c 0
 789.333333333 689.333333333 774.666666667 669 760 645 c 0
 745.333333333 621.666666667 708 574.666666667 648 504 c 0
 588 433.333333333 523 360.333333333 453 285 c 0
 362.333333333 187 291 116.666666667 239 74 c 0
 187 31.3333333333 147 10 119 10 c 0
 99 10 81.5 11.8333333333 66.5 15.5 c 0
 51.5 19.1666666667 44 23.6666666667 44 29 c 0
 44 33.6666666667 73.3333333333 67.1666666667 132 129.5 c 0
 190.666666667 191.833333333 261.666666667 264.666666667 345 348 c 0
 426.333333333 429.333333333 506 514.666666667 584 604 c 0
 662 693.333333333 714.666666667 759 742 801 c 0
 784 865.666666667 817.166666667 907 841.5 925 c 0
 865.833333333 943 900.333333333 952 945 952 c 2
 1049 952 l 1
 1049 264 l 2
 1049 -126.666666667 1053.66666667 -334.666666667 1063 -360 c 0
 1067.66666667 -371.333333333 1070 -381 1070 -389 c 0
 1070 -402.333333333 1064 -409 1052 -409 c 0
 1024.66666667 -409 985.333333333 -383.333333333 934 -332 c 0
EndSplineSet
Validated: 1
EndChar

StartChar: C
Encoding: 67 67 2
Width: 1292
GlyphClass: 2
Flags: W
HStem: 823 102<456.633 835.958> 941 20G<123 250.667>
VStem: 123 215<8 670.757 878.677 949.652> 952 215<8 677.943 868.52 1477.35>
LayerCount: 2
Fore
SplineSet
123 485 m 1
 123 961 l 1
 231 961 l 2
 270.333333333 961 298 957.333333333 314 950 c 0
 330 942.666666667 338 929.666666667 338 911 c 0
 338 893 342 882.166666667 350 878.5 c 0
 358 874.833333333 371.666666667 877.666666667 391 887 c 0
 416.333333333 898.333333333 457.333333333 907.5 514 914.5 c 0
 570.666666667 921.5 627.666666667 925 685 925 c 0
 773.666666667 925 825.333333333 917.666666667 840 903 c 0
 864 879 883.666666667 867 899 867 c 0
 939 867 959 950 959 1116 c 0
 959 1368 988.333333333 1517 1047 1563 c 0
 1098.33333333 1602.33333333 1131 1622 1145 1622 c 0
 1151 1622 1156.16666667 1528.66666667 1160.5 1342 c 0
 1164.83333333 1155.33333333 1167 956.333333333 1167 745 c 2
 1167 8 l 1
 1061 8 l 1
 952 8 l 1
 952 311 l 2
 952 443.666666667 948.166666667 533.333333333 940.5 580 c 0
 932.833333333 626.666666667 913.666666667 673 883 719 c 0
 859 753.666666667 839.166666667 777.333333333 823.5 790 c 0
 807.833333333 802.666666667 788 811.333333333 764 816 c 0
 740 820.666666667 700.333333333 823 645 823 c 0
 589.666666667 823 550.166666667 820.666666667 526.5 816 c 0
 502.833333333 811.333333333 483.5 802.666666667 468.5 790 c 0
 453.5 777.333333333 434 753.666666667 410 719 c 0
 379.333333333 672.333333333 359.666666667 625.333333333 351 578 c 0
 342.333333333 530.666666667 338 441.666666667 338 311 c 2
 338 8 l 1
 231 8 l 1
 123 8 l 1
 123 485 l 1
EndSplineSet
Validated: 1
EndChar

StartChar: c
Encoding: 99 99 3
Width: 1292
GlyphClass: 2
Flags: W
HStem: 823 102<456.633 835.958> 941 20G<123 250.667>
VStem: 123 215<8 670.757 878.677 949.652> 952 215<8 677.943 868.52 1477.35>
LayerCount: 2
Fore
SplineSet
123 485 m 1
 123 961 l 1
 231 961 l 2
 270.333333333 961 298 957.333333333 314 950 c 0
 330 942.666666667 338 929.666666667 338 911 c 0
 338 893 342 882.166666667 350 878.5 c 0
 358 874.833333333 371.666666667 877.666666667 391 887 c 0
 416.333333333 898.333333333 457.333333333 907.5 514 914.5 c 0
 570.666666667 921.5 627.666666667 925 685 925 c 0
 773.666666667 925 825.333333333 917.666666667 840 903 c 0
 864 879 883.666666667 867 899 867 c 0
 939 867 959 950 959 1116 c 0
 959 1368 988.333333333 1517 1047 1563 c 0
 1098.33333333 1602.33333333 1131 1622 1145 1622 c 0
 1151 1622 1156.16666667 1528.66666667 1160.5 1342 c 0
 1164.83333333 1155.33333333 1167 956.333333333 1167 745 c 2
 1167 8 l 1
 1061 8 l 1
 952 8 l 1
 952 311 l 2
 952 443.666666667 948.166666667 533.333333333 940.5 580 c 0
 932.833333333 626.666666667 913.666666667 673 883 719 c 0
 859 753.666666667 839.166666667 777.333333333 823.5 790 c 0
 807.833333333 802.666666667 788 811.333333333 764 816 c 0
 740 820.666666667 700.333333333 823 645 823 c 0
 589.666666667 823 550.166666667 820.666666667 526.5 816 c 0
 502.833333333 811.333333333 483.5 802.666666667 468.5 790 c 0
 453.5 777.333333333 434 753.666666667 410 719 c 0
 379.333333333 672.333333333 359.666666667 625.333333333 351 578 c 0
 342.333333333 530.666666667 338 441.666666667 338 311 c 2
 338 8 l 1
 231 8 l 1
 123 8 l 1
 123 485 l 1
EndSplineSet
Validated: 1
EndChar

StartChar: D
Encoding: 68 68 4
Width: 1352
GlyphClass: 2
Flags: W
HStem: 11 99<437.364 808.211> 1035 8G<334 348 1022 1228>
VStem: 88 214<350.945 823.301> 1022 206<394.636 1035> 1061 181<-291.767 119.975>
LayerCount: 2
Fore
SplineSet
1131 -324 m 0xe8
 1102.33333333 -293.333333333 1083.5 -256.333333333 1074.5 -213 c 0
 1065.5 -169.666666667 1061 -92.3333333333 1061 19 c 0xe8
 1061 86.3333333333 1051 120 1031 120 c 0
 1027 120 1021.66666667 118.333333333 1015 115 c 0
 1008.33333333 111.666666667 1004.66666667 110 1004 110 c 0
 993.333333333 110 946 92.6666666667 862 58 c 0
 787.333333333 26.6666666667 714 11 642 11 c 0
 560.666666667 11 473.666666667 32 381 74 c 0
 289 116 217.166666667 184.333333333 165.5 279 c 0
 113.833333333 373.666666667 88 476.666666667 88 588 c 0
 88 670.666666667 103 749.333333333 133 824 c 0
 163 898.666666667 207 962.333333333 265 1015 c 0
 300.333333333 1047 326 1063 342 1063 c 0
 354 1063 360 1054.33333333 360 1037 c 0
 360 1017.66666667 352.666666667 989.333333333 338 952 c 0
 328.666666667 926 320.333333333 878.666666667 313 810 c 0
 305.666666667 741.333333333 302 672 302 602 c 0
 302 476 312.166666667 378 332.5 308 c 0
 352.833333333 238 386.5 187.5 433.5 156.5 c 0
 480.5 125.5 546 110 630 110 c 0
 761.333333333 110 859.5 163.666666667 924.5 271 c 0
 989.5 378.333333333 1022 541.333333333 1022 760 c 2
 1022 1035 l 1
 1125 1035 l 1
 1228 1035 l 1
 1228 230 l 2xf0
 1228 126 1229.16666667 30 1231.5 -58 c 0
 1233.83333333 -146 1236.16666667 -215.5 1238.5 -266.5 c 0
 1240.83333333 -317.5 1242 -349.666666667 1242 -363 c 0
 1242 -387 1239.33333333 -399 1234 -399 c 0
 1224.66666667 -399 1209.83333333 -391.666666667 1189.5 -377 c 0
 1169.16666667 -362.333333333 1149.66666667 -344.666666667 1131 -324 c 0xe8
EndSplineSet
Validated: 1
EndChar

StartChar: d
Encoding: 100 100 5
Width: 1352
GlyphClass: 2
Flags: W
HStem: 11 99<437.364 808.211> 1035 8G<334 348 1022 1228>
VStem: 88 214<350.945 823.301> 1022 206<394.636 1035> 1061 181<-291.767 119.975>
LayerCount: 2
Fore
SplineSet
1131 -324 m 0xe8
 1102.33333333 -293.333333333 1083.5 -256.333333333 1074.5 -213 c 0
 1065.5 -169.666666667 1061 -92.3333333333 1061 19 c 0xe8
 1061 86.3333333333 1051 120 1031 120 c 0
 1027 120 1021.66666667 118.333333333 1015 115 c 0
 1008.33333333 111.666666667 1004.66666667 110 1004 110 c 0
 993.333333333 110 946 92.6666666667 862 58 c 0
 787.333333333 26.6666666667 714 11 642 11 c 0
 560.666666667 11 473.666666667 32 381 74 c 0
 289 116 217.166666667 184.333333333 165.5 279 c 0
 113.833333333 373.666666667 88 476.666666667 88 588 c 0
 88 670.666666667 103 749.333333333 133 824 c 0
 163 898.666666667 207 962.333333333 265 1015 c 0
 300.333333333 1047 326 1063 342 1063 c 0
 354 1063 360 1054.33333333 360 1037 c 0
 360 1017.66666667 352.666666667 989.333333333 338 952 c 0
 328.666666667 926 320.333333333 878.666666667 313 810 c 0
 305.666666667 741.333333333 302 672 302 602 c 0
 302 476 312.166666667 378 332.5 308 c 0
 352.833333333 238 386.5 187.5 433.5 156.5 c 0
 480.5 125.5 546 110 630 110 c 0
 761.333333333 110 859.5 163.666666667 924.5 271 c 0
 989.5 378.333333333 1022 541.333333333 1022 760 c 2
 1022 1035 l 1
 1125 1035 l 1
 1228 1035 l 1
 1228 230 l 2xf0
 1228 126 1229.16666667 30 1231.5 -58 c 0
 1233.83333333 -146 1236.16666667 -215.5 1238.5 -266.5 c 0
 1240.83333333 -317.5 1242 -349.666666667 1242 -363 c 0
 1242 -387 1239.33333333 -399 1234 -399 c 0
 1224.66666667 -399 1209.83333333 -391.666666667 1189.5 -377 c 0
 1169.16666667 -362.333333333 1149.66666667 -344.666666667 1131 -324 c 0xe8
EndSplineSet
Validated: 1
EndChar

StartChar: F
Encoding: 70 70 6
Width: 1205
GlyphClass: 2
Flags: W
HStem: 6 179<745.437 1108> 6 130<482.032 1043.91> 880 20G<674.333 679.333>
LayerCount: 2
Fore
SplineSet
65 72 m 0x60
 65 111.333333333 93 142.666666667 149 166 c 0
 242.333333333 202 320 269.333333333 382 368 c 0
 444 466.666666667 475 573.333333333 475 688 c 0
 475 738 476.666666667 776.833333333 480 804.5 c 0
 483.333333333 832.166666667 490.333333333 852.833333333 501 866.5 c 0
 511.666666667 880.166666667 522.833333333 888.333333333 534.5 891 c 0
 546.166666667 893.666666667 564.666666667 895 590 895 c 2
 610 895 l 2
 622 895 635.166666667 895.833333333 649.5 897.5 c 0
 663.833333333 899.166666667 672.666666667 900 676 900 c 0
 682.666666667 900 687.333333333 898.333333333 690 895 c 0
 692.666666667 891.666666667 694 885.333333333 694 876 c 0
 694 864.666666667 684.333333333 800 665 682 c 0
 637 516.666666667 576.333333333 342 483 158 c 0
 482.333333333 157.333333333 482 156.333333333 482 155 c 0
 482 142.333333333 526 136 614 136 c 0x60
 733.333333333 136 846 146 952 166 c 0
 1015.33333333 178.666666667 1068 185 1110 185 c 0
 1124 185 1132 184 1134 182 c 0
 1136.66666667 179.333333333 1138 173.333333333 1138 164 c 0
 1138 153.333333333 1134.66666667 128 1128 88 c 1
 1108 6 l 1xa0
 587 6 l 2
 325 6 170.333333333 10 123 18 c 0
 89.6666666667 24 71 35 67 51 c 0
 65.6666666667 55.6666666667 65 62.6666666667 65 72 c 0x60
EndSplineSet
Validated: 1
EndChar

StartChar: f
Encoding: 102 102 7
Width: 1205
GlyphClass: 2
Flags: W
HStem: 6 179<745.437 1108> 6 130<482.032 1043.91> 880 20G<674.333 679.333>
LayerCount: 2
Fore
SplineSet
65 72 m 0x60
 65 111.333333333 93 142.666666667 149 166 c 0
 242.333333333 202 320 269.333333333 382 368 c 0
 444 466.666666667 475 573.333333333 475 688 c 0
 475 738 476.666666667 776.833333333 480 804.5 c 0
 483.333333333 832.166666667 490.333333333 852.833333333 501 866.5 c 0
 511.666666667 880.166666667 522.833333333 888.333333333 534.5 891 c 0
 546.166666667 893.666666667 564.666666667 895 590 895 c 2
 610 895 l 2
 622 895 635.166666667 895.833333333 649.5 897.5 c 0
 663.833333333 899.166666667 672.666666667 900 676 900 c 0
 682.666666667 900 687.333333333 898.333333333 690 895 c 0
 692.666666667 891.666666667 694 885.333333333 694 876 c 0
 694 864.666666667 684.333333333 800 665 682 c 0
 637 516.666666667 576.333333333 342 483 158 c 0
 482.333333333 157.333333333 482 156.333333333 482 155 c 0
 482 142.333333333 526 136 614 136 c 0x60
 733.333333333 136 846 146 952 166 c 0
 1015.33333333 178.666666667 1068 185 1110 185 c 0
 1124 185 1132 184 1134 182 c 0
 1136.66666667 179.333333333 1138 173.333333333 1138 164 c 0
 1138 153.333333333 1134.66666667 128 1128 88 c 1
 1108 6 l 1xa0
 587 6 l 2
 325 6 170.333333333 10 123 18 c 0
 89.6666666667 24 71 35 67 51 c 0
 65.6666666667 55.6666666667 65 62.6666666667 65 72 c 0x60
EndSplineSet
Validated: 1
EndChar

StartChar: J
Encoding: 74 74 8
Width: 1303
GlyphClass: 2
Flags: W
HStem: 17 83<476.427 818.283> 934 20G<223 319> 934 16G<223 319 954 1175>
VStem: 128 191<-352.429 51.9878 288.121 934> 954 221<263.26 950>
LayerCount: 2
Fore
SplineSet
128 -338 m 2xb8
 128 -338 128 -338 128 215 c 2
 128 934 l 1xb8
 223 944 l 1
 319 954 l 1xd8
 319 670 l 2
 319 518.666666667 330.333333333 402.333333333 353 321 c 0
 375.666666667 239.666666667 412 182.5 462 149.5 c 0
 512 116.5 583 100 675 100 c 0
 728.333333333 100 768.666666667 108 796 124 c 0
 823.333333333 140 852 171 882 217 c 0
 913.333333333 263.666666667 933.166666667 311.333333333 941.5 360 c 0
 949.833333333 408.666666667 954 501 954 637 c 2
 954 950 l 1
 1064 950 l 1
 1175 950 l 1
 1175 379 l 1
 1175 -193 l 1
 1101 -143 l 2
 1080.33333333 -129.666666667 1059.33333333 -110.5 1038 -85.5 c 0
 1016.66666667 -60.5 1001 -36.6666666667 991 -14 c 0
 980.333333333 9.33333333333 970.166666667 26 960.5 36 c 0
 950.833333333 46 940 51 928 51 c 0
 918 51 908 48.3333333333 898 43 c 0
 860 25.6666666667 774.666666667 17 642 17 c 0
 520 17 436.333333333 25 391 41 c 0
 371.666666667 48.3333333333 359 52 353 52 c 0
 337 52 327.333333333 35.3333333333 324 2 c 0
 320.666666667 -31.3333333333 319 -110.666666667 319 -236 c 2
 319 -356 l 1
 225 -356 l 2
 208.333333333 -356 192.333333333 -355 177 -353 c 0
 161.666666667 -351 149.666666667 -348.666666667 141 -346 c 0
 132.333333333 -343.333333333 128 -340.666666667 128 -338 c 2xb8
EndSplineSet
Validated: 1
EndChar

StartChar: j
Encoding: 106 106 9
Width: 1303
GlyphClass: 2
Flags: W
HStem: 17 83<476.427 818.283> 934 20G<223 319> 934 16G<223 319 954 1175>
VStem: 128 191<-352.429 51.9878 288.121 934> 954 221<263.26 950>
LayerCount: 2
Fore
SplineSet
128 -338 m 2xb8
 128 -338 128 -338 128 215 c 2
 128 934 l 1xb8
 223 944 l 1
 319 954 l 1xd8
 319 670 l 2
 319 518.666666667 330.333333333 402.333333333 353 321 c 0
 375.666666667 239.666666667 412 182.5 462 149.5 c 0
 512 116.5 583 100 675 100 c 0
 728.333333333 100 768.666666667 108 796 124 c 0
 823.333333333 140 852 171 882 217 c 0
 913.333333333 263.666666667 933.166666667 311.333333333 941.5 360 c 0
 949.833333333 408.666666667 954 501 954 637 c 2
 954 950 l 1
 1064 950 l 1
 1175 950 l 1
 1175 379 l 1
 1175 -193 l 1
 1101 -143 l 2
 1080.33333333 -129.666666667 1059.33333333 -110.5 1038 -85.5 c 0
 1016.66666667 -60.5 1001 -36.6666666667 991 -14 c 0
 980.333333333 9.33333333333 970.166666667 26 960.5 36 c 0
 950.833333333 46 940 51 928 51 c 0
 918 51 908 48.3333333333 898 43 c 0
 860 25.6666666667 774.666666667 17 642 17 c 0
 520 17 436.333333333 25 391 41 c 0
 371.666666667 48.3333333333 359 52 353 52 c 0
 337 52 327.333333333 35.3333333333 324 2 c 0
 320.666666667 -31.3333333333 319 -110.666666667 319 -236 c 2
 319 -356 l 1
 225 -356 l 2
 208.333333333 -356 192.333333333 -355 177 -353 c 0
 161.666666667 -351 149.666666667 -348.666666667 141 -346 c 0
 132.333333333 -343.333333333 128 -340.666666667 128 -338 c 2xb8
EndSplineSet
Validated: 1
EndChar

StartChar: K
Encoding: 75 75 10
Width: 1227
GlyphClass: 2
Flags: W
HStem: 913 20G<1039.67 1155>
VStem: 123 213<292 1405.47> 883 170<167.442 698.878>
LayerCount: 2
Fore
SplineSet
1073 -65 m 0
 1006.33333333 -19 958 46 928 130 c 0
 898 214 883 326.666666667 883 468 c 2
 883 703 l 1
 700 507 l 2
 572 367 478.666666667 253 420 165 c 0
 378.666666667 104.333333333 345.666666667 64.8333333333 321 46.5 c 0
 296.333333333 28.1666666667 263 19 221 19 c 2
 123 19 l 1
 123 718 l 1
 123 1416 l 1
 197 1436 l 2
 219.666666667 1441.33333333 240.333333333 1444 259 1444 c 0
 279 1444 293.666666667 1441.33333333 303 1436 c 0
 325 1422.66666667 336 1228.33333333 336 853 c 2
 336 292 l 1
 643 611 l 2
 735 707.666666667 804.666666667 777.833333333 852 821.5 c 0
 899.333333333 865.166666667 937.333333333 894.666666667 966 910 c 0
 994.666666667 925.333333333 1024.33333333 933 1055 933 c 2
 1155 933 l 1
 1104 818 l 2
 1070 742 1053 640.333333333 1053 513 c 0
 1053 343.666666667 1080.33333333 191.333333333 1135 56 c 0
 1176.33333333 -45.3333333333 1197 -106 1197 -126 c 0
 1197 -130 1196 -132 1194 -132 c 0
 1188 -132 1172.83333333 -125.333333333 1148.5 -112 c 0
 1124.16666667 -98.6666666667 1099 -83 1073 -65 c 0
EndSplineSet
Validated: 1
EndChar

StartChar: k
Encoding: 107 107 11
Width: 1227
GlyphClass: 2
Flags: W
HStem: 913 20G<1039.67 1155>
VStem: 123 213<292 1405.47> 883 170<167.442 698.878>
LayerCount: 2
Fore
SplineSet
1073 -65 m 0
 1006.33333333 -19 958 46 928 130 c 0
 898 214 883 326.666666667 883 468 c 2
 883 703 l 1
 700 507 l 2
 572 367 478.666666667 253 420 165 c 0
 378.666666667 104.333333333 345.666666667 64.8333333333 321 46.5 c 0
 296.333333333 28.1666666667 263 19 221 19 c 2
 123 19 l 1
 123 718 l 1
 123 1416 l 1
 197 1436 l 2
 219.666666667 1441.33333333 240.333333333 1444 259 1444 c 0
 279 1444 293.666666667 1441.33333333 303 1436 c 0
 325 1422.66666667 336 1228.33333333 336 853 c 2
 336 292 l 1
 643 611 l 2
 735 707.666666667 804.666666667 777.833333333 852 821.5 c 0
 899.333333333 865.166666667 937.333333333 894.666666667 966 910 c 0
 994.666666667 925.333333333 1024.33333333 933 1055 933 c 2
 1155 933 l 1
 1104 818 l 2
 1070 742 1053 640.333333333 1053 513 c 0
 1053 343.666666667 1080.33333333 191.333333333 1135 56 c 0
 1176.33333333 -45.3333333333 1197 -106 1197 -126 c 0
 1197 -130 1196 -132 1194 -132 c 0
 1188 -132 1172.83333333 -125.333333333 1148.5 -112 c 0
 1124.16666667 -98.6666666667 1099 -83 1073 -65 c 0
EndSplineSet
Validated: 1
EndChar

StartChar: L
Encoding: 76 76 12
Width: 1207
GlyphClass: 2
Flags: W
HStem: 8 95<476.755 986.688> 874 80<465.82 936.044>
VStem: 86 172<286.745 664.41>
LayerCount: 2
Fore
SplineSet
380 35 m 0
 368 38.3333333333 351.333333333 46.3333333333 330 59 c 0
 308.666666667 71.6666666667 283.666666667 90.3333333333 255 115 c 0
 226.333333333 139.666666667 199.666666667 167 175 197 c 0
 150.333333333 227 129.333333333 263.5 112 306.5 c 0
 94.6666666667 349.5 86 393.333333333 86 438 c 0
 86 560 103 657.666666667 137 731 c 0
 171 804.333333333 226 862 302 904 c 0
 340 925.333333333 387.166666667 939 443.5 945 c 0
 499.833333333 951 581.666666667 954 689 954 c 0
 825.666666667 954 927.666666667 943.666666667 995 923 c 0
 1062.33333333 902.333333333 1103.66666667 868.333333333 1119 821 c 0
 1126.33333333 797.666666667 1130 780.666666667 1130 770 c 0
 1130 753.333333333 1123.33333333 745 1110 745 c 0
 1090.66666667 745 1054.66666667 763.666666667 1002 801 c 0
 966.666666667 826.333333333 917.166666667 844.833333333 853.5 856.5 c 0
 789.833333333 868.166666667 737 874 695 874 c 2
 672 874 l 2
 536 874 437.333333333 838.333333333 376 767 c 0
 331.333333333 715 300.5 668.5 283.5 627.5 c 0
 266.5 586.5 258 536.333333333 258 477 c 0
 258 414.333333333 268.166666667 360 288.5 314 c 0
 308.833333333 268 342.666666667 227.666666667 390 193 c 0
 419.333333333 170.333333333 463.833333333 149.666666667 523.5 131 c 0
 583.166666667 112.333333333 640.666666667 103 696 103 c 0
 846.666666667 103 953.333333333 122.666666667 1016 162 c 2
 1137 238 l 1
 1127 162 l 2
 1123.66666667 140.666666667 1113.66666667 119 1097 97 c 0
 1080.33333333 75 1061 59 1039 49 c 0
 983 21.6666666667 872 8 706 8 c 2
 575 8 l 2
 503 8 438 17 380 35 c 0
EndSplineSet
Validated: 1
EndChar

StartChar: l
Encoding: 108 108 13
Width: 1207
GlyphClass: 2
Flags: W
HStem: 8 95<476.755 986.688> 874 80<465.82 936.044>
VStem: 86 172<286.745 664.41>
LayerCount: 2
Fore
SplineSet
380 35 m 0
 368 38.3333333333 351.333333333 46.3333333333 330 59 c 0
 308.666666667 71.6666666667 283.666666667 90.3333333333 255 115 c 0
 226.333333333 139.666666667 199.666666667 167 175 197 c 0
 150.333333333 227 129.333333333 263.5 112 306.5 c 0
 94.6666666667 349.5 86 393.333333333 86 438 c 0
 86 560 103 657.666666667 137 731 c 0
 171 804.333333333 226 862 302 904 c 0
 340 925.333333333 387.166666667 939 443.5 945 c 0
 499.833333333 951 581.666666667 954 689 954 c 0
 825.666666667 954 927.666666667 943.666666667 995 923 c 0
 1062.33333333 902.333333333 1103.66666667 868.333333333 1119 821 c 0
 1126.33333333 797.666666667 1130 780.666666667 1130 770 c 0
 1130 753.333333333 1123.33333333 745 1110 745 c 0
 1090.66666667 745 1054.66666667 763.666666667 1002 801 c 0
 966.666666667 826.333333333 917.166666667 844.833333333 853.5 856.5 c 0
 789.833333333 868.166666667 737 874 695 874 c 2
 672 874 l 2
 536 874 437.333333333 838.333333333 376 767 c 0
 331.333333333 715 300.5 668.5 283.5 627.5 c 0
 266.5 586.5 258 536.333333333 258 477 c 0
 258 414.333333333 268.166666667 360 288.5 314 c 0
 308.833333333 268 342.666666667 227.666666667 390 193 c 0
 419.333333333 170.333333333 463.833333333 149.666666667 523.5 131 c 0
 583.166666667 112.333333333 640.666666667 103 696 103 c 0
 846.666666667 103 953.333333333 122.666666667 1016 162 c 2
 1137 238 l 1
 1127 162 l 2
 1123.66666667 140.666666667 1113.66666667 119 1097 97 c 0
 1080.33333333 75 1061 59 1039 49 c 0
 983 21.6666666667 872 8 706 8 c 2
 575 8 l 2
 503 8 438 17 380 35 c 0
EndSplineSet
Validated: 1
EndChar

StartChar: M
Encoding: 77 77 14
Width: 1249
GlyphClass: 2
Flags: W
HStem: 14 131<956.013 1125.57> 14 101<90.5 653.459> 879 69<311.257 706.861>
VStem: 926 216<349.79 684.415>
LayerCount: 2
Fore
SplineSet
85 55 m 0x70
 85 66.3333333333 93 76.1666666667 109 84.5 c 0
 125 92.8333333333 153 100 193 106 c 0
 233 112 283 115 343 115 c 0x70
 481.666666667 115 590.166666667 131.666666667 668.5 165 c 0
 746.833333333 198.333333333 811.666666667 250.666666667 863 322 c 0
 905 379.333333333 926 444 926 516 c 0
 926 582.666666667 907.166666667 645.666666667 869.5 705 c 0
 831.833333333 764.333333333 780 810 714 842 c 0
 662.666666667 866.666666667 600.333333333 879 527 879 c 0
 401 879 288.666666667 848.666666667 190 788 c 2
 79 721 l 1
 91 793 l 2
 99 849 136.5 888.833333333 203.5 912.5 c 0
 270.5 936.166666667 379.333333333 948 530 948 c 0
 686.666666667 948 803.5 933.833333333 880.5 905.5 c 0
 957.5 877.166666667 1022 824.666666667 1074 748 c 0
 1119.33333333 682.666666667 1142 606 1142 518 c 0
 1142 455.333333333 1129.5 396.833333333 1104.5 342.5 c 0
 1079.5 288.166666667 1044.33333333 247.666666667 999 221 c 0
 970.333333333 203.666666667 956 187.333333333 956 172 c 0
 956 154 973.333333333 145 1008 145 c 0xb0
 1018.66666667 145 1033.33333333 146.666666667 1052 150 c 0
 1074 154 1091.66666667 156 1105 156 c 0
 1131 156 1144 146 1144 126 c 0
 1144 112.666666667 1138.66666667 91.6666666667 1128 63 c 0
 1124 51.6666666667 1115 42.8333333333 1101 36.5 c 0
 1087 30.1666666667 1059.5 25.1666666667 1018.5 21.5 c 0
 977.5 17.8333333333 925.5 15.3333333333 862.5 14 c 0
 799.5 12.6666666667 711 12 597 12 c 0
 492.333333333 12 407.833333333 12.6666666667 343.5 14 c 0
 279.166666667 15.3333333333 227.333333333 17.6666666667 188 21 c 0
 148.666666667 24.3333333333 121.666666667 28.6666666667 107 34 c 0
 92.3333333333 39.3333333333 85 46.3333333333 85 55 c 0x70
EndSplineSet
Validated: 1
EndChar

StartChar: m
Encoding: 109 109 15
Width: 1249
GlyphClass: 2
Flags: W
HStem: 14 131<956.013 1125.57> 14 101<90.5 653.459> 879 69<311.257 706.861>
VStem: 926 216<349.79 684.415>
LayerCount: 2
Fore
SplineSet
85 55 m 0x70
 85 66.3333333333 93 76.1666666667 109 84.5 c 0
 125 92.8333333333 153 100 193 106 c 0
 233 112 283 115 343 115 c 0x70
 481.666666667 115 590.166666667 131.666666667 668.5 165 c 0
 746.833333333 198.333333333 811.666666667 250.666666667 863 322 c 0
 905 379.333333333 926 444 926 516 c 0
 926 582.666666667 907.166666667 645.666666667 869.5 705 c 0
 831.833333333 764.333333333 780 810 714 842 c 0
 662.666666667 866.666666667 600.333333333 879 527 879 c 0
 401 879 288.666666667 848.666666667 190 788 c 2
 79 721 l 1
 91 793 l 2
 99 849 136.5 888.833333333 203.5 912.5 c 0
 270.5 936.166666667 379.333333333 948 530 948 c 0
 686.666666667 948 803.5 933.833333333 880.5 905.5 c 0
 957.5 877.166666667 1022 824.666666667 1074 748 c 0
 1119.33333333 682.666666667 1142 606 1142 518 c 0
 1142 455.333333333 1129.5 396.833333333 1104.5 342.5 c 0
 1079.5 288.166666667 1044.33333333 247.666666667 999 221 c 0
 970.333333333 203.666666667 956 187.333333333 956 172 c 0
 956 154 973.333333333 145 1008 145 c 0xb0
 1018.66666667 145 1033.33333333 146.666666667 1052 150 c 0
 1074 154 1091.66666667 156 1105 156 c 0
 1131 156 1144 146 1144 126 c 0
 1144 112.666666667 1138.66666667 91.6666666667 1128 63 c 0
 1124 51.6666666667 1115 42.8333333333 1101 36.5 c 0
 1087 30.1666666667 1059.5 25.1666666667 1018.5 21.5 c 0
 977.5 17.8333333333 925.5 15.3333333333 862.5 14 c 0
 799.5 12.6666666667 711 12 597 12 c 0
 492.333333333 12 407.833333333 12.6666666667 343.5 14 c 0
 279.166666667 15.3333333333 227.333333333 17.6666666667 188 21 c 0
 148.666666667 24.3333333333 121.666666667 28.6666666667 107 34 c 0
 92.3333333333 39.3333333333 85 46.3333333333 85 55 c 0x70
EndSplineSet
Validated: 1
EndChar

StartChar: N
Encoding: 78 78 16
Width: 1239
GlyphClass: 2
Flags: W
HStem: 4 70<517.495 867.102> 790 136<127.191 244.496> 805 121<153.534 268.994> 840 86<646.214 1046.05>
VStem: 87 225<249.98 585.067>
LayerCount: 2
Fore
SplineSet
301 74 m 0x98
 232.333333333 116 179.5 167 142.5 227 c 0
 105.5 287 87 349.666666667 87 415 c 0
 87 502.333333333 118 582.333333333 180 655 c 0
 239.333333333 725.666666667 269 770.666666667 269 790 c 0xc8
 269 800 261 805 245 805 c 0xa8
 234.333333333 805 218.333333333 802.333333333 197 797 c 0
 179 792.333333333 164.333333333 790 153 790 c 0xc8
 139.666666667 790 131 794.5 127 803.5 c 0
 123 812.5 121 830 121 856 c 2
 121 926 l 1
 621 926 l 2
 957 926 1129 911 1137 881 c 1
 1137 875 l 2
 1137 862.333333333 1124 853.333333333 1098 848 c 0
 1072 842.666666667 1028.33333333 840 967 840 c 0
 851 840 739 824.333333333 631 793 c 0
 523 761.666666667 447 722.666666667 403 676 c 0
 383 655.333333333 364.666666667 626.833333333 348 590.5 c 0
 331.333333333 554.166666667 321 520.333333333 317 489 c 0
 313.666666667 470.333333333 312 448.666666667 312 424 c 0
 312 322 348.166666667 238.166666667 420.5 172.5 c 0
 492.833333333 106.833333333 581.666666667 74 687 74 c 0
 761.666666667 74 835.666666667 91.6666666667 909 127 c 0
 945 144.333333333 985.333333333 158.166666667 1030 168.5 c 0
 1074.66666667 178.833333333 1110.33333333 184 1137 184 c 0
 1174.33333333 184 1193 179.666666667 1193 171 c 0
 1193 159.666666667 1155.66666667 132 1081 88 c 0
 1019.66666667 50.6666666667 966 27.3333333333 920 18 c 0
 874 8.66666666667 792.666666667 4 676 4 c 0
 570.666666667 4 493.5 8.66666666667 444.5 18 c 0
 395.5 27.3333333333 347.666666667 46 301 74 c 0x98
EndSplineSet
Validated: 1
EndChar

StartChar: n
Encoding: 110 110 17
Width: 1239
GlyphClass: 2
Flags: W
HStem: 4 70<517.495 867.102> 790 136<127.191 244.496> 805 121<153.534 268.994> 840 86<646.214 1046.05>
VStem: 87 225<249.98 585.067>
LayerCount: 2
Fore
SplineSet
301 74 m 0x98
 232.333333333 116 179.5 167 142.5 227 c 0
 105.5 287 87 349.666666667 87 415 c 0
 87 502.333333333 118 582.333333333 180 655 c 0
 239.333333333 725.666666667 269 770.666666667 269 790 c 0xc8
 269 800 261 805 245 805 c 0xa8
 234.333333333 805 218.333333333 802.333333333 197 797 c 0
 179 792.333333333 164.333333333 790 153 790 c 0xc8
 139.666666667 790 131 794.5 127 803.5 c 0
 123 812.5 121 830 121 856 c 2
 121 926 l 1
 621 926 l 2
 957 926 1129 911 1137 881 c 1
 1137 875 l 2
 1137 862.333333333 1124 853.333333333 1098 848 c 0
 1072 842.666666667 1028.33333333 840 967 840 c 0
 851 840 739 824.333333333 631 793 c 0
 523 761.666666667 447 722.666666667 403 676 c 0
 383 655.333333333 364.666666667 626.833333333 348 590.5 c 0
 331.333333333 554.166666667 321 520.333333333 317 489 c 0
 313.666666667 470.333333333 312 448.666666667 312 424 c 0
 312 322 348.166666667 238.166666667 420.5 172.5 c 0
 492.833333333 106.833333333 581.666666667 74 687 74 c 0
 761.666666667 74 835.666666667 91.6666666667 909 127 c 0
 945 144.333333333 985.333333333 158.166666667 1030 168.5 c 0
 1074.66666667 178.833333333 1110.33333333 184 1137 184 c 0
 1174.33333333 184 1193 179.666666667 1193 171 c 0
 1193 159.666666667 1155.66666667 132 1081 88 c 0
 1019.66666667 50.6666666667 966 27.3333333333 920 18 c 0
 874 8.66666666667 792.666666667 4 676 4 c 0
 570.666666667 4 493.5 8.66666666667 444.5 18 c 0
 395.5 27.3333333333 347.666666667 46 301 74 c 0x98
EndSplineSet
Validated: 1
EndChar

StartChar: P
Encoding: 80 80 18
Width: 1105
GlyphClass: 2
Flags: W
HStem: 0 21G<124 237.333> 1309 20G<186.667 202.667>
VStem: 124 199<201.018 1185.88>
LayerCount: 2
Fore
SplineSet
124 652 m 2
 124 1088 134 1311.33333333 154 1322 c 0
 164.666666667 1326.66666667 178.333333333 1329 195 1329 c 0
 210.333333333 1329 229.666666667 1326.66666667 253 1322 c 2
 323 1305 l 1
 323 754 l 2
 323 654.666666667 324.166666667 562.333333333 326.5 477 c 0
 328.833333333 391.666666667 331.833333333 324.333333333 335.5 275 c 0
 339.166666667 225.666666667 343 201 347 201 c 0
 367 201 444.666666667 273.333333333 580 418 c 0
 715.333333333 562.666666667 803.666666667 667.333333333 845 732 c 0
 873.666666667 777.333333333 898.5 808.833333333 919.5 826.5 c 0
 940.5 844.166666667 964 853 990 853 c 0
 1009.33333333 853 1025.83333333 851.166666667 1039.5 847.5 c 0
 1053.16666667 843.833333333 1060 839.666666667 1060 835 c 0
 1060 812.333333333 906.666666667 636 600 306 c 0
 509.333333333 208 444.166666667 139.833333333 404.5 101.5 c 0
 364.833333333 63.1666666667 332.166666667 36.6666666667 306.5 22 c 0
 280.833333333 7.33333333333 252.666666667 0 222 0 c 2
 124 0 l 1
 124 652 l 2
EndSplineSet
Validated: 1
EndChar

StartChar: p
Encoding: 112 112 19
Width: 1105
GlyphClass: 2
Flags: W
HStem: 0 21G<124 237.333> 1309 20G<186.667 202.667>
VStem: 124 199<201.018 1185.88>
LayerCount: 2
Fore
SplineSet
124 652 m 2
 124 1088 134 1311.33333333 154 1322 c 0
 164.666666667 1326.66666667 178.333333333 1329 195 1329 c 0
 210.333333333 1329 229.666666667 1326.66666667 253 1322 c 2
 323 1305 l 1
 323 754 l 2
 323 654.666666667 324.166666667 562.333333333 326.5 477 c 0
 328.833333333 391.666666667 331.833333333 324.333333333 335.5 275 c 0
 339.166666667 225.666666667 343 201 347 201 c 0
 367 201 444.666666667 273.333333333 580 418 c 0
 715.333333333 562.666666667 803.666666667 667.333333333 845 732 c 0
 873.666666667 777.333333333 898.5 808.833333333 919.5 826.5 c 0
 940.5 844.166666667 964 853 990 853 c 0
 1009.33333333 853 1025.83333333 851.166666667 1039.5 847.5 c 0
 1053.16666667 843.833333333 1060 839.666666667 1060 835 c 0
 1060 812.333333333 906.666666667 636 600 306 c 0
 509.333333333 208 444.166666667 139.833333333 404.5 101.5 c 0
 364.833333333 63.1666666667 332.166666667 36.6666666667 306.5 22 c 0
 280.833333333 7.33333333333 252.666666667 0 222 0 c 2
 124 0 l 1
 124 652 l 2
EndSplineSet
Validated: 1
EndChar

StartChar: R
Encoding: 82 82 20
Width: 1238
GlyphClass: 2
Flags: W
HStem: 12 76<278.875 746.742> 881 69<316.582 682.417>
VStem: 941 203<303.277 655.841>
LayerCount: 2
Fore
SplineSet
196 41 m 0
 170 51.6666666667 146.166666667 73.1666666667 124.5 105.5 c 0
 102.833333333 137.833333333 92 166 92 190 c 0
 92 202 95 211 101 217 c 0
 102.333333333 218.333333333 104.333333333 219 107 219 c 0
 116.333333333 219 131.666666667 213.666666667 153 203 c 0
 174.333333333 192.333333333 196 178.666666667 218 162 c 0
 258.666666667 132.666666667 299.166666667 113 339.5 103 c 0
 379.833333333 93 440.333333333 88 521 88 c 0
 559.666666667 88 588.333333333 88.1666666667 607 88.5 c 0
 625.666666667 88.8333333333 646 90.6666666667 668 94 c 0
 690 97.3333333333 705.5 100.833333333 714.5 104.5 c 0
 723.5 108.166666667 735.666666667 115.666666667 751 127 c 0
 766.333333333 138.333333333 778.833333333 149.333333333 788.5 160 c 0
 798.166666667 170.666666667 813 187.666666667 833 211 c 0
 905 293.666666667 941 382.333333333 941 477 c 0
 941 550.333333333 919.333333333 622 876 692 c 0
 840 751.333333333 788 797.666666667 720 831 c 0
 652 864.333333333 578.333333333 881 499 881 c 0
 390.333333333 881 294.666666667 851 212 791 c 0
 165.333333333 757.666666667 133.333333333 741 116 741 c 0
 102.666666667 741 96 750 96 768 c 0
 96 781.333333333 99.3333333333 798.333333333 106 819 c 0
 134.666666667 906.333333333 284 950 554 950 c 0
 678.666666667 950 782.666666667 935.166666667 866 905.5 c 0
 949.333333333 875.833333333 1020.66666667 828 1080 762 c 0
 1104.66666667 735.333333333 1121.5 702.5 1130.5 663.5 c 0
 1139.5 624.5 1144 563 1144 479 c 0
 1144 360.333333333 1126.66666667 272.5 1092 215.5 c 0
 1057.33333333 158.5 990 106.333333333 890 59 c 0
 858 44.3333333333 803.166666667 32.8333333333 725.5 24.5 c 0
 647.833333333 16.1666666667 566.333333333 12 481 12 c 0
 340.333333333 12 245.333333333 21.6666666667 196 41 c 0
EndSplineSet
Validated: 1
EndChar

StartChar: r
Encoding: 114 114 21
Width: 1238
GlyphClass: 2
Flags: W
HStem: 12 76<278.875 746.742> 881 69<316.582 682.417>
VStem: 941 203<303.277 655.841>
LayerCount: 2
Fore
SplineSet
196 41 m 0
 170 51.6666666667 146.166666667 73.1666666667 124.5 105.5 c 0
 102.833333333 137.833333333 92 166 92 190 c 0
 92 202 95 211 101 217 c 0
 102.333333333 218.333333333 104.333333333 219 107 219 c 0
 116.333333333 219 131.666666667 213.666666667 153 203 c 0
 174.333333333 192.333333333 196 178.666666667 218 162 c 0
 258.666666667 132.666666667 299.166666667 113 339.5 103 c 0
 379.833333333 93 440.333333333 88 521 88 c 0
 559.666666667 88 588.333333333 88.1666666667 607 88.5 c 0
 625.666666667 88.8333333333 646 90.6666666667 668 94 c 0
 690 97.3333333333 705.5 100.833333333 714.5 104.5 c 0
 723.5 108.166666667 735.666666667 115.666666667 751 127 c 0
 766.333333333 138.333333333 778.833333333 149.333333333 788.5 160 c 0
 798.166666667 170.666666667 813 187.666666667 833 211 c 0
 905 293.666666667 941 382.333333333 941 477 c 0
 941 550.333333333 919.333333333 622 876 692 c 0
 840 751.333333333 788 797.666666667 720 831 c 0
 652 864.333333333 578.333333333 881 499 881 c 0
 390.333333333 881 294.666666667 851 212 791 c 0
 165.333333333 757.666666667 133.333333333 741 116 741 c 0
 102.666666667 741 96 750 96 768 c 0
 96 781.333333333 99.3333333333 798.333333333 106 819 c 0
 134.666666667 906.333333333 284 950 554 950 c 0
 678.666666667 950 782.666666667 935.166666667 866 905.5 c 0
 949.333333333 875.833333333 1020.66666667 828 1080 762 c 0
 1104.66666667 735.333333333 1121.5 702.5 1130.5 663.5 c 0
 1139.5 624.5 1144 563 1144 479 c 0
 1144 360.333333333 1126.66666667 272.5 1092 215.5 c 0
 1057.33333333 158.5 990 106.333333333 890 59 c 0
 858 44.3333333333 803.166666667 32.8333333333 725.5 24.5 c 0
 647.833333333 16.1666666667 566.333333333 12 481 12 c 0
 340.333333333 12 245.333333333 21.6666666667 196 41 c 0
EndSplineSet
Validated: 1
EndChar

StartChar: S
Encoding: 83 83 22
Width: 1191
GlyphClass: 2
Flags: W
HStem: 6 61<472.114 708.694> 850 72<387.375 579.028>
VStem: 82 201<293.685 714.044> 617 183<611.538 815.447> 897 193<419.29 1369.06>
LayerCount: 2
Fore
SplineSet
324 55 m 0
 320 57 310.333333333 64.3333333333 295 77 c 0
 279.666666667 89.6666666667 259.666666667 109.5 235 136.5 c 0
 210.333333333 163.5 186.833333333 193.333333333 164.5 226 c 0
 142.166666667 258.666666667 122.833333333 298.5 106.5 345.5 c 0
 90.1666666667 392.5 82 439.666666667 82 487 c 0
 82 539 87.8333333333 587.333333333 99.5 632 c 0
 111.166666667 676.666666667 123.166666667 709.833333333 135.5 731.5 c 0
 147.833333333 753.166666667 161.5 773.666666667 176.5 793 c 0
 191.5 812.333333333 199 822.333333333 199 823 c 0
 209.666666667 843 242.5 864.5 297.5 887.5 c 0
 352.5 910.5 417.333333333 922 492 922 c 2
 523 922 l 2
 657 922 739.333333333 893.333333333 770 836 c 0
 790 799.333333333 800 761 800 721 c 0
 800 701.666666667 798.333333333 685.333333333 795 672 c 0
 788.333333333 642.666666667 779.5 622.333333333 768.5 611 c 0
 757.5 599.666666667 740.666666667 594 718 594 c 0
 715.333333333 594 710.666666667 594.333333333 704 595 c 0
 697.333333333 595.666666667 692 596 688 596 c 0
 656 596 636.166666667 601 628.5 611 c 0
 620.833333333 621 617 644.333333333 617 681 c 0
 617 683.666666667 617.166666667 687.833333333 617.5 693.5 c 0
 617.833333333 699.166666667 618 704.5 618 709.5 c 0
 618 714.5 617.666666667 719.666666667 617 725 c 0
 613 763.666666667 600.666666667 794.166666667 580 816.5 c 0
 559.333333333 838.833333333 534.333333333 850 505 850 c 0
 445.666666667 850 401.666666667 834.333333333 373 803 c 0
 334.333333333 761 309.666666667 724 299 692 c 0
 288.333333333 660 283 606 283 530 c 0
 283 393.333333333 312.166666667 282 370.5 196 c 0
 428.833333333 110 501.333333333 67 588 67 c 0
 631.333333333 67 675 78.6666666667 719 102 c 0
 765 126.666666667 800.666666667 166.166666667 826 220.5 c 0
 851.333333333 274.833333333 869.5 351.833333333 880.5 451.5 c 0
 891.5 551.166666667 897 686 897 856 c 0
 897 1002.66666667 898.666666667 1108.66666667 902 1174 c 0
 905.333333333 1239.33333333 911.166666667 1286.83333333 919.5 1316.5 c 0
 927.833333333 1346.16666667 942.333333333 1374.33333333 963 1401 c 0
 1004.33333333 1454.33333333 1032.66666667 1481 1048 1481 c 0
 1067.33333333 1481 1079.16666667 1446.5 1083.5 1377.5 c 0
 1087.83333333 1308.5 1090 1166.66666667 1090 952 c 0
 1090 749.333333333 1083.5 593 1070.5 483 c 0
 1057.5 373 1037 289.833333333 1009 233.5 c 0
 981 177.166666667 938.333333333 127.333333333 881 84 c 0
 840.333333333 52.6666666667 801.333333333 31.8333333333 764 21.5 c 0
 726.666666667 11.1666666667 672 6 600 6 c 2
 514 6 l 2
 465.333333333 6 402 22.3333333333 324 55 c 0
EndSplineSet
Validated: 1
EndChar

StartChar: s
Encoding: 115 115 23
Width: 1191
GlyphClass: 2
Flags: W
HStem: 6 61<472.114 708.694> 850 72<387.375 579.028>
VStem: 82 201<293.685 714.044> 617 183<611.538 815.447> 897 193<419.29 1369.06>
LayerCount: 2
Fore
SplineSet
324 55 m 0
 320 57 310.333333333 64.3333333333 295 77 c 0
 279.666666667 89.6666666667 259.666666667 109.5 235 136.5 c 0
 210.333333333 163.5 186.833333333 193.333333333 164.5 226 c 0
 142.166666667 258.666666667 122.833333333 298.5 106.5 345.5 c 0
 90.1666666667 392.5 82 439.666666667 82 487 c 0
 82 539 87.8333333333 587.333333333 99.5 632 c 0
 111.166666667 676.666666667 123.166666667 709.833333333 135.5 731.5 c 0
 147.833333333 753.166666667 161.5 773.666666667 176.5 793 c 0
 191.5 812.333333333 199 822.333333333 199 823 c 0
 209.666666667 843 242.5 864.5 297.5 887.5 c 0
 352.5 910.5 417.333333333 922 492 922 c 2
 523 922 l 2
 657 922 739.333333333 893.333333333 770 836 c 0
 790 799.333333333 800 761 800 721 c 0
 800 701.666666667 798.333333333 685.333333333 795 672 c 0
 788.333333333 642.666666667 779.5 622.333333333 768.5 611 c 0
 757.5 599.666666667 740.666666667 594 718 594 c 0
 715.333333333 594 710.666666667 594.333333333 704 595 c 0
 697.333333333 595.666666667 692 596 688 596 c 0
 656 596 636.166666667 601 628.5 611 c 0
 620.833333333 621 617 644.333333333 617 681 c 0
 617 683.666666667 617.166666667 687.833333333 617.5 693.5 c 0
 617.833333333 699.166666667 618 704.5 618 709.5 c 0
 618 714.5 617.666666667 719.666666667 617 725 c 0
 613 763.666666667 600.666666667 794.166666667 580 816.5 c 0
 559.333333333 838.833333333 534.333333333 850 505 850 c 0
 445.666666667 850 401.666666667 834.333333333 373 803 c 0
 334.333333333 761 309.666666667 724 299 692 c 0
 288.333333333 660 283 606 283 530 c 0
 283 393.333333333 312.166666667 282 370.5 196 c 0
 428.833333333 110 501.333333333 67 588 67 c 0
 631.333333333 67 675 78.6666666667 719 102 c 0
 765 126.666666667 800.666666667 166.166666667 826 220.5 c 0
 851.333333333 274.833333333 869.5 351.833333333 880.5 451.5 c 0
 891.5 551.166666667 897 686 897 856 c 0
 897 1002.66666667 898.666666667 1108.66666667 902 1174 c 0
 905.333333333 1239.33333333 911.166666667 1286.83333333 919.5 1316.5 c 0
 927.833333333 1346.16666667 942.333333333 1374.33333333 963 1401 c 0
 1004.33333333 1454.33333333 1032.66666667 1481 1048 1481 c 0
 1067.33333333 1481 1079.16666667 1446.5 1083.5 1377.5 c 0
 1087.83333333 1308.5 1090 1166.66666667 1090 952 c 0
 1090 749.333333333 1083.5 593 1070.5 483 c 0
 1057.5 373 1037 289.833333333 1009 233.5 c 0
 981 177.166666667 938.333333333 127.333333333 881 84 c 0
 840.333333333 52.6666666667 801.333333333 31.8333333333 764 21.5 c 0
 726.666666667 11.1666666667 672 6 600 6 c 2
 514 6 l 2
 465.333333333 6 402 22.3333333333 324 55 c 0
EndSplineSet
Validated: 1
EndChar

StartChar: T
Encoding: 84 84 24
Width: 1191
GlyphClass: 2
Flags: W
HStem: 772 87<485.921 734.969> 1325 20G<234.333 259>
VStem: 123 203<18 597.697 772.009 1308.49> 905 189<-13.4001 528.461>
LayerCount: 2
Fore
SplineSet
799 -302 m 0
 869.666666667 -135.333333333 905 38.3333333333 905 219 c 0
 905 321.666666667 893.333333333 414.666666667 870 498 c 0
 846.666666667 581.333333333 813 647.833333333 769 697.5 c 0
 725 747.166666667 674.666666667 772 618 772 c 0
 573.333333333 772 527.666666667 756.666666667 481 726 c 0
 421 686 380.166666667 633.333333333 358.5 568 c 0
 336.833333333 502.666666667 326 399 326 257 c 2
 326 18 l 1
 229 18 l 1
 123 18 l 1
 123 657 l 2
 123 821.666666667 123.5 943.833333333 124.5 1023.5 c 0
 125.5 1103.16666667 128.166666667 1168 132.5 1218 c 0
 136.833333333 1268 142.166666667 1298.33333333 148.5 1309 c 0
 154.833333333 1319.66666667 164.666666667 1327.33333333 178 1332 c 0
 205.333333333 1340.66666667 226.666666667 1345 242 1345 c 0
 276 1345 298.5 1323.83333333 309.5 1281.5 c 0
 320.5 1239.16666667 326 1159.33333333 326 1042 c 0
 326 994.666666667 327 950 329 908 c 0
 331 866 333.5 832.833333333 336.5 808.5 c 0
 339.5 784.166666667 342.666666667 772 346 772 c 0
 358.666666667 772 390 786.666666667 440 816 c 0
 490 844.666666667 547.333333333 859 612 859 c 0
 695.333333333 859 776.166666667 835.5 854.5 788.5 c 0
 932.833333333 741.5 993.333333333 678.333333333 1036 599 c 0
 1062.66666667 550.333333333 1079 508.166666667 1085 472.5 c 0
 1091 436.833333333 1094 376 1094 290 c 2
 1094 239 l 2
 1094 180.333333333 1087.83333333 125.5 1075.5 74.5 c 0
 1063.16666667 23.5 1050 -16.5 1036 -45.5 c 0
 1022 -74.5 1001.66666667 -111.333333333 975 -156 c 0
 946.333333333 -204 913.5 -247.666666667 876.5 -287 c 0
 839.5 -326.333333333 813.666666667 -346 799 -346 c 0
 793 -346 790 -342.333333333 790 -335 c 256
 790 -327.666666667 793 -316.666666667 799 -302 c 0
EndSplineSet
Validated: 1
EndChar

StartChar: t
Encoding: 116 116 25
Width: 1191
GlyphClass: 2
Flags: W
HStem: 772 87<485.921 734.969> 1325 20G<234.333 259>
VStem: 123 203<18 597.697 772.009 1308.49> 905 189<-13.4001 528.461>
LayerCount: 2
Fore
SplineSet
799 -302 m 0
 869.666666667 -135.333333333 905 38.3333333333 905 219 c 0
 905 321.666666667 893.333333333 414.666666667 870 498 c 0
 846.666666667 581.333333333 813 647.833333333 769 697.5 c 0
 725 747.166666667 674.666666667 772 618 772 c 0
 573.333333333 772 527.666666667 756.666666667 481 726 c 0
 421 686 380.166666667 633.333333333 358.5 568 c 0
 336.833333333 502.666666667 326 399 326 257 c 2
 326 18 l 1
 229 18 l 1
 123 18 l 1
 123 657 l 2
 123 821.666666667 123.5 943.833333333 124.5 1023.5 c 0
 125.5 1103.16666667 128.166666667 1168 132.5 1218 c 0
 136.833333333 1268 142.166666667 1298.33333333 148.5 1309 c 0
 154.833333333 1319.66666667 164.666666667 1327.33333333 178 1332 c 0
 205.333333333 1340.66666667 226.666666667 1345 242 1345 c 0
 276 1345 298.5 1323.83333333 309.5 1281.5 c 0
 320.5 1239.16666667 326 1159.33333333 326 1042 c 0
 326 994.666666667 327 950 329 908 c 0
 331 866 333.5 832.833333333 336.5 808.5 c 0
 339.5 784.166666667 342.666666667 772 346 772 c 0
 358.666666667 772 390 786.666666667 440 816 c 0
 490 844.666666667 547.333333333 859 612 859 c 0
 695.333333333 859 776.166666667 835.5 854.5 788.5 c 0
 932.833333333 741.5 993.333333333 678.333333333 1036 599 c 0
 1062.66666667 550.333333333 1079 508.166666667 1085 472.5 c 0
 1091 436.833333333 1094 376 1094 290 c 2
 1094 239 l 2
 1094 180.333333333 1087.83333333 125.5 1075.5 74.5 c 0
 1063.16666667 23.5 1050 -16.5 1036 -45.5 c 0
 1022 -74.5 1001.66666667 -111.333333333 975 -156 c 0
 946.333333333 -204 913.5 -247.666666667 876.5 -287 c 0
 839.5 -326.333333333 813.666666667 -346 799 -346 c 0
 793 -346 790 -342.333333333 790 -335 c 256
 790 -327.666666667 793 -316.666666667 799 -302 c 0
EndSplineSet
Validated: 1
EndChar

StartChar: V
Encoding: 86 86 26
Width: 1061
GlyphClass: 2
Flags: W
HStem: 750 137.5<806.225 986.211> 772 127<80.9375 691>
VStem: 467 187<105.033 524.575>
LayerCount: 2
Fore
SplineSet
467 236 m 2xa0
 467 351.333333333 480.666666667 444.5 508 515.5 c 0
 535.333333333 586.5 576.333333333 651 631 709 c 2
 691 772 l 1
 371 772 l 2
 351 772 325.833333333 770 295.5 766 c 0
 265.166666667 762 244.666666667 760 234 760 c 0
 162 760 116 761.5 96 764.5 c 0
 76 767.5 66 775.333333333 66 788 c 0
 66 790 67.3333333333 797 70 809 c 0
 80.6666666667 850.333333333 86 876.333333333 86 887 c 0
 86 895 240.333333333 899 549 899 c 0x60
 660.333333333 899 745.166666667 898.333333333 803.5 897 c 0
 861.833333333 895.666666667 907.333333333 892.5 940 887.5 c 0
 972.666666667 882.5 992.5 876.666666667 999.5 870 c 0
 1006.5 863.333333333 1010 853.333333333 1010 840 c 0
 1010 820.666666667 1000.5 804.333333333 981.5 791 c 0
 962.5 777.666666667 931 764 887 750 c 0
 822.333333333 731.333333333 774 708.333333333 742 681 c 0
 710 653.666666667 687.333333333 615.833333333 674 567.5 c 0
 660.666666667 519.166666667 654 450 654 360 c 0
 654 288.666666667 652.166666667 237.333333333 648.5 206 c 0
 644.833333333 174.666666667 638.333333333 150.166666667 629 132.5 c 0
 619.666666667 114.833333333 602.666666667 94.6666666667 578 72 c 0
 532 29.3333333333 503 8 491 8 c 0
 480.333333333 8 473.666666667 18.3333333333 471 39 c 0
 468.333333333 59.6666666667 467 98.3333333333 467 155 c 2
 467 236 l 2xa0
EndSplineSet
Validated: 1
EndChar

StartChar: v
Encoding: 118 118 27
Width: 1061
GlyphClass: 2
Flags: W
HStem: 750 137.5<806.225 986.211> 772 127<80.9375 691>
VStem: 467 187<105.033 524.575>
LayerCount: 2
Fore
SplineSet
467 236 m 2xa0
 467 351.333333333 480.666666667 444.5 508 515.5 c 0
 535.333333333 586.5 576.333333333 651 631 709 c 2
 691 772 l 1
 371 772 l 2
 351 772 325.833333333 770 295.5 766 c 0
 265.166666667 762 244.666666667 760 234 760 c 0
 162 760 116 761.5 96 764.5 c 0
 76 767.5 66 775.333333333 66 788 c 0
 66 790 67.3333333333 797 70 809 c 0
 80.6666666667 850.333333333 86 876.333333333 86 887 c 0
 86 895 240.333333333 899 549 899 c 0x60
 660.333333333 899 745.166666667 898.333333333 803.5 897 c 0
 861.833333333 895.666666667 907.333333333 892.5 940 887.5 c 0
 972.666666667 882.5 992.5 876.666666667 999.5 870 c 0
 1006.5 863.333333333 1010 853.333333333 1010 840 c 0
 1010 820.666666667 1000.5 804.333333333 981.5 791 c 0
 962.5 777.666666667 931 764 887 750 c 0
 822.333333333 731.333333333 774 708.333333333 742 681 c 0
 710 653.666666667 687.333333333 615.833333333 674 567.5 c 0
 660.666666667 519.166666667 654 450 654 360 c 0
 654 288.666666667 652.166666667 237.333333333 648.5 206 c 0
 644.833333333 174.666666667 638.333333333 150.166666667 629 132.5 c 0
 619.666666667 114.833333333 602.666666667 94.6666666667 578 72 c 0
 532 29.3333333333 503 8 491 8 c 0
 480.333333333 8 473.666666667 18.3333333333 471 39 c 0
 468.333333333 59.6666666667 467 98.3333333333 467 155 c 2
 467 236 l 2xa0
EndSplineSet
Validated: 1
EndChar

StartChar: Z
Encoding: 90 90 28
Width: 1174
GlyphClass: 2
Flags: W
HStem: 1 50<618.83 763.64> 817 63<474.34 704.466>
VStem: 121 159<-367 515.742> 408 156<94.0457 297.573> 884 203<222.582 625.525>
LayerCount: 2
Fore
SplineSet
108 18 m 1
 108 236 111.5 376.666666667 118.5 440 c 0
 125.5 503.333333333 144 564.666666667 174 624 c 0
 219.333333333 713.333333333 275.333333333 778.333333333 342 819 c 0
 408.666666667 859.666666667 492.666666667 880 594 880 c 0
 739.333333333 880 857.833333333 836.833333333 949.5 750.5 c 0
 1041.16666667 664.166666667 1087 557.666666667 1087 431 c 0
 1087 355 1069.33333333 279.333333333 1034 204 c 0
 1006.66666667 145.333333333 972.333333333 101.5 931 72.5 c 0
 889.666666667 43.5 832.666666667 22 760 8 c 0
 736 3.33333333333 711 1 685 1 c 0
 607.666666667 1 542.166666667 21.1666666667 488.5 61.5 c 0
 434.833333333 101.833333333 408 147.666666667 408 199 c 0
 408 255.666666667 441.333333333 302 508 338 c 0
 544.666666667 357.333333333 571.666666667 367 589 367 c 0
 602.333333333 367 609 361 609 349 c 0
 609 339 604.666666667 326.333333333 596 311 c 0
 574.666666667 271 564 232.666666667 564 196 c 0
 564 154 576.166666667 119.333333333 600.5 92 c 0
 624.833333333 64.6666666667 654 51 688 51 c 0
 740.666666667 51 786.333333333 82.3333333333 825 145 c 0
 864.333333333 209.666666667 884 297 884 407 c 0
 884 525 861.666666667 617.333333333 817 684 c 0
 788.333333333 726 753.5 758.666666667 712.5 782 c 0
 671.5 805.333333333 629.333333333 817 586 817 c 0
 542 817 502.333333333 805.333333333 467 782 c 0
 414.333333333 748 375.166666667 705.166666667 349.5 653.5 c 0
 323.833333333 601.833333333 305.833333333 528.166666667 295.5 432.5 c 0
 285.166666667 336.833333333 280 198 280 16 c 2
 280 -367 l 1
 207 -367 l 1
 121 -367 l 1
 108 18 l 1
EndSplineSet
Validated: 1
EndChar

StartChar: z
Encoding: 122 122 29
Width: 1174
GlyphClass: 2
Flags: W
HStem: 1 50<618.83 763.64> 817 63<474.34 704.466>
VStem: 121 159<-367 515.742> 408 156<94.0457 297.573> 884 203<222.582 625.525>
LayerCount: 2
Fore
SplineSet
108 18 m 1
 108 236 111.5 376.666666667 118.5 440 c 0
 125.5 503.333333333 144 564.666666667 174 624 c 0
 219.333333333 713.333333333 275.333333333 778.333333333 342 819 c 0
 408.666666667 859.666666667 492.666666667 880 594 880 c 0
 739.333333333 880 857.833333333 836.833333333 949.5 750.5 c 0
 1041.16666667 664.166666667 1087 557.666666667 1087 431 c 0
 1087 355 1069.33333333 279.333333333 1034 204 c 0
 1006.66666667 145.333333333 972.333333333 101.5 931 72.5 c 0
 889.666666667 43.5 832.666666667 22 760 8 c 0
 736 3.33333333333 711 1 685 1 c 0
 607.666666667 1 542.166666667 21.1666666667 488.5 61.5 c 0
 434.833333333 101.833333333 408 147.666666667 408 199 c 0
 408 255.666666667 441.333333333 302 508 338 c 0
 544.666666667 357.333333333 571.666666667 367 589 367 c 0
 602.333333333 367 609 361 609 349 c 0
 609 339 604.666666667 326.333333333 596 311 c 0
 574.666666667 271 564 232.666666667 564 196 c 0
 564 154 576.166666667 119.333333333 600.5 92 c 0
 624.833333333 64.6666666667 654 51 688 51 c 0
 740.666666667 51 786.333333333 82.3333333333 825 145 c 0
 864.333333333 209.666666667 884 297 884 407 c 0
 884 525 861.666666667 617.333333333 817 684 c 0
 788.333333333 726 753.5 758.666666667 712.5 782 c 0
 671.5 805.333333333 629.333333333 817 586 817 c 0
 542 817 502.333333333 805.333333333 467 782 c 0
 414.333333333 748 375.166666667 705.166666667 349.5 653.5 c 0
 323.833333333 601.833333333 305.833333333 528.166666667 295.5 432.5 c 0
 285.166666667 336.833333333 280 198 280 16 c 2
 280 -367 l 1
 207 -367 l 1
 121 -367 l 1
 108 18 l 1
EndSplineSet
Validated: 1
EndChar

StartChar: G
Encoding: 71 71 30
Width: 1212
GlyphClass: 2
Flags: W
HStem: 920 20G<122.333 158 968.667 1086>
VStem: 182 193<360.25 841.295> 902 184<-240 737>
LayerCount: 2
Fore
SplineSet
991 -326 m 2
 902 -240 l 1
 902 182 l 1
 902 737 l 1
 785 612 l 2
 774.333333333 600 728.5 548.333333333 647.5 457 c 0
 566.5 365.666666667 503 294.666666667 457 244 c 0
 374.333333333 151.333333333 314.5 89.6666666667 277.5 59 c 0
 240.5 28.3333333333 207 13 177 13 c 0
 170.333333333 13 165.333333333 13.3333333333 162 14 c 0
 135.333333333 17.3333333333 116.166666667 25.1666666667 104.5 37.5 c 0
 92.8333333333 49.8333333333 87 70 87 98 c 0
 87 144.666666667 106 234.333333333 144 367 c 0
 169.333333333 459 182 545 182 625 c 0
 182 743 158.333333333 827.666666667 111 879 c 0
 87 906.333333333 75 922.666666667 75 928 c 0
 75 936 98.6666666667 940 146 940 c 0
 170 940 194.5 937.333333333 219.5 932 c 0
 244.5 926.666666667 261.666666667 921 271 915 c 0
 304.333333333 892.333333333 330 856.666666667 348 808 c 0
 366 759.333333333 375 703.333333333 375 640 c 0
 375 575.333333333 365.666666667 510.666666667 347 446 c 0
 335 400 329 365 329 341 c 0
 329 331.666666667 330 326 332 324 c 0
 332.666666667 323.333333333 333.333333333 323 334 323 c 0
 352 323 425.333333333 391.5 554 528.5 c 0
 682.666666667 665.5 770.666666667 768.666666667 818 838 c 0
 844.666666667 877.333333333 870 904.166666667 894 918.5 c 0
 918 932.833333333 949.333333333 940 988 940 c 2
 1086 940 l 1
 1086 209 l 2
 1086 90.3333333333 1087.33333333 -32.1666666667 1090 -158.5 c 0
 1092.66666667 -284.833333333 1094 -351.666666667 1094 -359 c 0
 1094 -385 1093 -398.666666667 1091 -400 c 0
 1090 -400 1090 -400 1090 -400 c 1
 1088 -401 l 1
 1071.33333333 -401 1039 -376 991 -326 c 2
EndSplineSet
Validated: 1
EndChar

StartChar: g
Encoding: 103 103 31
Width: 1212
GlyphClass: 2
Flags: W
HStem: 920 20G<122.333 158 968.667 1086>
VStem: 182 193<360.25 841.295> 902 184<-240 737>
LayerCount: 2
Fore
SplineSet
991 -326 m 2
 902 -240 l 1
 902 182 l 1
 902 737 l 1
 785 612 l 2
 774.333333333 600 728.5 548.333333333 647.5 457 c 0
 566.5 365.666666667 503 294.666666667 457 244 c 0
 374.333333333 151.333333333 314.5 89.6666666667 277.5 59 c 0
 240.5 28.3333333333 207 13 177 13 c 0
 170.333333333 13 165.333333333 13.3333333333 162 14 c 0
 135.333333333 17.3333333333 116.166666667 25.1666666667 104.5 37.5 c 0
 92.8333333333 49.8333333333 87 70 87 98 c 0
 87 144.666666667 106 234.333333333 144 367 c 0
 169.333333333 459 182 545 182 625 c 0
 182 743 158.333333333 827.666666667 111 879 c 0
 87 906.333333333 75 922.666666667 75 928 c 0
 75 936 98.6666666667 940 146 940 c 0
 170 940 194.5 937.333333333 219.5 932 c 0
 244.5 926.666666667 261.666666667 921 271 915 c 0
 304.333333333 892.333333333 330 856.666666667 348 808 c 0
 366 759.333333333 375 703.333333333 375 640 c 0
 375 575.333333333 365.666666667 510.666666667 347 446 c 0
 335 400 329 365 329 341 c 0
 329 331.666666667 330 326 332 324 c 0
 332.666666667 323.333333333 333.333333333 323 334 323 c 0
 352 323 425.333333333 391.5 554 528.5 c 0
 682.666666667 665.5 770.666666667 768.666666667 818 838 c 0
 844.666666667 877.333333333 870 904.166666667 894 918.5 c 0
 918 932.833333333 949.333333333 940 988 940 c 2
 1086 940 l 1
 1086 209 l 2
 1086 90.3333333333 1087.33333333 -32.1666666667 1090 -158.5 c 0
 1092.66666667 -284.833333333 1094 -351.666666667 1094 -359 c 0
 1094 -385 1093 -398.666666667 1091 -400 c 0
 1090 -400 1090 -400 1090 -400 c 1
 1088 -401 l 1
 1071.33333333 -401 1039 -376 991 -326 c 2
EndSplineSet
Validated: 1
EndChar

StartChar: H
Encoding: 72 72 32
Width: 440
GlyphClass: 2
Flags: W
VStem: 114.14 215.61<14.8848 838>
LayerCount: 2
Fore
SplineSet
216 -280 m 0
 175 -225 146 -114 132 53 c 0
 119.951212255 178.759222085 114.140339148 350.452179229 114.140339148 567.651829903 c 0
 114.140339148 638.879071995 114.76524617 715.000148765 116 796 c 1
 117 840 l 1
 229 840 l 1
 325 838 l 1
 329 375 l 2
 329.5 308.5 329.75 243.5 329.75 179.75 c 0
 329.75 116 329.5 53.5 329 -8 c 0
 328 -130 326 -225 323 -292 c 0
 320 -359 318 -393 315 -393 c 0
 311 -393 300 -382 280 -360 c 0
 262 -339 240 -312 216 -280 c 0
EndSplineSet
Validated: 1
EndChar

StartChar: x
Encoding: 120 120 33
Width: 1294
GlyphClass: 2
Flags: W
HStem: 14 56<516.848 753.718> 916 71<516.425 777.113>
VStem: 84 222<297.911 694.513> 974 233<312.781 683.673>
LayerCount: 2
Fore
SplineSet
298 100 m 0
 216 159.333333333 160 215.333333333 130 268 c 0
 99.3333333333 322 84 393 84 481 c 0
 84 629.666666667 134 750.666666667 234 844 c 1
 341.333333333 939.333333333 473 987 629 987 c 0
 735.666666667 987 823.333333333 971.666666667 892 941 c 0
 959.333333333 909.666666667 1028.66666667 854 1100 774 c 0
 1171.33333333 693.333333333 1207 604 1207 506 c 0
 1207 482.666666667 1204.33333333 456.666666667 1199 428 c 0
 1176.33333333 298 1102.66666667 185.333333333 978 90 c 1
 906 39.3333333333 801 14 663 14 c 2
 567 14 l 2
 505.666666667 14 465.333333333 16.3333333333 446 21 c 0
 413.333333333 27.6666666667 364 54 298 100 c 0
804 123 m 1
 886 181.666666667 938.333333333 266.333333333 961 377 c 0
 969.666666667 416.333333333 974 456 974 496 c 0
 974 566.666666667 959.666666667 634.666666667 931 700 c 0
 890.333333333 802.666666667 825 869 735 899 c 0
 702.333333333 910.333333333 670.666666667 916 640 916 c 0
 550.666666667 916 470 868 398 772 c 0
 339.333333333 694 310 620.666666667 310 552 c 0
 310 545.333333333 309.333333333 535.333333333 308 522 c 0
 306.666666667 508.666666667 306 498.666666667 306 492 c 0
 306 435.333333333 315.666666667 381.666666667 335 331 c 0
 362.333333333 267 399.333333333 208.333333333 446 155 c 0
 498.666666667 98.3333333333 554.333333333 70 613 70 c 0
 682.333333333 70 746 87.6666666667 804 123 c 1
EndSplineSet
Validated: 1
EndChar

StartChar: X
Encoding: 88 88 34
Width: 1294
GlyphClass: 2
Flags: W
HStem: 14 56<516.848 753.718> 916 71<516.425 777.113>
VStem: 84 222<297.911 694.513> 974 233<312.781 683.673>
LayerCount: 2
Fore
SplineSet
298 100 m 0
 216 159.333333333 160 215.333333333 130 268 c 0
 99.3333333333 322 84 393 84 481 c 0
 84 629.666666667 134 750.666666667 234 844 c 1
 341.333333333 939.333333333 473 987 629 987 c 0
 735.666666667 987 823.333333333 971.666666667 892 941 c 0
 959.333333333 909.666666667 1028.66666667 854 1100 774 c 0
 1171.33333333 693.333333333 1207 604 1207 506 c 0
 1207 482.666666667 1204.33333333 456.666666667 1199 428 c 0
 1176.33333333 298 1102.66666667 185.333333333 978 90 c 1
 906 39.3333333333 801 14 663 14 c 2
 567 14 l 2
 505.666666667 14 465.333333333 16.3333333333 446 21 c 0
 413.333333333 27.6666666667 364 54 298 100 c 0
804 123 m 1
 886 181.666666667 938.333333333 266.333333333 961 377 c 0
 969.666666667 416.333333333 974 456 974 496 c 0
 974 566.666666667 959.666666667 634.666666667 931 700 c 0
 890.333333333 802.666666667 825 869 735 899 c 0
 702.333333333 910.333333333 670.666666667 916 640 916 c 0
 550.666666667 916 470 868 398 772 c 0
 339.333333333 694 310 620.666666667 310 552 c 0
 310 545.333333333 309.333333333 535.333333333 308 522 c 0
 306.666666667 508.666666667 306 498.666666667 306 492 c 0
 306 435.333333333 315.666666667 381.666666667 335 331 c 0
 362.333333333 267 399.333333333 208.333333333 446 155 c 0
 498.666666667 98.3333333333 554.333333333 70 613 70 c 0
 682.333333333 70 746 87.6666666667 804 123 c 1
EndSplineSet
Validated: 1
EndChar

StartChar: A
Encoding: 65 65 35
Width: 612
GlyphClass: 2
Flags: W
HStem: 834 570<325.604 379.038>
VStem: 226 160<952.415 1400.77>
LayerCount: 2
Fore
SplineSet
291 922 m 0
 264.333333333 958 246.833333333 994.166666667 238.5 1030.5 c 0
 230.166666667 1066.83333333 226 1125.66666667 226 1207 c 0
 226 1305 229.5 1362.33333333 236.5 1379 c 0
 243.5 1395.66666667 266.666666667 1404 306 1404 c 2
 386 1404 l 1
 386 1119 l 2
 386 1067.66666667 385.333333333 1020 384 976 c 0
 382.666666667 932 380.833333333 897.333333333 378.5 872 c 0
 376.166666667 846.666666667 373.666666667 834 371 834 c 0
 361.666666667 834 335 863.333333333 291 922 c 0
EndSplineSet
Validated: 1
EndChar

StartChar: a
Encoding: 97 97 36
Width: 612
GlyphClass: 2
Flags: W
HStem: 834 570<325.604 379.038>
VStem: 226 160<952.415 1400.77>
LayerCount: 2
Fore
SplineSet
291 922 m 0
 264.333333333 958 246.833333333 994.166666667 238.5 1030.5 c 0
 230.166666667 1066.83333333 226 1125.66666667 226 1207 c 0
 226 1305 229.5 1362.33333333 236.5 1379 c 0
 243.5 1395.66666667 266.666666667 1404 306 1404 c 2
 386 1404 l 1
 386 1119 l 2
 386 1067.66666667 385.333333333 1020 384 976 c 0
 382.666666667 932 380.833333333 897.333333333 378.5 872 c 0
 376.166666667 846.666666667 373.666666667 834 371 834 c 0
 361.666666667 834 335 863.333333333 291 922 c 0
EndSplineSet
Validated: 1
EndChar

StartChar: E
Encoding: 69 69 37
Width: 692
GlyphClass: 2
Flags: W
HStem: 1207 150<63.9794 641.375>
VStem: 32 628
LayerCount: 2
Fore
SplineSet
32 1247 m 0
 32 1277 42.3333333333 1299.66666667 63 1315 c 0
 83.6666666667 1330.33333333 118.833333333 1341.16666667 168.5 1347.5 c 0
 218.166666667 1353.83333333 291 1357 387 1357 c 2
 660 1357 l 1
 648 1286 l 2
 646 1271.33333333 644.166666667 1261 642.5 1255 c 0
 640.833333333 1249 636.166666667 1242.16666667 628.5 1234.5 c 0
 620.833333333 1226.83333333 611.666666667 1221.83333333 601 1219.5 c 0
 590.333333333 1217.16666667 572.333333333 1214.66666667 547 1212 c 0
 521.666666667 1209.33333333 493.5 1207.83333333 462.5 1207.5 c 0
 431.5 1207.16666667 389 1207 335 1207 c 2
 229 1207 l 2
 181 1207 145.666666667 1207.33333333 123 1208 c 0
 100.333333333 1208.66666667 81.1666666667 1210.5 65.5 1213.5 c 0
 49.8333333333 1216.5 40.3333333333 1220.33333333 37 1225 c 0
 33.6666666667 1229.66666667 32 1237 32 1247 c 0
EndSplineSet
Validated: 1
EndChar

StartChar: e
Encoding: 101 101 38
Width: 692
GlyphClass: 2
Flags: W
HStem: 1207 150<63.9794 641.375>
VStem: 32 628
LayerCount: 2
Fore
SplineSet
32 1247 m 0
 32 1277 42.3333333333 1299.66666667 63 1315 c 0
 83.6666666667 1330.33333333 118.833333333 1341.16666667 168.5 1347.5 c 0
 218.166666667 1353.83333333 291 1357 387 1357 c 2
 660 1357 l 1
 648 1286 l 2
 646 1271.33333333 644.166666667 1261 642.5 1255 c 0
 640.833333333 1249 636.166666667 1242.16666667 628.5 1234.5 c 0
 620.833333333 1226.83333333 611.666666667 1221.83333333 601 1219.5 c 0
 590.333333333 1217.16666667 572.333333333 1214.66666667 547 1212 c 0
 521.666666667 1209.33333333 493.5 1207.83333333 462.5 1207.5 c 0
 431.5 1207.16666667 389 1207 335 1207 c 2
 229 1207 l 2
 181 1207 145.666666667 1207.33333333 123 1208 c 0
 100.333333333 1208.66666667 81.1666666667 1210.5 65.5 1213.5 c 0
 49.8333333333 1216.5 40.3333333333 1220.33333333 37 1225 c 0
 33.6666666667 1229.66666667 32 1237 32 1247 c 0
EndSplineSet
Validated: 1
EndChar

StartChar: I
Encoding: 73 73 39
Width: 620
GlyphClass: 2
Flags: W
HStem: 1056 324<213.9 397.713>
VStem: 148 327<1132.04 1331.75>
LayerCount: 2
Fore
SplineSet
212 1102 m 0
 169.333333333 1134.66666667 148 1175.66666667 148 1225 c 0
 148 1266.33333333 163.333333333 1302.5 194 1333.5 c 0
 224.666666667 1364.5 264.333333333 1380 313 1380 c 0
 361.666666667 1380 400.833333333 1366.5 430.5 1339.5 c 0
 460.166666667 1312.5 475 1279.66666667 475 1241 c 0
 475 1193 453.666666667 1150 411 1112 c 0
 369.666666667 1074.66666667 336 1056 310 1056 c 0
 285.333333333 1056 252.666666667 1071.33333333 212 1102 c 0
EndSplineSet
Validated: 1
EndChar

StartChar: i
Encoding: 105 105 40
Width: 620
GlyphClass: 2
Flags: W
HStem: 1056 324<213.9 397.713>
VStem: 148 327<1132.04 1331.75>
LayerCount: 2
Fore
SplineSet
212 1102 m 0
 169.333333333 1134.66666667 148 1175.66666667 148 1225 c 0
 148 1266.33333333 163.333333333 1302.5 194 1333.5 c 0
 224.666666667 1364.5 264.333333333 1380 313 1380 c 0
 361.666666667 1380 400.833333333 1366.5 430.5 1339.5 c 0
 460.166666667 1312.5 475 1279.66666667 475 1241 c 0
 475 1193 453.666666667 1150 411 1112 c 0
 369.666666667 1074.66666667 336 1056 310 1056 c 0
 285.333333333 1056 252.666666667 1071.33333333 212 1102 c 0
EndSplineSet
Validated: 1
EndChar

StartChar: O
Encoding: 79 79 41
Width: 620
GlyphClass: 2
Flags: W
HStem: 978 400 1307 20G<131.667 187.667>
VStem: 104 427
LayerCount: 2
Fore
SplineSet
206 1034 m 0xa0
 206 1068.66666667 188 1124 152 1200 c 0
 120 1266 104 1303.66666667 104 1313 c 0
 104 1319 106.5 1322.83333333 111.5 1324.5 c 0
 116.5 1326.16666667 125.333333333 1327 138 1327 c 2
 165 1327 l 2x60
 210.333333333 1327 244.333333333 1304.66666667 267 1260 c 2
 303 1190 l 1
 400 1286 l 2
 463.333333333 1347.33333333 504.333333333 1378 523 1378 c 0
 528.333333333 1378 531 1375 531 1369 c 0
 531 1355.66666667 518.333333333 1330.33333333 493 1293 c 0
 451.666666667 1231 415 1164 383 1092 c 0
 363.666666667 1049.33333333 345.833333333 1019.66666667 329.5 1003 c 0
 313.166666667 986.333333333 293 978 269 978 c 0
 246.333333333 978 230.166666667 982.333333333 220.5 991 c 0
 210.833333333 999.666666667 206 1014 206 1034 c 0xa0
EndSplineSet
Validated: 1
EndChar

StartChar: o
Encoding: 111 111 42
Width: 620
GlyphClass: 2
Flags: W
HStem: 978 400 1307 20G<131.667 187.667>
VStem: 104 427
LayerCount: 2
Fore
SplineSet
206 1034 m 0xa0
 206 1068.66666667 188 1124 152 1200 c 0
 120 1266 104 1303.66666667 104 1313 c 0
 104 1319 106.5 1322.83333333 111.5 1324.5 c 0
 116.5 1326.16666667 125.333333333 1327 138 1327 c 2
 165 1327 l 2x60
 210.333333333 1327 244.333333333 1304.66666667 267 1260 c 2
 303 1190 l 1
 400 1286 l 2
 463.333333333 1347.33333333 504.333333333 1378 523 1378 c 0
 528.333333333 1378 531 1375 531 1369 c 0
 531 1355.66666667 518.333333333 1330.33333333 493 1293 c 0
 451.666666667 1231 415 1164 383 1092 c 0
 363.666666667 1049.33333333 345.833333333 1019.66666667 329.5 1003 c 0
 313.166666667 986.333333333 293 978 269 978 c 0
 246.333333333 978 230.166666667 982.333333333 220.5 991 c 0
 210.833333333 999.666666667 206 1014 206 1034 c 0xa0
EndSplineSet
Validated: 1
EndChar

StartChar: U
Encoding: 85 85 43
Width: 660
GlyphClass: 2
Flags: W
HStem: 1038 157<239.496 463.387> 1282 20G<599.333 614.333>
VStem: 51 178<1199.43 1316.26>
LayerCount: 2
Fore
SplineSet
102 1094 m 0
 68 1132 51 1174 51 1220 c 0
 51 1258.66666667 63.5 1291.16666667 88.5 1317.5 c 0
 113.5 1343.83333333 146.666666667 1357 188 1357 c 0
 206 1357 219 1353.83333333 227 1347.5 c 0
 235 1341.16666667 239 1330.33333333 239 1315 c 0
 239 1306.33333333 237.333333333 1293 234 1275 c 0
 230.666666667 1256.33333333 229 1242.66666667 229 1234 c 0
 229 1217.33333333 234.833333333 1206.66666667 246.5 1202 c 0
 258.166666667 1197.33333333 281 1195 315 1195 c 0
 341 1195 374.166666667 1201.66666667 414.5 1215 c 0
 454.833333333 1228.33333333 490 1244.33333333 520 1263 c 0
 561.333333333 1289 590.666666667 1302 608 1302 c 0
 620.666666667 1302 627 1295 627 1281 c 0
 627 1261.66666667 616.333333333 1232.66666667 595 1194 c 0
 569.666666667 1148 525 1110.5 461 1081.5 c 0
 397 1052.5 332 1038 266 1038 c 0
 190 1038 135.333333333 1056.66666667 102 1094 c 0
EndSplineSet
Validated: 1
EndChar

StartChar: u
Encoding: 117 117 44
Width: 660
GlyphClass: 2
Flags: W
HStem: 1038 157<239.496 463.387> 1282 20G<599.333 614.333>
VStem: 51 178<1199.43 1316.26>
LayerCount: 2
Fore
SplineSet
102 1094 m 0
 68 1132 51 1174 51 1220 c 0
 51 1258.66666667 63.5 1291.16666667 88.5 1317.5 c 0
 113.5 1343.83333333 146.666666667 1357 188 1357 c 0
 206 1357 219 1353.83333333 227 1347.5 c 0
 235 1341.16666667 239 1330.33333333 239 1315 c 0
 239 1306.33333333 237.333333333 1293 234 1275 c 0
 230.666666667 1256.33333333 229 1242.66666667 229 1234 c 0
 229 1217.33333333 234.833333333 1206.66666667 246.5 1202 c 0
 258.166666667 1197.33333333 281 1195 315 1195 c 0
 341 1195 374.166666667 1201.66666667 414.5 1215 c 0
 454.833333333 1228.33333333 490 1244.33333333 520 1263 c 0
 561.333333333 1289 590.666666667 1302 608 1302 c 0
 620.666666667 1302 627 1295 627 1281 c 0
 627 1261.66666667 616.333333333 1232.66666667 595 1194 c 0
 569.666666667 1148 525 1110.5 461 1081.5 c 0
 397 1052.5 332 1038 266 1038 c 0
 190 1038 135.333333333 1056.66666667 102 1094 c 0
EndSplineSet
Validated: 1
EndChar

StartChar: Y
Encoding: 89 89 45
Width: 622
GlyphClass: 2
Flags: W
HStem: 910 93<196.206 398.573> 1268 81<213.509 391.054>
VStem: 78 88<1030.78 1224.16> 437 86<1043.78 1225.63>
LayerCount: 2
Fore
SplineSet
209 932 m 0
 165.666666667 950.666666667 133 977.5 111 1012.5 c 0
 89 1047.5 78 1085.33333333 78 1126 c 0
 78 1185.33333333 98.5 1237.33333333 139.5 1282 c 0
 180.5 1326.66666667 235 1349 303 1349 c 0
 367 1349 419.666666667 1327.33333333 461 1284 c 0
 502.333333333 1240.66666667 523 1190.33333333 523 1133 c 0
 523 1077 502.333333333 1028.66666667 461 988 c 0
 407 936 354.666666667 910 304 910 c 0
 274.666666667 910 243 917.333333333 209 932 c 0
395 1044 m 0
 406.333333333 1055.33333333 416.166666667 1070 424.5 1088 c 0
 432.833333333 1106 437 1122 437 1136 c 0
 437 1166 423.166666667 1195.5 395.5 1224.5 c 0
 367.833333333 1253.5 340 1268 312 1268 c 0
 270.666666667 1268 236 1253 208 1223 c 0
 180 1193 166 1159 166 1121 c 0
 166 1086.33333333 178 1057 202 1033 c 0
 222 1013 250.333333333 1003 287 1003 c 0
 331.666666667 1003 367.666666667 1016.66666667 395 1044 c 0
EndSplineSet
Validated: 1
EndChar

StartChar: y
Encoding: 121 121 46
Width: 622
GlyphClass: 2
Flags: W
HStem: 910 93<196.206 398.573> 1268 81<213.509 391.054>
VStem: 78 88<1030.78 1224.16> 437 86<1043.78 1225.63>
LayerCount: 2
Fore
SplineSet
209 932 m 0
 165.666666667 950.666666667 133 977.5 111 1012.5 c 0
 89 1047.5 78 1085.33333333 78 1126 c 0
 78 1185.33333333 98.5 1237.33333333 139.5 1282 c 0
 180.5 1326.66666667 235 1349 303 1349 c 0
 367 1349 419.666666667 1327.33333333 461 1284 c 0
 502.333333333 1240.66666667 523 1190.33333333 523 1133 c 0
 523 1077 502.333333333 1028.66666667 461 988 c 0
 407 936 354.666666667 910 304 910 c 0
 274.666666667 910 243 917.333333333 209 932 c 0
395 1044 m 0
 406.333333333 1055.33333333 416.166666667 1070 424.5 1088 c 0
 432.833333333 1106 437 1122 437 1136 c 0
 437 1166 423.166666667 1195.5 395.5 1224.5 c 0
 367.833333333 1253.5 340 1268 312 1268 c 0
 270.666666667 1268 236 1253 208 1223 c 0
 180 1193 166 1159 166 1121 c 0
 166 1086.33333333 178 1057 202 1033 c 0
 222 1013 250.333333333 1003 287 1003 c 0
 331.666666667 1003 367.666666667 1016.66666667 395 1044 c 0
EndSplineSet
Validated: 1
EndChar

StartChar: h
Encoding: 104 104 47
Width: 440
GlyphClass: 2
Flags: W
VStem: 114.14 215.61<14.8848 838>
LayerCount: 2
Fore
SplineSet
216 -280 m 0
 175 -225 146 -114 132 53 c 0
 119.951212255 178.759222085 114.140339148 350.452179229 114.140339148 567.651829903 c 0
 114.140339148 638.879071995 114.76524617 715.000148765 116 796 c 1
 117 840 l 1
 229 840 l 1
 325 838 l 1
 329 375 l 2
 329.5 308.5 329.75 243.5 329.75 179.75 c 0
 329.75 116 329.5 53.5 329 -8 c 0
 328 -130 326 -225 323 -292 c 0
 320 -359 318 -393 315 -393 c 0
 311 -393 300 -382 280 -360 c 0
 262 -339 240 -312 216 -280 c 0
EndSplineSet
Validated: 1
EndChar

StartChar: period
Encoding: 46 46 48
Width: 620
GlyphClass: 2
Flags: W
HStem: 237 440<206.828 422.926>
VStem: 81 457<362.47 562.625>
LayerCount: 2
Fore
SplineSet
151 318 m 0
 104.333333333 369.333333333 81 418.333333333 81 465 c 0
 81 519 112.666666667 568 176 612 c 0
 237.333333333 655.333333333 287 677 325 677 c 0
 367.666666667 677 417.333333333 646.666666667 474 586 c 0
 516.666666667 540.666666667 538 502.666666667 538 472 c 0
 538 452 530 427 514 397 c 0
 486.666666667 345 455.166666667 305.333333333 419.5 278 c 0
 383.833333333 250.666666667 346.666666667 237 308 237 c 0
 251.333333333 237 199 264 151 318 c 0
EndSplineSet
Validated: 1
EndChar

StartChar: quotesingle
Encoding: 39 39 49
Width: 440
GlyphClass: 2
Flags: W
VStem: 114.14 215.61<14.8848 838>
LayerCount: 2
Fore
SplineSet
216 -280 m 0
 175 -225 146 -114 132 53 c 0
 119.951212255 178.759222085 114.140339148 350.452179229 114.140339148 567.651829903 c 0
 114.140339148 638.879071995 114.76524617 715.000148765 116 796 c 1
 117 840 l 1
 229 840 l 1
 325 838 l 1
 329 375 l 2
 329.5 308.5 329.75 243.5 329.75 179.75 c 0
 329.75 116 329.5 53.5 329 -8 c 0
 328 -130 326 -225 323 -292 c 0
 320 -359 318 -393 315 -393 c 0
 311 -393 300 -382 280 -360 c 0
 262 -339 240 -312 216 -280 c 0
EndSplineSet
Validated: 1
EndChar

StartChar: period.e
Encoding: 257 -1 50
Width: 692
GlyphClass: 3
Flags: W
HStem: 250 440<245.828 461.926> 1207 150<63.9794 641.375>
VStem: 120 457<375.47 575.625>
LayerCount: 2
Fore
SplineSet
190 331 m 0
 143.333333333 382.333333333 120 431.333333333 120 478 c 0
 120 532 151.666666667 581 215 625 c 0
 276.333333333 668.333333333 326 690 364 690 c 0
 406.666666667 690 456.333333333 659.666666667 513 599 c 0
 555.666666667 553.666666667 577 515.666666667 577 485 c 0
 577 465 569 440 553 410 c 0
 525.666666667 358 494.166666667 318.333333333 458.5 291 c 0
 422.833333333 263.666666667 385.666666667 250 347 250 c 0
 290.333333333 250 238 277 190 331 c 0
32 1247 m 0
 32 1277 42.3333333333 1299.66666667 63 1315 c 0
 83.6666666667 1330.33333333 118.833333333 1341.16666667 168.5 1347.5 c 0
 218.166666667 1353.83333333 291 1357 387 1357 c 2
 660 1357 l 1
 648 1286 l 2
 646 1271.33333333 644.166666667 1261 642.5 1255 c 0
 640.833333333 1249 636.166666667 1242.16666667 628.5 1234.5 c 0
 620.833333333 1226.83333333 611.666666667 1221.83333333 601 1219.5 c 0
 590.333333333 1217.16666667 572.333333333 1214.66666667 547 1212 c 0
 521.666666667 1209.33333333 493.5 1207.83333333 462.5 1207.5 c 0
 431.5 1207.16666667 389 1207 335 1207 c 2
 229 1207 l 2
 181 1207 145.666666667 1207.33333333 123 1208 c 0
 100.333333333 1208.66666667 81.1666666667 1210.5 65.5 1213.5 c 0
 49.8333333333 1216.5 40.3333333333 1220.33333333 37 1225 c 0
 33.6666666667 1229.66666667 32 1237 32 1247 c 0
EndSplineSet
Validated: 1
Ligature2: "ccmp-1 subtable" period E
Ligature2: "ccmp-1 subtable" period e
Ligature2: "ccmp-0 subtable" period E
Ligature2: "ccmp-0 subtable" period e
Ligature2: "ccmp-1" period e
Ligature2: "ccmp-1" period E
EndChar

StartChar: period.a
Encoding: 256 -1 51
Width: 612
GlyphClass: 3
Flags: W
HStem: 247 440<202.828 418.926> 1384 20G<286.333 386>
VStem: 77 457<372.47 572.625> 226 160<952.415 1400.77>
LayerCount: 2
Fore
SplineSet
291 922 m 0xd0
 264.333333333 958 246.833333333 994.166666667 238.5 1030.5 c 0
 230.166666667 1066.83333333 226 1125.66666667 226 1207 c 0
 226 1305 229.5 1362.33333333 236.5 1379 c 0
 243.5 1395.66666667 266.666666667 1404 306 1404 c 2
 386 1404 l 1
 386 1119 l 2
 386 1067.66666667 385.333333333 1020 384 976 c 0
 382.666666667 932 380.833333333 897.333333333 378.5 872 c 0
 376.166666667 846.666666667 373.666666667 834 371 834 c 0
 361.666666667 834 335 863.333333333 291 922 c 0xd0
147 328 m 0
 100.333333333 379.333333333 77 428.333333333 77 475 c 0
 77 529 108.666666667 578 172 622 c 0
 233.333333333 665.333333333 283 687 321 687 c 0
 363.666666667 687 413.333333333 656.666666667 470 596 c 0
 512.666666667 550.666666667 534 512.666666667 534 482 c 0xe0
 534 462 526 437 510 407 c 0
 482.666666667 355 451.166666667 315.333333333 415.5 288 c 0
 379.833333333 260.666666667 342.666666667 247 304 247 c 0
 247.333333333 247 195 274 147 328 c 0
EndSplineSet
Validated: 1
Ligature2: "ccmp-1 subtable" period A
Ligature2: "ccmp-1 subtable" period a
Ligature2: "ccmp-0 subtable" period A
Ligature2: "ccmp-0 subtable" period a
Ligature2: "ccmp-1" period a
Ligature2: "ccmp-1" period A
EndChar

StartChar: period.i
Encoding: 258 -1 52
Width: 620
GlyphClass: 3
Flags: W
HStem: 237 440<206.828 422.926> 1056 324<213.9 397.713>
VStem: 81 457<362.47 562.625> 148 327<1132.04 1331.75>
LayerCount: 2
Fore
SplineSet
151 318 m 0xe0
 104.333333333 369.333333333 81 418.333333333 81 465 c 0
 81 519 112.666666667 568 176 612 c 0
 237.333333333 655.333333333 287 677 325 677 c 0
 367.666666667 677 417.333333333 646.666666667 474 586 c 0
 516.666666667 540.666666667 538 502.666666667 538 472 c 0
 538 452 530 427 514 397 c 0
 486.666666667 345 455.166666667 305.333333333 419.5 278 c 0
 383.833333333 250.666666667 346.666666667 237 308 237 c 0
 251.333333333 237 199 264 151 318 c 0xe0
212 1102 m 0
 169.333333333 1134.66666667 148 1175.66666667 148 1225 c 0
 148 1266.33333333 163.333333333 1302.5 194 1333.5 c 0
 224.666666667 1364.5 264.333333333 1380 313 1380 c 0
 361.666666667 1380 400.833333333 1366.5 430.5 1339.5 c 0
 460.166666667 1312.5 475 1279.66666667 475 1241 c 0xd0
 475 1193 453.666666667 1150 411 1112 c 0
 369.666666667 1074.66666667 336 1056 310 1056 c 0
 285.333333333 1056 252.666666667 1071.33333333 212 1102 c 0
EndSplineSet
Validated: 1
Ligature2: "ccmp-1" period I
Ligature2: "ccmp-1" period i
Ligature2: "ccmp-0 subtable" period i
Ligature2: "ccmp-0 subtable" period I
Ligature2: "ccmp-1 subtable" period i
Ligature2: "ccmp-1 subtable" period I
EndChar

StartChar: period.o
Encoding: 259 -1 53
Width: 620
GlyphClass: 3
Flags: W
HStem: 240 440<206.828 422.926> 978 21G<257.667 281> 1307 20G<131.667 187.667 513.667 525.667>
VStem: 81 457<365.47 565.625>
LayerCount: 2
Fore
SplineSet
151 321 m 0
 104.333333333 372.333333333 81 421.333333333 81 468 c 0
 81 522 112.666666667 571 176 615 c 0
 237.333333333 658.333333333 287 680 325 680 c 0
 367.666666667 680 417.333333333 649.666666667 474 589 c 0
 516.666666667 543.666666667 538 505.666666667 538 475 c 0
 538 455 530 430 514 400 c 0
 486.666666667 348 455.166666667 308.333333333 419.5 281 c 0
 383.833333333 253.666666667 346.666666667 240 308 240 c 0
 251.333333333 240 199 267 151 321 c 0
206 1034 m 0
 206 1068.66666667 188 1124 152 1200 c 0
 120 1266 104 1303.66666667 104 1313 c 0
 104 1319 106.5 1322.83333333 111.5 1324.5 c 0
 116.5 1326.16666667 125.333333333 1327 138 1327 c 2
 165 1327 l 2
 210.333333333 1327 244.333333333 1304.66666667 267 1260 c 2
 303 1190 l 1
 400 1286 l 2
 463.333333333 1347.33333333 504.333333333 1378 523 1378 c 0
 528.333333333 1378 531 1375 531 1369 c 0
 531 1355.66666667 518.333333333 1330.33333333 493 1293 c 0
 451.666666667 1231 415 1164 383 1092 c 0
 363.666666667 1049.33333333 345.833333333 1019.66666667 329.5 1003 c 0
 313.166666667 986.333333333 293 978 269 978 c 0
 246.333333333 978 230.166666667 982.333333333 220.5 991 c 0
 210.833333333 999.666666667 206 1014 206 1034 c 0
EndSplineSet
Validated: 1
Ligature2: "ccmp-1" period o
Ligature2: "ccmp-1" period O
Ligature2: "ccmp-0 subtable" period O
Ligature2: "ccmp-0 subtable" period o
Ligature2: "ccmp-1 subtable" period O
Ligature2: "ccmp-1 subtable" period o
EndChar

StartChar: period.u
Encoding: 260 -1 54
Width: 660
GlyphClass: 3
Flags: W
HStem: 236 440<223.591 439.926> 1038 157<239.496 463.387> 1282 20G<599.333 614.333>
VStem: 51 178<1199.43 1316.26> 97 457<361.47 563.734>
LayerCount: 2
Fore
SplineSet
167 317 m 0xe8
 120.333333333 369.666666667 97 418.333333333 97 463 c 0
 97 517.666666667 129 567 193 611 c 0
 254.333333333 654.333333333 304 676 342 676 c 0
 384.666666667 676 434.333333333 645.666666667 491 585 c 0
 533 540.333333333 554 502.666666667 554 472 c 0
 554 451.333333333 546 426 530 396 c 0
 502.666666667 344 471.166666667 304.333333333 435.5 277 c 0
 399.833333333 249.666666667 362.666666667 236 324 236 c 0
 267.333333333 236 215 263 167 317 c 0xe8
102 1094 m 0
 68 1132 51 1174 51 1220 c 0
 51 1258.66666667 63.5 1291.16666667 88.5 1317.5 c 0
 113.5 1343.83333333 146.666666667 1357 188 1357 c 0
 206 1357 219 1353.83333333 227 1347.5 c 0
 235 1341.16666667 239 1330.33333333 239 1315 c 0
 239 1306.33333333 237.333333333 1293 234 1275 c 0
 230.666666667 1256.33333333 229 1242.66666667 229 1234 c 0xf0
 229 1217.33333333 234.833333333 1206.66666667 246.5 1202 c 0
 258.166666667 1197.33333333 281 1195 315 1195 c 0
 341 1195 374.166666667 1201.66666667 414.5 1215 c 0
 454.833333333 1228.33333333 490 1244.33333333 520 1263 c 0
 561.333333333 1289 590.666666667 1302 608 1302 c 0
 620.666666667 1302 627 1295 627 1281 c 0
 627 1261.66666667 616.333333333 1232.66666667 595 1194 c 0
 569.666666667 1148 525 1110.5 461 1081.5 c 0
 397 1052.5 332 1038 266 1038 c 0
 190 1038 135.333333333 1056.66666667 102 1094 c 0
EndSplineSet
Validated: 1
Ligature2: "ccmp-1" period U
Ligature2: "ccmp-1" period u
Ligature2: "ccmp-0 subtable" period u
Ligature2: "ccmp-0 subtable" period U
Ligature2: "ccmp-1 subtable" period u
Ligature2: "ccmp-1 subtable" period U
EndChar

StartChar: period.y
Encoding: 261 -1 55
Width: 622
GlyphClass: 3
Flags: W
HStem: 238 440<209.591 425.926> 910 93<196.206 398.573> 1268 81<213.509 391.054>
VStem: 78 88<1030.78 1224.16> 83 458<363.47 563.496> 437 86<1043.78 1225.63>
LayerCount: 2
Fore
SplineSet
153 319 m 0xe8
 106.333333333 371.666666667 83 420.333333333 83 465 c 0
 83 519.666666667 115 569 179 613 c 0
 240.333333333 656.333333333 290 678 328 678 c 0
 370.666666667 678 420.333333333 647.666666667 477 587 c 0
 519.666666667 541.666666667 541 503.666666667 541 473 c 0
 541 453 533 428 517 398 c 0
 489.666666667 346 458 306.333333333 422 279 c 0
 386 251.666666667 348.666666667 238 310 238 c 0
 253.333333333 238 201 265 153 319 c 0xe8
209 932 m 0
 165.666666667 950.666666667 133 977.5 111 1012.5 c 0
 89 1047.5 78 1085.33333333 78 1126 c 0
 78 1185.33333333 98.5 1237.33333333 139.5 1282 c 0
 180.5 1326.66666667 235 1349 303 1349 c 0
 367 1349 419.666666667 1327.33333333 461 1284 c 0
 502.333333333 1240.66666667 523 1190.33333333 523 1133 c 0xf4
 523 1077 502.333333333 1028.66666667 461 988 c 0
 407 936 354.666666667 910 304 910 c 0
 274.666666667 910 243 917.333333333 209 932 c 0
395 1044 m 0
 406.333333333 1055.33333333 416.166666667 1070 424.5 1088 c 0
 432.833333333 1106 437 1122 437 1136 c 0
 437 1166 423.166666667 1195.5 395.5 1224.5 c 0
 367.833333333 1253.5 340 1268 312 1268 c 0
 270.666666667 1268 236 1253 208 1223 c 0
 180 1193 166 1159 166 1121 c 0
 166 1086.33333333 178 1057 202 1033 c 0
 222 1013 250.333333333 1003 287 1003 c 0
 331.666666667 1003 367.666666667 1016.66666667 395 1044 c 0
EndSplineSet
Validated: 1
LCarets2: 1 0
Ligature2: "ccmp-1" period Y
Ligature2: "ccmp-1" period y
Ligature2: "ccmp-0 subtable" period y
Ligature2: "ccmp-0 subtable" period Y
Ligature2: "ccmp-1 subtable" period y
Ligature2: "ccmp-1 subtable" period Y
EndChar

StartChar: period.ai
Encoding: 262 -1 56
Width: 616
GlyphClass: 3
Flags: W
HStem: 245 440<205.828 421.926> 1146 20G<291.333 330> 1239 156<251.628 374.103>
VStem: 80 457<370.47 570.625> 231 159<916.578 1150.52 1248.63 1373.34>
LayerCount: 2
Fore
SplineSet
150 326 m 0xf0
 103.333333333 377.333333333 80 426.333333333 80 473 c 0
 80 527 111.666666667 576 175 620 c 0
 236.333333333 663.333333333 286 685 324 685 c 0
 366.666666667 685 416.333333333 654.666666667 473 594 c 0
 515.666666667 548.666666667 537 510.666666667 537 480 c 0
 537 460 529 435 513 405 c 0
 485.666666667 353 454.166666667 313.333333333 418.5 286 c 0
 382.833333333 258.666666667 345.666666667 245 307 245 c 0
 250.333333333 245 198 272 150 326 c 0xf0
285 905 m 0
 249 943 231 996 231 1064 c 0
 231 1112 234.833333333 1141 242.5 1151 c 0
 250.166666667 1161 272.666666667 1166 310 1166 c 0
 350 1166 373.333333333 1159.33333333 380 1146 c 0
 386.666666667 1132.66666667 390 1086 390 1006 c 0xe8
 390 951.333333333 387.5 912 382.5 888 c 0
 377.5 864 368.666666667 852 356 852 c 0
 340.666666667 852 317 869.666666667 285 905 c 0
240 1279 m 0
 234 1294.33333333 231 1308.33333333 231 1321 c 0
 231 1342.33333333 237.666666667 1360 251 1374 c 0
 264.333333333 1388 282 1395 304 1395 c 0
 309.333333333 1395 313.666666667 1394.66666667 317 1394 c 0
 362.333333333 1388 385 1360.66666667 385 1312 c 0
 385 1308 385.333333333 1302.66666667 386 1296 c 0
 386.666666667 1289.33333333 387 1284.66666667 387 1282 c 0
 387 1264.66666667 382.833333333 1253.16666667 374.5 1247.5 c 0
 366.166666667 1241.83333333 349.333333333 1239 324 1239 c 0
 304.666666667 1239 286.833333333 1243 270.5 1251 c 0
 254.166666667 1259 244 1268.33333333 240 1279 c 0
EndSplineSet
Validated: 1
Ligature2: "ccmp-1 subtable" period a I
Ligature2: "ccmp-1 subtable" period a i
Ligature2: "ccmp-1 subtable" period A i
Ligature2: "ccmp-1 subtable" period A I
Ligature2: "ccmp-0 subtable" period a I
Ligature2: "ccmp-0 subtable" period a i
Ligature2: "ccmp-0 subtable" period A i
Ligature2: "ccmp-0 subtable" period A I
Ligature2: "ccmp-1" period A I
Ligature2: "ccmp-1" period A i
Ligature2: "ccmp-1" period a i
Ligature2: "ccmp-1" period a I
EndChar

StartChar: period.au
Encoding: 263 -1 57
Width: 616
GlyphClass: 3
Flags: W
HStem: 240 440<204.828 421.828> 883 21G<255.667 268.667> 1232 163<214.129 343.527>
VStem: 79 457<365.47 567.853> 349 140<1047.19 1223.54>
LayerCount: 2
Fore
SplineSet
149 321 m 0xf0
 102.333333333 372.333333333 79 421.333333333 79 468 c 0
 79 522 110.666666667 571 174 615 c 0
 235.333333333 658.333333333 285 680 323 680 c 0
 366.333333333 680 416.333333333 649.666666667 473 589 c 0
 515 544.333333333 536 506.666666667 536 476 c 0
 536 455.333333333 528 430 512 400 c 0
 484.666666667 348 453.166666667 308.333333333 417.5 281 c 0
 381.833333333 253.666666667 344.666666667 240 306 240 c 0
 249.333333333 240 197 267 149 321 c 0xf0
292 975 m 0
 330 1035.66666667 349 1093.66666667 349 1149 c 0
 349 1199 332 1224 298 1224 c 0
 246.666666667 1224 213.666666667 1226.66666667 199 1232 c 0
 184.333333333 1237.33333333 177 1252 177 1276 c 0
 177 1312 189 1340.83333333 213 1362.5 c 0
 237 1384.16666667 266.333333333 1395 301 1395 c 0
 350.333333333 1395 394.333333333 1374.66666667 433 1334 c 0
 470.333333333 1293.33333333 489 1248 489 1198 c 0xe8
 489 1154.66666667 475.333333333 1106.66666667 448 1054 c 0
 428 1015.33333333 397 977.166666667 355 939.5 c 0
 313 901.833333333 280.333333333 883 257 883 c 0
 254.333333333 883 253 885 253 889 c 0
 253 904.333333333 266 933 292 975 c 0
EndSplineSet
Validated: 1
Ligature2: "ccmp-1" period a u
Ligature2: "ccmp-1" period a U
Ligature2: "ccmp-1" period A u
Ligature2: "ccmp-1" period A U
Ligature2: "ccmp-0 subtable" period A U
Ligature2: "ccmp-0 subtable" period A u
Ligature2: "ccmp-0 subtable" period a U
Ligature2: "ccmp-0 subtable" period a u
Ligature2: "ccmp-1 subtable" period A U
Ligature2: "ccmp-1 subtable" period A u
Ligature2: "ccmp-1 subtable" period a U
Ligature2: "ccmp-1 subtable" period a u
EndChar

StartChar: period.ei
Encoding: 264 -1 58
Width: 636
GlyphClass: 3
Flags: W
HStem: 249 440<220.828 437.828> 984 148<82.0127 518.896> 1218 186<268.781 387.201>
VStem: 95 457<374.47 576.853> 246 168<1240.45 1383.89>
LayerCount: 2
Fore
SplineSet
165 330 m 0xf0
 118.333333333 381.333333333 95 430.333333333 95 477 c 0
 95 531 126.666666667 580 190 624 c 0
 251.333333333 667.333333333 301 689 339 689 c 0
 382.333333333 689 432.333333333 658.666666667 489 598 c 0
 531 553.333333333 552 515.666666667 552 485 c 0
 552 464.333333333 544 439 528 409 c 0
 500.666666667 357 469.166666667 317.333333333 433.5 290 c 0
 397.833333333 262.666666667 360.666666667 249 322 249 c 0
 265.333333333 249 213 276 165 330 c 0xf0
44 999 m 0
 44 1013.66666667 54 1039.66666667 74 1077 c 0
 86.6666666667 1100.33333333 108.166666667 1115.33333333 138.5 1122 c 0
 168.833333333 1128.66666667 232.666666667 1132 330 1132 c 0
 434.666666667 1132 498.5 1129.16666667 521.5 1123.5 c 0
 544.5 1117.83333333 556 1101.66666667 556 1075 c 0
 556 1059 552.666666667 1044 546 1030 c 0
 539.333333333 1016 531 1007.66666667 521 1005 c 0
 477 991 375.666666667 984 217 984 c 0
 101.666666667 984 44 989 44 999 c 0
278 1252 m 0
 256.666666667 1273.33333333 246 1295.33333333 246 1318 c 0
 246 1342 258.333333333 1364.33333333 283 1385 c 0
 298.333333333 1397.66666667 316.333333333 1404 337 1404 c 0
 357.666666667 1404 375.666666667 1397.5 391 1384.5 c 0
 406.333333333 1371.5 414 1354.66666667 414 1334 c 0xe8
 414 1310.66666667 404.166666667 1285.5 384.5 1258.5 c 0
 364.833333333 1231.5 346.333333333 1218 329 1218 c 0
 317.666666667 1218 300.666666667 1229.33333333 278 1252 c 0
EndSplineSet
Validated: 1
Ligature2: "ccmp-1" period E I
Ligature2: "ccmp-1" period E i
Ligature2: "ccmp-1" period e I
Ligature2: "ccmp-1" period e i
Ligature2: "ccmp-0 subtable" period e i
Ligature2: "ccmp-0 subtable" period e I
Ligature2: "ccmp-0 subtable" period E i
Ligature2: "ccmp-0 subtable" period E I
Ligature2: "ccmp-1 subtable" period e i
Ligature2: "ccmp-1 subtable" period e I
Ligature2: "ccmp-1 subtable" period E i
Ligature2: "ccmp-1 subtable" period E I
EndChar

StartChar: period.oi
Encoding: 265 -1 59
Width: 617
GlyphClass: 3
Flags: W
HStem: 267 440<204.828 420.926> 915 21G<244 266> 1200 20G<155.667 174 467.333 475> 1293 134<253.852 353.598>
VStem: 79 457<392.47 592.625> 226 131<1295.64 1408.43>
LayerCount: 2
Fore
SplineSet
149 348 m 0xf8
 102.333333333 399.333333333 79 448.333333333 79 495 c 0
 79 549 110.666666667 598 174 642 c 0
 235.333333333 685.333333333 285 707 323 707 c 0
 365.666666667 707 415.333333333 676.666666667 472 616 c 0
 514.666666667 570.666666667 536 532.666666667 536 502 c 0
 536 482 528 457 512 427 c 0
 484.666666667 375 453.166666667 335.333333333 417.5 308 c 0
 381.833333333 280.666666667 344.666666667 267 306 267 c 0
 249.333333333 267 197 294 149 348 c 0xf8
201 979 m 0
 201 997 196.333333333 1020 187 1048 c 0
 177.666666667 1076 166.666666667 1100.33333333 154 1121 c 0
 126 1167 112 1195 112 1205 c 0
 112 1211.66666667 115.833333333 1215.83333333 123.5 1217.5 c 0
 131.166666667 1219.16666667 145.333333333 1220 166 1220 c 0
 182 1220 198.333333333 1215.5 215 1206.5 c 0
 231.666666667 1197.5 244.333333333 1186.33333333 253 1173 c 0
 270.333333333 1144.33333333 285 1130 297 1130 c 0
 311 1130 341.666666667 1152.33333333 389 1197 c 0
 433.666666667 1238.33333333 461.666666667 1259 473 1259 c 1
 475 1258 l 1
 475 1256 l 2
 475 1239.33333333 449 1181.33333333 397 1082 c 0
 361.666666667 1014.66666667 334.666666667 970 316 948 c 0
 297.333333333 926 277 915 255 915 c 0
 233 915 218.5 919.166666667 211.5 927.5 c 0
 204.5 935.833333333 201 953 201 979 c 0
234 1323 m 0
 228.666666667 1337.66666667 226 1350.66666667 226 1362 c 0
 226 1381.33333333 231.833333333 1397 243.5 1409 c 0
 255.166666667 1421 270.333333333 1427 289 1427 c 0
 294.333333333 1427 298.333333333 1426.66666667 301 1426 c 0
 319 1423.33333333 332.833333333 1415.66666667 342.5 1403 c 0
 352.166666667 1390.33333333 357 1376 357 1360 c 0xf4
 357 1344 352.166666667 1329.5 342.5 1316.5 c 0
 332.833333333 1303.5 319 1295.66666667 301 1293 c 1
 288 1293 l 2
 259.333333333 1293 241.333333333 1303 234 1323 c 0
EndSplineSet
Validated: 1
Ligature2: "ccmp-1" period O I
Ligature2: "ccmp-1" period O i
Ligature2: "ccmp-1" period o I
Ligature2: "ccmp-1" period o i
Ligature2: "ccmp-0 subtable" period o i
Ligature2: "ccmp-0 subtable" period o I
Ligature2: "ccmp-0 subtable" period O i
Ligature2: "ccmp-0 subtable" period O I
Ligature2: "ccmp-1 subtable" period o i
Ligature2: "ccmp-1 subtable" period o I
Ligature2: "ccmp-1 subtable" period O i
Ligature2: "ccmp-1 subtable" period O I
EndChar

StartChar: h.yy
Encoding: 266 -1 60
Width: 1218
GlyphClass: 3
Flags: W
HStem: 365 214<225.799 486.714> 853 93<321.206 523.573> 904 20G<967.667 1102> 1195 93<796.206 998.573> 1211 81<338.509 516.054> 1553 81<813.509 991.054>
VStem: 74 176<620.188 699.251> 74 151<541.333 686.828> 203 88<973.781 1167.16> 562 86<986.783 1168.63> 678 88<1315.78 1509.16> 863 239<-46.6304 707> 891 204<-104.344 548.156> 1037 86<1328.78 1510.63>
LayerCount: 2
Fore
SplineSet
971 -153 m 0xa468
 936.333333333 -115 909.666666667 -63 891 3 c 0xa468
 872.333333333 69 863 173.333333333 863 316 c 2
 863 707 l 1
 856.333333333 705 847.833333333 699.333333333 837.5 690 c 0
 827.166666667 680.666666667 815.166666667 669 801.5 655 c 0
 787.833333333 641 777.333333333 631 770 625 c 0
 652.666666667 521.666666667 563.166666667 452.5 501.5 417.5 c 0
 439.833333333 382.5 376.333333333 365 311 365 c 0
 241 365 184 384.5 140 423.5 c 0
 96 462.5 74 511.666666667 74 571 c 0xa570
 74 595 78.6666666667 621.666666667 88 651 c 0
 96.6666666667 675.666666667 109.666666667 694 127 706 c 0
 144.333333333 718 163 724 183 724 c 0
 201.666666667 724 217.5 719.333333333 230.5 710 c 0
 243.5 700.666666667 250 689 250 675 c 0xa660
 250 662.333333333 243.666666667 648.666666667 231 634 c 0
 227 628.666666667 225 624 225 620 c 0
 225 608 235.833333333 598.166666667 257.5 590.5 c 0
 279.166666667 582.833333333 307.333333333 579 342 579 c 0
 404 579 470.833333333 593.166666667 542.5 621.5 c 0
 614.166666667 649.833333333 680 695 740 757 c 0
 847.333333333 868.333333333 934.333333333 924 1001 924 c 2
 1102 924 l 1
 1102 346 l 1
 1102 160 l 2xa570
 1102 6.66666666667 1099.66666667 -96.3333333333 1095 -149 c 0
 1090.33333333 -201.666666667 1079 -228 1061 -228 c 0
 1046.33333333 -228 1016.33333333 -203 971 -153 c 0xa468
809 1217 m 0
 765.666666667 1235.66666667 733 1262.5 711 1297.5 c 0
 689 1332.5 678 1370.33333333 678 1411 c 0
 678 1470.33333333 698.5 1522.33333333 739.5 1567 c 0
 780.5 1611.66666667 835 1634 903 1634 c 0
 967 1634 1019.66666667 1612.33333333 1061 1569 c 0
 1102.33333333 1525.66666667 1123 1475.33333333 1123 1418 c 0
 1123 1362 1102.33333333 1313.66666667 1061 1273 c 0
 1007 1221 954.666666667 1195 904 1195 c 0x9464
 874.666666667 1195 843 1202.33333333 809 1217 c 0
995 1329 m 0
 1006.33333333 1340.33333333 1016.16666667 1355 1024.5 1373 c 0
 1032.83333333 1391 1037 1407 1037 1421 c 0
 1037 1451 1023.16666667 1480.5 995.5 1509.5 c 0
 967.833333333 1538.5 940 1553 912 1553 c 0
 870.666666667 1553 836 1538 808 1508 c 0
 780 1478 766 1444 766 1406 c 0
 766 1371.33333333 778 1342 802 1318 c 0
 822 1298 850.333333333 1288 887 1288 c 0
 931.666666667 1288 967.666666667 1301.66666667 995 1329 c 0
334 875 m 0
 290.666666667 893.666666667 258 920.5 236 955.5 c 0
 214 990.5 203 1028.33333333 203 1069 c 0
 203 1128.33333333 223.5 1180.33333333 264.5 1225 c 0
 305.5 1269.66666667 360 1292 428 1292 c 0
 492 1292 544.666666667 1270.33333333 586 1227 c 0
 627.333333333 1183.66666667 648 1133.33333333 648 1076 c 0
 648 1020 627.333333333 971.666666667 586 931 c 0
 532 879 479.666666667 853 429 853 c 0xcce0
 399.666666667 853 368 860.333333333 334 875 c 0
520 987 m 0
 531.333333333 998.333333333 541.166666667 1013 549.5 1031 c 0
 557.833333333 1049 562 1065 562 1079 c 0
 562 1109 548.166666667 1138.5 520.5 1167.5 c 0
 492.833333333 1196.5 465 1211 437 1211 c 0
 395.666666667 1211 361 1196 333 1166 c 0
 305 1136 291 1102 291 1064 c 0
 291 1029.33333333 303 1000 327 976 c 0
 347 956 375.333333333 946 412 946 c 0
 456.666666667 946 492.666666667 959.666666667 520 987 c 0
EndSplineSet
Validated: 1
Ligature2: "ccmp-1 subtable" period Y quotesingle Y
Ligature2: "ccmp-1 subtable" period Y quotesingle y
Ligature2: "ccmp-1 subtable" period y quotesingle Y
Ligature2: "ccmp-1 subtable" period y quotesingle y
Ligature2: "ccmp-0 subtable" period Y quotesingle Y
Ligature2: "ccmp-0 subtable" period Y quotesingle y
Ligature2: "ccmp-0 subtable" period y quotesingle Y
Ligature2: "ccmp-0 subtable" period y quotesingle y
Ligature2: "ccmp-1" period y quotesingle y
Ligature2: "ccmp-1" period y quotesingle Y
Ligature2: "ccmp-1" period Y quotesingle y
Ligature2: "ccmp-1" period Y quotesingle Y
EndChar

StartChar: h.uy
Encoding: 267 -1 61
Width: 1218
GlyphClass: 3
Flags: W
HStem: 365 214<225.799 486.714> 866 157<392.496 616.387> 904 20G<752.333 767.333 967.667 1102> 1195 93<796.206 998.573> 1553 81<813.509 991.054>
VStem: 74 176<620.188 699.251> 74 151<541.333 686.828> 204 178<1027.43 1144.26> 678 88<1315.78 1509.16> 863 239<-46.6304 707> 891 204<-104.344 548.156> 1037 86<1328.78 1510.63>
LayerCount: 2
Fore
SplineSet
971 -153 m 0xb8a0
 936.333333333 -115 909.666666667 -63 891 3 c 0xb8a0
 872.333333333 69 863 173.333333333 863 316 c 2
 863 707 l 1
 856.333333333 705 847.833333333 699.333333333 837.5 690 c 0
 827.166666667 680.666666667 815.166666667 669 801.5 655 c 0
 787.833333333 641 777.333333333 631 770 625 c 0
 652.666666667 521.666666667 563.166666667 452.5 501.5 417.5 c 0
 439.833333333 382.5 376.333333333 365 311 365 c 0
 241 365 184 384.5 140 423.5 c 0
 96 462.5 74 511.666666667 74 571 c 0xbac0
 74 595 78.6666666667 621.666666667 88 651 c 0
 96.6666666667 675.666666667 109.666666667 694 127 706 c 0
 144.333333333 718 163 724 183 724 c 0
 201.666666667 724 217.5 719.333333333 230.5 710 c 0
 243.5 700.666666667 250 689 250 675 c 0xbc80
 250 662.333333333 243.666666667 648.666666667 231 634 c 0
 227 628.666666667 225 624 225 620 c 0
 225 608 235.833333333 598.166666667 257.5 590.5 c 0
 279.166666667 582.833333333 307.333333333 579 342 579 c 0
 404 579 470.833333333 593.166666667 542.5 621.5 c 0
 614.166666667 649.833333333 680 695 740 757 c 0
 847.333333333 868.333333333 934.333333333 924 1001 924 c 2
 1102 924 l 1
 1102 346 l 1
 1102 160 l 2xbac0
 1102 6.66666666667 1099.66666667 -96.3333333333 1095 -149 c 0
 1090.33333333 -201.666666667 1079 -228 1061 -228 c 0
 1046.33333333 -228 1016.33333333 -203 971 -153 c 0xb8a0
255 922 m 0
 221 960 204 1002 204 1048 c 0
 204 1086.66666667 216.5 1119.16666667 241.5 1145.5 c 0
 266.5 1171.83333333 299.666666667 1185 341 1185 c 0
 359 1185 372 1181.83333333 380 1175.5 c 0
 388 1169.16666667 392 1158.33333333 392 1143 c 0
 392 1134.33333333 390.333333333 1121 387 1103 c 0
 383.666666667 1084.33333333 382 1070.66666667 382 1062 c 0
 382 1045.33333333 387.833333333 1034.66666667 399.5 1030 c 0
 411.166666667 1025.33333333 434 1023 468 1023 c 0
 494 1023 527.166666667 1029.66666667 567.5 1043 c 0
 607.833333333 1056.33333333 643 1072.33333333 673 1091 c 0
 714.333333333 1117 743.666666667 1130 761 1130 c 0
 773.666666667 1130 780 1123 780 1109 c 0
 780 1089.66666667 769.333333333 1060.66666667 748 1022 c 0
 722.666666667 976 678 938.5 614 909.5 c 0
 550 880.5 485 866 419 866 c 0xd980
 343 866 288.333333333 884.666666667 255 922 c 0
809 1217 m 0
 765.666666667 1235.66666667 733 1262.5 711 1297.5 c 0
 689 1332.5 678 1370.33333333 678 1411 c 0
 678 1470.33333333 698.5 1522.33333333 739.5 1567 c 0
 780.5 1611.66666667 835 1634 903 1634 c 0
 967 1634 1019.66666667 1612.33333333 1061 1569 c 0
 1102.33333333 1525.66666667 1123 1475.33333333 1123 1418 c 0x9890
 1123 1362 1102.33333333 1313.66666667 1061 1273 c 0
 1007 1221 954.666666667 1195 904 1195 c 0
 874.666666667 1195 843 1202.33333333 809 1217 c 0
995 1329 m 0
 1006.33333333 1340.33333333 1016.16666667 1355 1024.5 1373 c 0
 1032.83333333 1391 1037 1407 1037 1421 c 0
 1037 1451 1023.16666667 1480.5 995.5 1509.5 c 0
 967.833333333 1538.5 940 1553 912 1553 c 0
 870.666666667 1553 836 1538 808 1508 c 0
 780 1478 766 1444 766 1406 c 0
 766 1371.33333333 778 1342 802 1318 c 0
 822 1298 850.333333333 1288 887 1288 c 0
 931.666666667 1288 967.666666667 1301.66666667 995 1329 c 0
EndSplineSet
Validated: 1
Ligature2: "ccmp-1 subtable" period U quotesingle y
Ligature2: "ccmp-1 subtable" period U quotesingle Y
Ligature2: "ccmp-1 subtable" period u quotesingle y
Ligature2: "ccmp-1 subtable" period u quotesingle Y
Ligature2: "ccmp-0 subtable" period U quotesingle y
Ligature2: "ccmp-0 subtable" period U quotesingle Y
Ligature2: "ccmp-0 subtable" period u quotesingle y
Ligature2: "ccmp-0 subtable" period u quotesingle Y
Ligature2: "ccmp-1" period u quotesingle Y
Ligature2: "ccmp-1" period u quotesingle y
Ligature2: "ccmp-1" period U quotesingle Y
Ligature2: "ccmp-1" period U quotesingle y
EndChar

StartChar: h.ey
Encoding: 268 -1 62
Width: 1220
GlyphClass: 3
Flags: W
HStem: 365 214<227.799 488.714> 904 20G<969.667 1104> 930 150<191.979 769.375> 1195 93<798.206 1000.57> 1553 81<815.509 993.054>
VStem: 76 176<620.188 699.251> 76 151<541.333 686.828> 680 88<1315.78 1509.16> 865 239<-46.6304 707> 893 204<-104.344 548.156> 1039 86<1328.78 1510.63>
LayerCount: 2
Fore
SplineSet
973 -153 m 0xf940
 938.333333333 -115 911.666666667 -63 893 3 c 0xf940
 874.333333333 69 865 173.333333333 865 316 c 2
 865 707 l 1
 858.333333333 705 849.833333333 699.333333333 839.5 690 c 0
 829.166666667 680.666666667 817.166666667 669 803.5 655 c 0
 789.833333333 641 779.333333333 631 772 625 c 0
 654.666666667 521.666666667 565.166666667 452.5 503.5 417.5 c 0
 441.833333333 382.5 378.333333333 365 313 365 c 0
 243 365 186 384.5 142 423.5 c 0
 98 462.5 76 511.666666667 76 571 c 0xfb80
 76 595 80.6666666667 621.666666667 90 651 c 0
 98.6666666667 675.666666667 111.666666667 694 129 706 c 0
 146.333333333 718 165 724 185 724 c 0
 203.666666667 724 219.5 719.333333333 232.5 710 c 0
 245.5 700.666666667 252 689 252 675 c 0xfd
 252 662.333333333 245.666666667 648.666666667 233 634 c 0
 229 628.666666667 227 624 227 620 c 0
 227 608 237.833333333 598.166666667 259.5 590.5 c 0
 281.166666667 582.833333333 309.333333333 579 344 579 c 0
 406 579 472.833333333 593.166666667 544.5 621.5 c 0
 616.166666667 649.833333333 682 695 742 757 c 0
 849.333333333 868.333333333 936.333333333 924 1003 924 c 2
 1104 924 l 1
 1104 346 l 1
 1104 160 l 2xfb80
 1104 6.66666666667 1101.66666667 -96.3333333333 1097 -149 c 0
 1092.33333333 -201.666666667 1081 -228 1063 -228 c 0
 1048.33333333 -228 1018.33333333 -203 973 -153 c 0xf940
160 970 m 0
 160 1000 170.333333333 1022.66666667 191 1038 c 0
 211.666666667 1053.33333333 246.833333333 1064.16666667 296.5 1070.5 c 0
 346.166666667 1076.83333333 419 1080 515 1080 c 2
 788 1080 l 1
 776 1009 l 2
 774 994.333333333 772.166666667 984 770.5 978 c 0
 768.833333333 972 764.166666667 965.166666667 756.5 957.5 c 0
 748.833333333 949.833333333 739.666666667 944.833333333 729 942.5 c 0
 718.333333333 940.166666667 700.333333333 937.666666667 675 935 c 0
 649.666666667 932.333333333 621.5 930.833333333 590.5 930.5 c 0
 559.5 930.166666667 517 930 463 930 c 2
 357 930 l 2
 309 930 273.666666667 930.333333333 251 931 c 0
 228.333333333 931.666666667 209.166666667 933.5 193.5 936.5 c 0
 177.833333333 939.5 168.333333333 943.333333333 165 948 c 0
 161.666666667 952.666666667 160 960 160 970 c 0
811 1217 m 0
 767.666666667 1235.66666667 735 1262.5 713 1297.5 c 0
 691 1332.5 680 1370.33333333 680 1411 c 0
 680 1470.33333333 700.5 1522.33333333 741.5 1567 c 0
 782.5 1611.66666667 837 1634 905 1634 c 0
 969 1634 1021.66666667 1612.33333333 1063 1569 c 0
 1104.33333333 1525.66666667 1125 1475.33333333 1125 1418 c 0xf920
 1125 1362 1104.33333333 1313.66666667 1063 1273 c 0
 1009 1221 956.666666667 1195 906 1195 c 0
 876.666666667 1195 845 1202.33333333 811 1217 c 0
997 1329 m 0
 1008.33333333 1340.33333333 1018.16666667 1355 1026.5 1373 c 0
 1034.83333333 1391 1039 1407 1039 1421 c 0
 1039 1451 1025.16666667 1480.5 997.5 1509.5 c 0
 969.833333333 1538.5 942 1553 914 1553 c 0
 872.666666667 1553 838 1538 810 1508 c 0
 782 1478 768 1444 768 1406 c 0
 768 1371.33333333 780 1342 804 1318 c 0
 824 1298 852.333333333 1288 889 1288 c 0
 933.666666667 1288 969.666666667 1301.66666667 997 1329 c 0
EndSplineSet
Validated: 1
Ligature2: "ccmp-1 subtable" period E quotesingle Y
Ligature2: "ccmp-1 subtable" period E quotesingle y
Ligature2: "ccmp-1 subtable" period e quotesingle y
Ligature2: "ccmp-1 subtable" period e quotesingle Y
Ligature2: "ccmp-0 subtable" period E quotesingle Y
Ligature2: "ccmp-0 subtable" period E quotesingle y
Ligature2: "ccmp-0 subtable" period e quotesingle y
Ligature2: "ccmp-0 subtable" period e quotesingle Y
Ligature2: "ccmp-1" period e quotesingle Y
Ligature2: "ccmp-1" period e quotesingle y
Ligature2: "ccmp-1" period E quotesingle y
Ligature2: "ccmp-1" period E quotesingle Y
EndChar

StartChar: h.iy
Encoding: 269 -1 63
Width: 1219
GlyphClass: 3
Flags: W
HStem: 365 214<226.799 487.714> 853 324<375.9 559.713> 904 20G<968.667 1103> 1195 93<797.206 999.573> 1553 81<814.509 992.054>
VStem: 75 176<620.188 699.251> 75 151<541.333 686.828> 310 327<929.037 1128.75> 679 88<1315.78 1509.16> 864 239<-46.6304 707> 892 204<-104.344 548.156> 1038 86<1328.78 1510.63>
LayerCount: 2
Fore
SplineSet
374 899 m 0xd980
 331.333333333 931.666666667 310 972.666666667 310 1022 c 0
 310 1063.33333333 325.333333333 1099.5 356 1130.5 c 0
 386.666666667 1161.5 426.333333333 1177 475 1177 c 0
 523.666666667 1177 562.833333333 1163.5 592.5 1136.5 c 0
 622.166666667 1109.5 637 1076.66666667 637 1038 c 0
 637 990 615.666666667 947 573 909 c 0
 531.666666667 871.666666667 498 853 472 853 c 0
 447.333333333 853 414.666666667 868.333333333 374 899 c 0xd980
972 -153 m 0
 937.333333333 -115 910.666666667 -63 892 3 c 0xb9a0
 873.333333333 69 864 173.333333333 864 316 c 2
 864 707 l 1
 857.333333333 705 848.833333333 699.333333333 838.5 690 c 0
 828.166666667 680.666666667 816.166666667 669 802.5 655 c 0
 788.833333333 641 778.333333333 631 771 625 c 0
 653.666666667 521.666666667 564.166666667 452.5 502.5 417.5 c 0
 440.833333333 382.5 377.333333333 365 312 365 c 0
 242 365 185 384.5 141 423.5 c 0
 97 462.5 75 511.666666667 75 571 c 0xbbc0
 75 595 79.6666666667 621.666666667 89 651 c 0
 97.6666666667 675.666666667 110.666666667 694 128 706 c 0
 145.333333333 718 164 724 184 724 c 0
 202.666666667 724 218.5 719.333333333 231.5 710 c 0
 244.5 700.666666667 251 689 251 675 c 0xbd80
 251 662.333333333 244.666666667 648.666666667 232 634 c 0
 228 628.666666667 226 624 226 620 c 0
 226 608 236.833333333 598.166666667 258.5 590.5 c 0
 280.166666667 582.833333333 308.333333333 579 343 579 c 0
 405 579 471.833333333 593.166666667 543.5 621.5 c 0
 615.166666667 649.833333333 681 695 741 757 c 0
 848.333333333 868.333333333 935.333333333 924 1002 924 c 2
 1103 924 l 1
 1103 346 l 1
 1103 160 l 2xbbc0
 1103 6.66666666667 1100.66666667 -96.3333333333 1096 -149 c 0xb9a0
 1091.33333333 -201.666666667 1080 -228 1062 -228 c 0
 1047.33333333 -228 1017.33333333 -203 972 -153 c 0
810 1217 m 0
 766.666666667 1235.66666667 734 1262.5 712 1297.5 c 0
 690 1332.5 679 1370.33333333 679 1411 c 0
 679 1470.33333333 699.5 1522.33333333 740.5 1567 c 0
 781.5 1611.66666667 836 1634 904 1634 c 0
 968 1634 1020.66666667 1612.33333333 1062 1569 c 0
 1103.33333333 1525.66666667 1124 1475.33333333 1124 1418 c 0x9990
 1124 1362 1103.33333333 1313.66666667 1062 1273 c 0
 1008 1221 955.666666667 1195 905 1195 c 0
 875.666666667 1195 844 1202.33333333 810 1217 c 0
996 1329 m 0
 1007.33333333 1340.33333333 1017.16666667 1355 1025.5 1373 c 0
 1033.83333333 1391 1038 1407 1038 1421 c 0
 1038 1451 1024.16666667 1480.5 996.5 1509.5 c 0
 968.833333333 1538.5 941 1553 913 1553 c 0
 871.666666667 1553 837 1538 809 1508 c 0
 781 1478 767 1444 767 1406 c 0
 767 1371.33333333 779 1342 803 1318 c 0
 823 1298 851.333333333 1288 888 1288 c 0
 932.666666667 1288 968.666666667 1301.66666667 996 1329 c 0
EndSplineSet
Validated: 1
Ligature2: "ccmp-1 subtable" period i quotesingle y
Ligature2: "ccmp-1 subtable" period i quotesingle Y
Ligature2: "ccmp-1 subtable" period I quotesingle y
Ligature2: "ccmp-1 subtable" period I quotesingle Y
Ligature2: "ccmp-0 subtable" period i quotesingle y
Ligature2: "ccmp-0 subtable" period i quotesingle Y
Ligature2: "ccmp-0 subtable" period I quotesingle y
Ligature2: "ccmp-0 subtable" period I quotesingle Y
Ligature2: "ccmp-1" period I quotesingle Y
Ligature2: "ccmp-1" period I quotesingle y
Ligature2: "ccmp-1" period i quotesingle Y
Ligature2: "ccmp-1" period i quotesingle y
EndChar

StartChar: h.oy
Encoding: 270 -1 64
Width: 1218
GlyphClass: 3
Flags: W
HStem: 365 214<225.799 486.714> 924 197G<279.667 335.667 661.667 673.667 967.667 1102> 1195 93<796.206 998.573> 1553 81<813.509 991.054>
VStem: 74 176<620.188 699.251> 74 151<541.333 686.828> 678 88<1315.78 1509.16> 863 239<-46.6304 707> 891 204<-104.344 548.156> 1037 86<1328.78 1510.63>
LayerCount: 2
Fore
SplineSet
354 848 m 0xf2
 354 882.666666667 336 938 300 1014 c 0
 268 1080 252 1117.66666667 252 1127 c 0
 252 1133 254.5 1136.83333333 259.5 1138.5 c 0
 264.5 1140.16666667 273.333333333 1141 286 1141 c 2
 313 1141 l 2
 358.333333333 1141 392.333333333 1118.66666667 415 1074 c 2
 451 1004 l 1
 548 1100 l 2
 611.333333333 1161.33333333 652.333333333 1192 671 1192 c 0
 676.333333333 1192 679 1189 679 1183 c 0
 679 1169.66666667 666.333333333 1144.33333333 641 1107 c 0
 599.666666667 1045 563 978 531 906 c 0
 511.666666667 862.666666667 493.833333333 832.833333333 477.5 816.5 c 0
 461.166666667 800.166666667 441 792 417 792 c 0
 394.333333333 792 378.166666667 796.333333333 368.5 805 c 0
 358.833333333 813.666666667 354 828 354 848 c 0xf2
971 -153 m 0
 936.333333333 -115 909.666666667 -63 891 3 c 0xf280
 872.333333333 69 863 173.333333333 863 316 c 2
 863 707 l 1
 856.333333333 705 847.833333333 699.333333333 837.5 690 c 0
 827.166666667 680.666666667 815.166666667 669 801.5 655 c 0
 787.833333333 641 777.333333333 631 770 625 c 0
 652.666666667 521.666666667 563.166666667 452.5 501.5 417.5 c 0
 439.833333333 382.5 376.333333333 365 311 365 c 0
 241 365 184 384.5 140 423.5 c 0
 96 462.5 74 511.666666667 74 571 c 0xf7
 74 595 78.6666666667 621.666666667 88 651 c 0
 96.6666666667 675.666666667 109.666666667 694 127 706 c 0
 144.333333333 718 163 724 183 724 c 0
 201.666666667 724 217.5 719.333333333 230.5 710 c 0
 243.5 700.666666667 250 689 250 675 c 0xfa
 250 662.333333333 243.666666667 648.666666667 231 634 c 0
 227 628.666666667 225 624 225 620 c 0
 225 608 235.833333333 598.166666667 257.5 590.5 c 0
 279.166666667 582.833333333 307.333333333 579 342 579 c 0
 404 579 470.833333333 593.166666667 542.5 621.5 c 0
 614.166666667 649.833333333 680 695 740 757 c 0
 847.333333333 868.333333333 934.333333333 924 1001 924 c 2
 1102 924 l 1
 1102 346 l 1
 1102 160 l 2xf7
 1102 6.66666666667 1099.66666667 -96.3333333333 1095 -149 c 0xf280
 1090.33333333 -201.666666667 1079 -228 1061 -228 c 0
 1046.33333333 -228 1016.33333333 -203 971 -153 c 0
809 1217 m 0
 765.666666667 1235.66666667 733 1262.5 711 1297.5 c 0
 689 1332.5 678 1370.33333333 678 1411 c 0
 678 1470.33333333 698.5 1522.33333333 739.5 1567 c 0
 780.5 1611.66666667 835 1634 903 1634 c 0
 967 1634 1019.66666667 1612.33333333 1061 1569 c 0
 1102.33333333 1525.66666667 1123 1475.33333333 1123 1418 c 0xf240
 1123 1362 1102.33333333 1313.66666667 1061 1273 c 0
 1007 1221 954.666666667 1195 904 1195 c 0
 874.666666667 1195 843 1202.33333333 809 1217 c 0
995 1329 m 0
 1006.33333333 1340.33333333 1016.16666667 1355 1024.5 1373 c 0
 1032.83333333 1391 1037 1407 1037 1421 c 0
 1037 1451 1023.16666667 1480.5 995.5 1509.5 c 0
 967.833333333 1538.5 940 1553 912 1553 c 0
 870.666666667 1553 836 1538 808 1508 c 0
 780 1478 766 1444 766 1406 c 0
 766 1371.33333333 778 1342 802 1318 c 0
 822 1298 850.333333333 1288 887 1288 c 0
 931.666666667 1288 967.666666667 1301.66666667 995 1329 c 0
EndSplineSet
Validated: 1
Ligature2: "ccmp-1 subtable" period O quotesingle Y
Ligature2: "ccmp-1 subtable" period O quotesingle y
Ligature2: "ccmp-1 subtable" period o quotesingle Y
Ligature2: "ccmp-1 subtable" period o quotesingle y
Ligature2: "ccmp-0 subtable" period O quotesingle Y
Ligature2: "ccmp-0 subtable" period O quotesingle y
Ligature2: "ccmp-0 subtable" period o quotesingle Y
Ligature2: "ccmp-0 subtable" period o quotesingle y
Ligature2: "ccmp-1" period o quotesingle y
Ligature2: "ccmp-1" period o quotesingle Y
Ligature2: "ccmp-1" period O quotesingle y
Ligature2: "ccmp-1" period O quotesingle Y
EndChar

StartChar: h.ay
Encoding: 271 -1 65
Width: 1218
GlyphClass: 3
Flags: W
HStem: 365 214<225.799 486.714> 924 381G<427.333 527 967.667 1102> 1195 93<796.206 998.573> 1553 81<813.509 991.054>
VStem: 74 176<620.188 699.251> 74 151<541.333 686.828> 367 160<873.415 1321.77> 678 88<1315.78 1509.16> 863 239<-46.6304 707> 891 204<-104.344 548.156> 1037 86<1328.78 1510.63>
LayerCount: 2
Fore
SplineSet
432 843 m 0x93
 405.333333333 879 387.833333333 915.166666667 379.5 951.5 c 0
 371.166666667 987.833333333 367 1046.66666667 367 1128 c 0
 367 1226 370.5 1283.33333333 377.5 1300 c 0
 384.5 1316.66666667 407.666666667 1325 447 1325 c 2
 527 1325 l 1
 527 1040 l 2
 527 988.666666667 526.333333333 941 525 897 c 0
 523.666666667 853 521.833333333 818.333333333 519.5 793 c 0
 517.166666667 767.666666667 514.666666667 755 512 755 c 0
 502.666666667 755 476 784.333333333 432 843 c 0x93
971 -153 m 0
 936.333333333 -115 909.666666667 -63 891 3 c 0xd340
 872.333333333 69 863 173.333333333 863 316 c 2
 863 707 l 1
 856.333333333 705 847.833333333 699.333333333 837.5 690 c 0
 827.166666667 680.666666667 815.166666667 669 801.5 655 c 0
 787.833333333 641 777.333333333 631 770 625 c 0
 652.666666667 521.666666667 563.166666667 452.5 501.5 417.5 c 0
 439.833333333 382.5 376.333333333 365 311 365 c 0
 241 365 184 384.5 140 423.5 c 0
 96 462.5 74 511.666666667 74 571 c 0xd780
 74 595 78.6666666667 621.666666667 88 651 c 0
 96.6666666667 675.666666667 109.666666667 694 127 706 c 0
 144.333333333 718 163 724 183 724 c 0
 201.666666667 724 217.5 719.333333333 230.5 710 c 0
 243.5 700.666666667 250 689 250 675 c 0xdb
 250 662.333333333 243.666666667 648.666666667 231 634 c 0
 227 628.666666667 225 624 225 620 c 0
 225 608 235.833333333 598.166666667 257.5 590.5 c 0
 279.166666667 582.833333333 307.333333333 579 342 579 c 0
 404 579 470.833333333 593.166666667 542.5 621.5 c 0
 614.166666667 649.833333333 680 695 740 757 c 0
 847.333333333 868.333333333 934.333333333 924 1001 924 c 2
 1102 924 l 1
 1102 346 l 1
 1102 160 l 2xd780
 1102 6.66666666667 1099.66666667 -96.3333333333 1095 -149 c 0xd340
 1090.33333333 -201.666666667 1079 -228 1061 -228 c 0
 1046.33333333 -228 1016.33333333 -203 971 -153 c 0
809 1217 m 0
 765.666666667 1235.66666667 733 1262.5 711 1297.5 c 0
 689 1332.5 678 1370.33333333 678 1411 c 0
 678 1470.33333333 698.5 1522.33333333 739.5 1567 c 0
 780.5 1611.66666667 835 1634 903 1634 c 0
 967 1634 1019.66666667 1612.33333333 1061 1569 c 0
 1102.33333333 1525.66666667 1123 1475.33333333 1123 1418 c 0
 1123 1362 1102.33333333 1313.66666667 1061 1273 c 0
 1007 1221 954.666666667 1195 904 1195 c 0xb320
 874.666666667 1195 843 1202.33333333 809 1217 c 0
995 1329 m 0
 1006.33333333 1340.33333333 1016.16666667 1355 1024.5 1373 c 0
 1032.83333333 1391 1037 1407 1037 1421 c 0
 1037 1451 1023.16666667 1480.5 995.5 1509.5 c 0
 967.833333333 1538.5 940 1553 912 1553 c 0
 870.666666667 1553 836 1538 808 1508 c 0
 780 1478 766 1444 766 1406 c 0
 766 1371.33333333 778 1342 802 1318 c 0
 822 1298 850.333333333 1288 887 1288 c 0
 931.666666667 1288 967.666666667 1301.66666667 995 1329 c 0
EndSplineSet
Validated: 1
Ligature2: "ccmp-1 subtable" period A quotesingle Y
Ligature2: "ccmp-1 subtable" period A quotesingle y
Ligature2: "ccmp-1 subtable" period a quotesingle y
Ligature2: "ccmp-1 subtable" period a quotesingle Y
Ligature2: "ccmp-0 subtable" period A quotesingle Y
Ligature2: "ccmp-0 subtable" period A quotesingle y
Ligature2: "ccmp-0 subtable" period a quotesingle y
Ligature2: "ccmp-0 subtable" period a quotesingle Y
Ligature2: "ccmp-1" period a quotesingle Y
Ligature2: "ccmp-1" period a quotesingle y
Ligature2: "ccmp-1" period A quotesingle y
Ligature2: "ccmp-1" period A quotesingle Y
EndChar

StartChar: h.uu
Encoding: 272 -1 66
Width: 1220
GlyphClass: 3
Flags: W
HStem: 365 214<226.799 487.714> 866 157<393.496 617.387> 924 186G<753.333 768.333 968.667 1103> 1316 157<734.237 960.046>
VStem: 75 176<620.188 699.251> 75 151<541.333 686.828> 205 178<1027.43 1144.26> 547 178<1478.34 1594.26> 864 239<-46.6304 707> 892 204<-104.344 548.156>
LayerCount: 2
Fore
SplineSet
599 1372 m 0x91
 564.333333333 1409.33333333 547 1451.33333333 547 1498 c 0
 547 1536.66666667 559.5 1569.16666667 584.5 1595.5 c 0
 609.5 1621.83333333 643 1635 685 1635 c 0
 703 1635 715.833333333 1631.83333333 723.5 1625.5 c 0
 731.166666667 1619.16666667 735 1608.33333333 735 1593 c 0
 735 1587.66666667 733.666666667 1574.33333333 731 1553 c 0
 727 1536.33333333 725 1522.66666667 725 1512 c 0
 725 1495.33333333 730.833333333 1484.66666667 742.5 1480 c 0
 754.166666667 1475.33333333 777 1473 811 1473 c 0
 837 1473 870.333333333 1479.66666667 911 1493 c 0
 951.666666667 1506.33333333 987 1522.33333333 1017 1541 c 0
 1057 1567 1086.33333333 1580 1105 1580 c 0
 1117 1580 1123 1573 1123 1559 c 0
 1123 1539.66666667 1112.33333333 1510.66666667 1091 1472 c 0
 1065.66666667 1426 1021.16666667 1388.5 957.5 1359.5 c 0
 893.833333333 1330.5 829 1316 763 1316 c 0
 686.333333333 1316 631.666666667 1334.66666667 599 1372 c 0x91
256 922 m 0
 222 960 205 1002 205 1048 c 0
 205 1086.66666667 217.5 1119.16666667 242.5 1145.5 c 0
 267.5 1171.83333333 300.666666667 1185 342 1185 c 0
 360 1185 373 1181.83333333 381 1175.5 c 0
 389 1169.16666667 393 1158.33333333 393 1143 c 0
 393 1134.33333333 391.333333333 1121 388 1103 c 0
 384.666666667 1084.33333333 383 1070.66666667 383 1062 c 0
 383 1045.33333333 388.833333333 1034.66666667 400.5 1030 c 0
 412.166666667 1025.33333333 435 1023 469 1023 c 0
 495 1023 528.166666667 1029.66666667 568.5 1043 c 0
 608.833333333 1056.33333333 644 1072.33333333 674 1091 c 0
 715.333333333 1117 744.666666667 1130 762 1130 c 0
 774.666666667 1130 781 1123 781 1109 c 0
 781 1089.66666667 770.333333333 1060.66666667 749 1022 c 0
 723.666666667 976 679 938.5 615 909.5 c 0
 551 880.5 486 866 420 866 c 0xd3
 344 866 289.333333333 884.666666667 256 922 c 0
972 -153 m 0
 937.333333333 -115 910.666666667 -63 892 3 c 0xb140
 873.333333333 69 864 173.333333333 864 316 c 2
 864 707 l 1
 857.333333333 705 848.833333333 699.333333333 838.5 690 c 0
 828.166666667 680.666666667 816.166666667 669 802.5 655 c 0
 788.833333333 641 778.333333333 631 771 625 c 0
 653.666666667 521.666666667 564.166666667 452.5 502.5 417.5 c 0
 440.833333333 382.5 377.333333333 365 312 365 c 0
 242 365 185 384.5 141 423.5 c 0
 97 462.5 75 511.666666667 75 571 c 0xb580
 75 595 79.6666666667 621.666666667 89 651 c 0
 97.6666666667 675.666666667 110.666666667 694 128 706 c 0
 145.333333333 718 164 724 184 724 c 0
 202.666666667 724 218.5 719.333333333 231.5 710 c 0
 244.5 700.666666667 251 689 251 675 c 0xb9
 251 662.333333333 244.666666667 648.666666667 232 634 c 0
 228 628.666666667 226 624 226 620 c 0
 226 608 236.833333333 598.166666667 258.5 590.5 c 0
 280.166666667 582.833333333 308.333333333 579 343 579 c 0
 405 579 471.833333333 593.166666667 543.5 621.5 c 0
 615.166666667 649.833333333 681 695 741 757 c 0
 848.333333333 868.333333333 935.333333333 924 1002 924 c 2
 1103 924 l 1
 1103 346 l 1
 1103 160 l 2xb580
 1103 6.66666666667 1100.66666667 -96.3333333333 1096 -149 c 0xb140
 1091.33333333 -201.666666667 1080 -228 1062 -228 c 0
 1047.33333333 -228 1017.33333333 -203 972 -153 c 0
EndSplineSet
Validated: 1
Ligature2: "ccmp-1 subtable" period U quotesingle u
Ligature2: "ccmp-1 subtable" period U quotesingle U
Ligature2: "ccmp-1 subtable" period u quotesingle U
Ligature2: "ccmp-1 subtable" period u quotesingle u
Ligature2: "ccmp-0 subtable" period U quotesingle u
Ligature2: "ccmp-0 subtable" period U quotesingle U
Ligature2: "ccmp-0 subtable" period u quotesingle U
Ligature2: "ccmp-0 subtable" period u quotesingle u
Ligature2: "ccmp-1" period u quotesingle u
Ligature2: "ccmp-1" period u quotesingle U
Ligature2: "ccmp-1" period U quotesingle U
Ligature2: "ccmp-1" period U quotesingle u
EndChar

StartChar: h.eu
Encoding: 273 -1 67
Width: 1221
GlyphClass: 3
Flags: W
HStem: 365 214<227.799 488.714> 904 20G<969.667 1104> 930 150<191.979 769.375> 1316 157<735.237 961.046>
VStem: 76 176<620.188 699.251> 76 151<541.333 686.828> 548 178<1478.34 1594.26> 865 239<-46.6304 707> 893 204<-104.344 548.156>
LayerCount: 2
Fore
SplineSet
600 1372 m 0xf2
 565.333333333 1409.33333333 548 1451.33333333 548 1498 c 0
 548 1536.66666667 560.5 1569.16666667 585.5 1595.5 c 0
 610.5 1621.83333333 644 1635 686 1635 c 0
 704 1635 716.833333333 1631.83333333 724.5 1625.5 c 0
 732.166666667 1619.16666667 736 1608.33333333 736 1593 c 0
 736 1587.66666667 734.666666667 1574.33333333 732 1553 c 0
 728 1536.33333333 726 1522.66666667 726 1512 c 0
 726 1495.33333333 731.833333333 1484.66666667 743.5 1480 c 0
 755.166666667 1475.33333333 778 1473 812 1473 c 0
 838 1473 871.333333333 1479.66666667 912 1493 c 0
 952.666666667 1506.33333333 988 1522.33333333 1018 1541 c 0
 1058 1567 1087.33333333 1580 1106 1580 c 0
 1118 1580 1124 1573 1124 1559 c 0
 1124 1539.66666667 1113.33333333 1510.66666667 1092 1472 c 0
 1066.66666667 1426 1022.16666667 1388.5 958.5 1359.5 c 0
 894.833333333 1330.5 830 1316 764 1316 c 0
 687.333333333 1316 632.666666667 1334.66666667 600 1372 c 0xf2
160 970 m 0
 160 1000 170.333333333 1022.66666667 191 1038 c 0
 211.666666667 1053.33333333 246.833333333 1064.16666667 296.5 1070.5 c 0
 346.166666667 1076.83333333 419 1080 515 1080 c 2
 788 1080 l 1
 776 1009 l 2
 774 994.333333333 772.166666667 984 770.5 978 c 0
 768.833333333 972 764.166666667 965.166666667 756.5 957.5 c 0
 748.833333333 949.833333333 739.666666667 944.833333333 729 942.5 c 0
 718.333333333 940.166666667 700.333333333 937.666666667 675 935 c 0
 649.666666667 932.333333333 621.5 930.833333333 590.5 930.5 c 0
 559.5 930.166666667 517 930 463 930 c 2
 357 930 l 2
 309 930 273.666666667 930.333333333 251 931 c 0
 228.333333333 931.666666667 209.166666667 933.5 193.5 936.5 c 0
 177.833333333 939.5 168.333333333 943.333333333 165 948 c 0
 161.666666667 952.666666667 160 960 160 970 c 0
973 -153 m 0
 938.333333333 -115 911.666666667 -63 893 3 c 0xf280
 874.333333333 69 865 173.333333333 865 316 c 2
 865 707 l 1
 858.333333333 705 849.833333333 699.333333333 839.5 690 c 0
 829.166666667 680.666666667 817.166666667 669 803.5 655 c 0
 789.833333333 641 779.333333333 631 772 625 c 0
 654.666666667 521.666666667 565.166666667 452.5 503.5 417.5 c 0
 441.833333333 382.5 378.333333333 365 313 365 c 0
 243 365 186 384.5 142 423.5 c 0
 98 462.5 76 511.666666667 76 571 c 0xf7
 76 595 80.6666666667 621.666666667 90 651 c 0
 98.6666666667 675.666666667 111.666666667 694 129 706 c 0
 146.333333333 718 165 724 185 724 c 0
 203.666666667 724 219.5 719.333333333 232.5 710 c 0
 245.5 700.666666667 252 689 252 675 c 0xfa
 252 662.333333333 245.666666667 648.666666667 233 634 c 0
 229 628.666666667 227 624 227 620 c 0
 227 608 237.833333333 598.166666667 259.5 590.5 c 0
 281.166666667 582.833333333 309.333333333 579 344 579 c 0
 406 579 472.833333333 593.166666667 544.5 621.5 c 0
 616.166666667 649.833333333 682 695 742 757 c 0
 849.333333333 868.333333333 936.333333333 924 1003 924 c 2
 1104 924 l 1
 1104 346 l 1
 1104 160 l 2xf7
 1104 6.66666666667 1101.66666667 -96.3333333333 1097 -149 c 0xf280
 1092.33333333 -201.666666667 1081 -228 1063 -228 c 0
 1048.33333333 -228 1018.33333333 -203 973 -153 c 0
EndSplineSet
Validated: 1
Ligature2: "ccmp-1 subtable" period E quotesingle U
Ligature2: "ccmp-1 subtable" period E quotesingle u
Ligature2: "ccmp-1 subtable" period e quotesingle u
Ligature2: "ccmp-1 subtable" period e quotesingle U
Ligature2: "ccmp-0 subtable" period E quotesingle U
Ligature2: "ccmp-0 subtable" period E quotesingle u
Ligature2: "ccmp-0 subtable" period e quotesingle u
Ligature2: "ccmp-0 subtable" period e quotesingle U
Ligature2: "ccmp-1" period e quotesingle U
Ligature2: "ccmp-1" period e quotesingle u
Ligature2: "ccmp-1" period E quotesingle u
Ligature2: "ccmp-1" period E quotesingle U
EndChar

StartChar: h.iu
Encoding: 274 -1 68
Width: 1221
GlyphClass: 3
Flags: W
HStem: 365 214<226.799 487.714> 853 324<375.9 559.713> 904 20G<968.667 1103> 1316 157<736.26 961.641>
VStem: 75 176<620.188 699.251> 75 151<541.333 686.828> 310 327<929.037 1128.75> 548 178<1477.43 1594.26> 864 239<-46.6304 707> 892 204<-104.344 548.156>
LayerCount: 2
Fore
SplineSet
598 1372 m 0x91
 564.666666667 1410 548 1452 548 1498 c 0
 548 1536.66666667 560.333333333 1569.16666667 585 1595.5 c 0
 609.666666667 1621.83333333 642.666666667 1635 684 1635 c 0
 702 1635 715.166666667 1631.83333333 723.5 1625.5 c 0
 731.833333333 1619.16666667 736 1608.33333333 736 1593 c 0
 736 1582.33333333 734 1569 730 1553 c 0
 727.333333333 1530.33333333 726 1516.66666667 726 1512 c 0
 726 1495.33333333 731.833333333 1484.66666667 743.5 1480 c 0
 755.166666667 1475.33333333 778 1473 812 1473 c 0
 838 1473 871 1479.66666667 911 1493 c 0
 951 1506.33333333 986 1522.33333333 1016 1541 c 0
 1058 1567 1087.33333333 1580 1104 1580 c 0
 1117.33333333 1580 1124 1573 1124 1559 c 0
 1124 1539.66666667 1113.33333333 1510.66666667 1092 1472 c 0
 1066.66666667 1425.33333333 1022 1387.66666667 958 1359 c 0
 894 1330.33333333 828.666666667 1316 762 1316 c 0
 687.333333333 1316 632.666666667 1334.66666667 598 1372 c 0x91
972 -153 m 0
 937.333333333 -115 910.666666667 -63 892 3 c 0xb040
 873.333333333 69 864 173.333333333 864 316 c 2
 864 707 l 1
 857.333333333 705 848.833333333 699.333333333 838.5 690 c 0
 828.166666667 680.666666667 816.166666667 669 802.5 655 c 0
 788.833333333 641 778.333333333 631 771 625 c 0
 653.666666667 521.666666667 564.166666667 452.5 502.5 417.5 c 0
 440.833333333 382.5 377.333333333 365 312 365 c 0
 242 365 185 384.5 141 423.5 c 0
 97 462.5 75 511.666666667 75 571 c 0xb480
 75 595 79.6666666667 621.666666667 89 651 c 0
 97.6666666667 675.666666667 110.666666667 694 128 706 c 0
 145.333333333 718 164 724 184 724 c 0
 202.666666667 724 218.5 719.333333333 231.5 710 c 0
 244.5 700.666666667 251 689 251 675 c 0xb8
 251 662.333333333 244.666666667 648.666666667 232 634 c 0
 228 628.666666667 226 624 226 620 c 0
 226 608 236.833333333 598.166666667 258.5 590.5 c 0
 280.166666667 582.833333333 308.333333333 579 343 579 c 0
 405 579 471.833333333 593.166666667 543.5 621.5 c 0
 615.166666667 649.833333333 681 695 741 757 c 0
 848.333333333 868.333333333 935.333333333 924 1002 924 c 2
 1103 924 l 1
 1103 346 l 1
 1103 160 l 2xb480
 1103 6.66666666667 1100.66666667 -96.3333333333 1096 -149 c 0xb040
 1091.33333333 -201.666666667 1080 -228 1062 -228 c 0
 1047.33333333 -228 1017.33333333 -203 972 -153 c 0
374 899 m 0
 331.333333333 931.666666667 310 972.666666667 310 1022 c 0
 310 1063.33333333 325.333333333 1099.5 356 1130.5 c 0
 386.666666667 1161.5 426.333333333 1177 475 1177 c 0
 523.666666667 1177 562.833333333 1163.5 592.5 1136.5 c 0
 622.166666667 1109.5 637 1076.66666667 637 1038 c 0
 637 990 615.666666667 947 573 909 c 0
 531.666666667 871.666666667 498 853 472 853 c 0xd2
 447.333333333 853 414.666666667 868.333333333 374 899 c 0
EndSplineSet
Validated: 1
Ligature2: "ccmp-1 subtable" period I quotesingle U
Ligature2: "ccmp-1 subtable" period I quotesingle u
Ligature2: "ccmp-1 subtable" period i quotesingle U
Ligature2: "ccmp-1 subtable" period i quotesingle u
Ligature2: "ccmp-0 subtable" period I quotesingle U
Ligature2: "ccmp-0 subtable" period I quotesingle u
Ligature2: "ccmp-0 subtable" period i quotesingle U
Ligature2: "ccmp-0 subtable" period i quotesingle u
Ligature2: "ccmp-1" period i quotesingle u
Ligature2: "ccmp-1" period i quotesingle U
Ligature2: "ccmp-1" period I quotesingle u
Ligature2: "ccmp-1" period I quotesingle U
EndChar

StartChar: h.ou
Encoding: 275 -1 69
Width: 1220
GlyphClass: 3
Flags: W
HStem: 365 214<226.799 487.714> 904 20G<280.667 336.667 662.667 674.667 968.667 1103> 1316 157<734.237 960.046>
VStem: 75 176<620.188 699.251> 75 151<541.333 686.828> 547 178<1478.34 1594.26> 864 239<-46.6304 707> 892 204<-104.344 548.156>
LayerCount: 2
Fore
SplineSet
599 1372 m 0xe4
 564.333333333 1409.33333333 547 1451.33333333 547 1498 c 0
 547 1536.66666667 559.5 1569.16666667 584.5 1595.5 c 0
 609.5 1621.83333333 643 1635 685 1635 c 0
 703 1635 715.833333333 1631.83333333 723.5 1625.5 c 0
 731.166666667 1619.16666667 735 1608.33333333 735 1593 c 0
 735 1587.66666667 733.666666667 1574.33333333 731 1553 c 0
 727 1536.33333333 725 1522.66666667 725 1512 c 0
 725 1495.33333333 730.833333333 1484.66666667 742.5 1480 c 0
 754.166666667 1475.33333333 777 1473 811 1473 c 0
 837 1473 870.333333333 1479.66666667 911 1493 c 0
 951.666666667 1506.33333333 987 1522.33333333 1017 1541 c 0
 1057 1567 1086.33333333 1580 1105 1580 c 0
 1117 1580 1123 1573 1123 1559 c 0
 1123 1539.66666667 1112.33333333 1510.66666667 1091 1472 c 0
 1065.66666667 1426 1021.16666667 1388.5 957.5 1359.5 c 0
 893.833333333 1330.5 829 1316 763 1316 c 0
 686.333333333 1316 631.666666667 1334.66666667 599 1372 c 0xe4
972 -153 m 0
 937.333333333 -115 910.666666667 -63 892 3 c 0xe5
 873.333333333 69 864 173.333333333 864 316 c 2
 864 707 l 1
 857.333333333 705 848.833333333 699.333333333 838.5 690 c 0
 828.166666667 680.666666667 816.166666667 669 802.5 655 c 0
 788.833333333 641 778.333333333 631 771 625 c 0
 653.666666667 521.666666667 564.166666667 452.5 502.5 417.5 c 0
 440.833333333 382.5 377.333333333 365 312 365 c 0
 242 365 185 384.5 141 423.5 c 0
 97 462.5 75 511.666666667 75 571 c 0xee
 75 595 79.6666666667 621.666666667 89 651 c 0
 97.6666666667 675.666666667 110.666666667 694 128 706 c 0
 145.333333333 718 164 724 184 724 c 0
 202.666666667 724 218.5 719.333333333 231.5 710 c 0
 244.5 700.666666667 251 689 251 675 c 0xf4
 251 662.333333333 244.666666667 648.666666667 232 634 c 0
 228 628.666666667 226 624 226 620 c 0
 226 608 236.833333333 598.166666667 258.5 590.5 c 0
 280.166666667 582.833333333 308.333333333 579 343 579 c 0
 405 579 471.833333333 593.166666667 543.5 621.5 c 0
 615.166666667 649.833333333 681 695 741 757 c 0
 848.333333333 868.333333333 935.333333333 924 1002 924 c 2
 1103 924 l 1
 1103 346 l 1
 1103 160 l 2xee
 1103 6.66666666667 1100.66666667 -96.3333333333 1096 -149 c 0xe5
 1091.33333333 -201.666666667 1080 -228 1062 -228 c 0
 1047.33333333 -228 1017.33333333 -203 972 -153 c 0
355 848 m 0
 355 882.666666667 337 938 301 1014 c 0
 269 1080 253 1117.66666667 253 1127 c 0
 253 1133 255.5 1136.83333333 260.5 1138.5 c 0
 265.5 1140.16666667 274.333333333 1141 287 1141 c 2
 314 1141 l 2
 359.333333333 1141 393.333333333 1118.66666667 416 1074 c 2
 452 1004 l 1
 549 1100 l 2
 612.333333333 1161.33333333 653.333333333 1192 672 1192 c 0
 677.333333333 1192 680 1189 680 1183 c 0
 680 1169.66666667 667.333333333 1144.33333333 642 1107 c 0
 600.666666667 1045 564 978 532 906 c 0
 513.333333333 862.666666667 495.666666667 832.833333333 479 816.5 c 0
 462.333333333 800.166666667 442 792 418 792 c 0
 395.333333333 792 379.166666667 796.333333333 369.5 805 c 0
 359.833333333 813.666666667 355 828 355 848 c 0
EndSplineSet
Validated: 1
Ligature2: "ccmp-1 subtable" period O quotesingle U
Ligature2: "ccmp-1 subtable" period O quotesingle u
Ligature2: "ccmp-1 subtable" period o quotesingle u
Ligature2: "ccmp-1 subtable" period o quotesingle U
Ligature2: "ccmp-0 subtable" period O quotesingle U
Ligature2: "ccmp-0 subtable" period O quotesingle u
Ligature2: "ccmp-0 subtable" period o quotesingle u
Ligature2: "ccmp-0 subtable" period o quotesingle U
Ligature2: "ccmp-1" period o quotesingle U
Ligature2: "ccmp-1" period o quotesingle u
Ligature2: "ccmp-1" period O quotesingle u
Ligature2: "ccmp-1" period O quotesingle U
EndChar

StartChar: h.au
Encoding: 276 -1 70
Width: 1219
GlyphClass: 3
Flags: W
HStem: 365 214<225.799 486.714> 904 20G<427.333 527 967.667 1102> 1316 157<733.237 959.046>
VStem: 74 176<620.188 699.251> 74 151<541.333 686.828> 367 160<873.415 1321.77> 546 178<1478.34 1594.26> 863 239<-46.6304 707> 891 204<-104.344 548.156>
LayerCount: 2
Fore
SplineSet
598 1372 m 0xe6
 563.333333333 1409.33333333 546 1451.33333333 546 1498 c 0
 546 1536.66666667 558.5 1569.16666667 583.5 1595.5 c 0
 608.5 1621.83333333 642 1635 684 1635 c 0
 702 1635 714.833333333 1631.83333333 722.5 1625.5 c 0
 730.166666667 1619.16666667 734 1608.33333333 734 1593 c 0
 734 1587.66666667 732.666666667 1574.33333333 730 1553 c 0
 726 1536.33333333 724 1522.66666667 724 1512 c 0
 724 1495.33333333 729.833333333 1484.66666667 741.5 1480 c 0
 753.166666667 1475.33333333 776 1473 810 1473 c 0
 836 1473 869.333333333 1479.66666667 910 1493 c 0
 950.666666667 1506.33333333 986 1522.33333333 1016 1541 c 0
 1056 1567 1085.33333333 1580 1104 1580 c 0
 1116 1580 1122 1573 1122 1559 c 0
 1122 1539.66666667 1111.33333333 1510.66666667 1090 1472 c 0
 1064.66666667 1426 1020.16666667 1388.5 956.5 1359.5 c 0
 892.833333333 1330.5 828 1316 762 1316 c 0
 685.333333333 1316 630.666666667 1334.66666667 598 1372 c 0xe6
971 -153 m 0
 936.333333333 -115 909.666666667 -63 891 3 c 0xe680
 872.333333333 69 863 173.333333333 863 316 c 2
 863 707 l 1
 856.333333333 705 847.833333333 699.333333333 837.5 690 c 0
 827.166666667 680.666666667 815.166666667 669 801.5 655 c 0
 787.833333333 641 777.333333333 631 770 625 c 0
 652.666666667 521.666666667 563.166666667 452.5 501.5 417.5 c 0
 439.833333333 382.5 376.333333333 365 311 365 c 0
 241 365 184 384.5 140 423.5 c 0
 96 462.5 74 511.666666667 74 571 c 0xef
 74 595 78.6666666667 621.666666667 88 651 c 0
 96.6666666667 675.666666667 109.666666667 694 127 706 c 0
 144.333333333 718 163 724 183 724 c 0
 201.666666667 724 217.5 719.333333333 230.5 710 c 0
 243.5 700.666666667 250 689 250 675 c 0xf6
 250 662.333333333 243.666666667 648.666666667 231 634 c 0
 227 628.666666667 225 624 225 620 c 0
 225 608 235.833333333 598.166666667 257.5 590.5 c 0
 279.166666667 582.833333333 307.333333333 579 342 579 c 0
 404 579 470.833333333 593.166666667 542.5 621.5 c 0
 614.166666667 649.833333333 680 695 740 757 c 0
 847.333333333 868.333333333 934.333333333 924 1001 924 c 2
 1102 924 l 1
 1102 346 l 1
 1102 160 l 2xef
 1102 6.66666666667 1099.66666667 -96.3333333333 1095 -149 c 0xe680
 1090.33333333 -201.666666667 1079 -228 1061 -228 c 0
 1046.33333333 -228 1016.33333333 -203 971 -153 c 0
432 843 m 0
 405.333333333 879 387.833333333 915.166666667 379.5 951.5 c 0
 371.166666667 987.833333333 367 1046.66666667 367 1128 c 0
 367 1226 370.5 1283.33333333 377.5 1300 c 0
 384.5 1316.66666667 407.666666667 1325 447 1325 c 2
 527 1325 l 1
 527 1040 l 2
 527 988.666666667 526.333333333 941 525 897 c 0
 523.666666667 853 521.833333333 818.333333333 519.5 793 c 0
 517.166666667 767.666666667 514.666666667 755 512 755 c 0
 502.666666667 755 476 784.333333333 432 843 c 0
EndSplineSet
Validated: 1
Ligature2: "ccmp-1 subtable" period A quotesingle Y
Ligature2: "ccmp-1 subtable" period A quotesingle y
Ligature2: "ccmp-1 subtable" period a quotesingle Y
Ligature2: "ccmp-1 subtable" period a quotesingle y
Ligature2: "ccmp-0 subtable" period A quotesingle Y
Ligature2: "ccmp-0 subtable" period A quotesingle y
Ligature2: "ccmp-0 subtable" period a quotesingle Y
Ligature2: "ccmp-0 subtable" period a quotesingle y
Ligature2: "ccmp-1" period a quotesingle y
Ligature2: "ccmp-1" period a quotesingle Y
Ligature2: "ccmp-1" period A quotesingle y
Ligature2: "ccmp-1" period A quotesingle Y
EndChar

StartChar: h.ui
Encoding: 277 -1 71
Width: 1228
GlyphClass: 3
Flags: W
HStem: 365 214<226.799 487.714> 866 157<393.496 617.387> 924 186G<753.333 768.333 968.667 1103> 1309 324<841.9 1025.71>
VStem: 75 176<620.188 699.251> 75 151<541.333 686.828> 205 178<1027.43 1144.26> 776 327<1385.04 1584.75> 864 239<-46.6304 707> 892 204<-104.344 548.156>
LayerCount: 2
Fore
SplineSet
840 1355 m 0x91
 797.333333333 1387.66666667 776 1428.66666667 776 1478 c 0
 776 1519.33333333 791.333333333 1555.5 822 1586.5 c 0
 852.666666667 1617.5 892.333333333 1633 941 1633 c 0
 989.666666667 1633 1028.83333333 1619.5 1058.5 1592.5 c 0
 1088.16666667 1565.5 1103 1532.66666667 1103 1494 c 0
 1103 1446 1081.66666667 1403 1039 1365 c 0
 997.666666667 1327.66666667 964 1309 938 1309 c 0
 913.333333333 1309 880.666666667 1324.33333333 840 1355 c 0x91
256 922 m 0
 222 960 205 1002 205 1048 c 0
 205 1086.66666667 217.5 1119.16666667 242.5 1145.5 c 0
 267.5 1171.83333333 300.666666667 1185 342 1185 c 0
 360 1185 373 1181.83333333 381 1175.5 c 0
 389 1169.16666667 393 1158.33333333 393 1143 c 0
 393 1134.33333333 391.333333333 1121 388 1103 c 0
 384.666666667 1084.33333333 383 1070.66666667 383 1062 c 0
 383 1045.33333333 388.833333333 1034.66666667 400.5 1030 c 0
 412.166666667 1025.33333333 435 1023 469 1023 c 0
 495 1023 528.166666667 1029.66666667 568.5 1043 c 0
 608.833333333 1056.33333333 644 1072.33333333 674 1091 c 0
 715.333333333 1117 744.666666667 1130 762 1130 c 0
 774.666666667 1130 781 1123 781 1109 c 0
 781 1089.66666667 770.333333333 1060.66666667 749 1022 c 0
 723.666666667 976 679 938.5 615 909.5 c 0
 551 880.5 486 866 420 866 c 0xd2
 344 866 289.333333333 884.666666667 256 922 c 0
972 -153 m 0
 937.333333333 -115 910.666666667 -63 892 3 c 0xb040
 873.333333333 69 864 173.333333333 864 316 c 2
 864 707 l 1
 857.333333333 705 848.833333333 699.333333333 838.5 690 c 0
 828.166666667 680.666666667 816.166666667 669 802.5 655 c 0
 788.833333333 641 778.333333333 631 771 625 c 0
 653.666666667 521.666666667 564.166666667 452.5 502.5 417.5 c 0
 440.833333333 382.5 377.333333333 365 312 365 c 0
 242 365 185 384.5 141 423.5 c 0
 97 462.5 75 511.666666667 75 571 c 0xb480
 75 595 79.6666666667 621.666666667 89 651 c 0
 97.6666666667 675.666666667 110.666666667 694 128 706 c 0
 145.333333333 718 164 724 184 724 c 0
 202.666666667 724 218.5 719.333333333 231.5 710 c 0
 244.5 700.666666667 251 689 251 675 c 0xb8
 251 662.333333333 244.666666667 648.666666667 232 634 c 0
 228 628.666666667 226 624 226 620 c 0
 226 608 236.833333333 598.166666667 258.5 590.5 c 0
 280.166666667 582.833333333 308.333333333 579 343 579 c 0
 405 579 471.833333333 593.166666667 543.5 621.5 c 0
 615.166666667 649.833333333 681 695 741 757 c 0
 848.333333333 868.333333333 935.333333333 924 1002 924 c 2
 1103 924 l 1
 1103 346 l 1
 1103 160 l 2xb480
 1103 6.66666666667 1100.66666667 -96.3333333333 1096 -149 c 0xb040
 1091.33333333 -201.666666667 1080 -228 1062 -228 c 0
 1047.33333333 -228 1017.33333333 -203 972 -153 c 0
EndSplineSet
Validated: 1
Ligature2: "ccmp-1 subtable" period U quotesingle I
Ligature2: "ccmp-1 subtable" period U quotesingle i
Ligature2: "ccmp-1 subtable" period u quotesingle I
Ligature2: "ccmp-1 subtable" period u quotesingle i
Ligature2: "ccmp-0 subtable" period U quotesingle I
Ligature2: "ccmp-0 subtable" period U quotesingle i
Ligature2: "ccmp-0 subtable" period u quotesingle I
Ligature2: "ccmp-0 subtable" period u quotesingle i
Ligature2: "ccmp-1" period u quotesingle i
Ligature2: "ccmp-1" period u quotesingle I
Ligature2: "ccmp-1" period U quotesingle i
Ligature2: "ccmp-1" period U quotesingle I
EndChar

StartChar: h.ei
Encoding: 278 -1 72
Width: 1230
GlyphClass: 3
Flags: W
HStem: 365 214<228.799 489.714> 904 20G<970.667 1105> 930 150<192.979 770.375> 1309 324<843.9 1027.71>
VStem: 77 176<620.188 699.251> 77 151<541.333 686.828> 778 327<1385.04 1584.75> 866 239<-46.6304 707> 894 204<-104.344 548.156>
LayerCount: 2
Fore
SplineSet
842 1355 m 0xf2
 799.333333333 1387.66666667 778 1428.66666667 778 1478 c 0
 778 1519.33333333 793.333333333 1555.5 824 1586.5 c 0
 854.666666667 1617.5 894.333333333 1633 943 1633 c 0
 991.666666667 1633 1030.83333333 1619.5 1060.5 1592.5 c 0
 1090.16666667 1565.5 1105 1532.66666667 1105 1494 c 0
 1105 1446 1083.66666667 1403 1041 1365 c 0
 999.666666667 1327.66666667 966 1309 940 1309 c 0
 915.333333333 1309 882.666666667 1324.33333333 842 1355 c 0xf2
161 970 m 0
 161 1000 171.333333333 1022.66666667 192 1038 c 0
 212.666666667 1053.33333333 247.833333333 1064.16666667 297.5 1070.5 c 0
 347.166666667 1076.83333333 420 1080 516 1080 c 2
 789 1080 l 1
 777 1009 l 2
 775 994.333333333 773.166666667 984 771.5 978 c 0
 769.833333333 972 765.166666667 965.166666667 757.5 957.5 c 0
 749.833333333 949.833333333 740.666666667 944.833333333 730 942.5 c 0
 719.333333333 940.166666667 701.333333333 937.666666667 676 935 c 0
 650.666666667 932.333333333 622.5 930.833333333 591.5 930.5 c 0
 560.5 930.166666667 518 930 464 930 c 2
 358 930 l 2
 310 930 274.666666667 930.333333333 252 931 c 0
 229.333333333 931.666666667 210.166666667 933.5 194.5 936.5 c 0
 178.833333333 939.5 169.333333333 943.333333333 166 948 c 0
 162.666666667 952.666666667 161 960 161 970 c 0
974 -153 m 0
 939.333333333 -115 912.666666667 -63 894 3 c 0xf080
 875.333333333 69 866 173.333333333 866 316 c 2
 866 707 l 1
 859.333333333 705 850.833333333 699.333333333 840.5 690 c 0
 830.166666667 680.666666667 818.166666667 669 804.5 655 c 0
 790.833333333 641 780.333333333 631 773 625 c 0
 655.666666667 521.666666667 566.166666667 452.5 504.5 417.5 c 0
 442.833333333 382.5 379.333333333 365 314 365 c 0
 244 365 187 384.5 143 423.5 c 0
 99 462.5 77 511.666666667 77 571 c 0xf5
 77 595 81.6666666667 621.666666667 91 651 c 0
 99.6666666667 675.666666667 112.666666667 694 130 706 c 0
 147.333333333 718 166 724 186 724 c 0
 204.666666667 724 220.5 719.333333333 233.5 710 c 0
 246.5 700.666666667 253 689 253 675 c 0xf8
 253 662.333333333 246.666666667 648.666666667 234 634 c 0
 230 628.666666667 228 624 228 620 c 0
 228 608 238.833333333 598.166666667 260.5 590.5 c 0
 282.166666667 582.833333333 310.333333333 579 345 579 c 0
 407 579 473.833333333 593.166666667 545.5 621.5 c 0
 617.166666667 649.833333333 683 695 743 757 c 0
 850.333333333 868.333333333 937.333333333 924 1004 924 c 2
 1105 924 l 1
 1105 346 l 1
 1105 160 l 2xf5
 1105 6.66666666667 1102.66666667 -96.3333333333 1098 -149 c 0xf080
 1093.33333333 -201.666666667 1082 -228 1064 -228 c 0
 1049.33333333 -228 1019.33333333 -203 974 -153 c 0
EndSplineSet
Validated: 1
Ligature2: "ccmp-1 subtable" period E quotesingle I
Ligature2: "ccmp-1 subtable" period E quotesingle i
Ligature2: "ccmp-1 subtable" period e quotesingle I
Ligature2: "ccmp-1 subtable" period e quotesingle i
Ligature2: "ccmp-0 subtable" period E quotesingle I
Ligature2: "ccmp-0 subtable" period E quotesingle i
Ligature2: "ccmp-0 subtable" period e quotesingle I
Ligature2: "ccmp-0 subtable" period e quotesingle i
Ligature2: "ccmp-1" period e quotesingle i
Ligature2: "ccmp-1" period e quotesingle I
Ligature2: "ccmp-1" period E quotesingle i
Ligature2: "ccmp-1" period E quotesingle I
EndChar

StartChar: h.ii
Encoding: 279 -1 73
Width: 1229
GlyphClass: 3
Flags: W
HStem: 365 214<227.799 488.714> 853 324<376.9 560.713> 904 20G<969.667 1104> 1309 324<842.9 1026.71>
VStem: 76 176<620.188 699.251> 76 151<541.333 686.828> 311 327<929.037 1128.75> 777 327<1385.04 1584.75> 865 239<-46.6304 707> 893 204<-104.344 548.156>
LayerCount: 2
Fore
SplineSet
841 1355 m 0x93
 798.333333333 1387.66666667 777 1428.66666667 777 1478 c 0
 777 1519.33333333 792.333333333 1555.5 823 1586.5 c 0
 853.666666667 1617.5 893.333333333 1633 942 1633 c 0
 990.666666667 1633 1029.83333333 1619.5 1059.5 1592.5 c 0
 1089.16666667 1565.5 1104 1532.66666667 1104 1494 c 0
 1104 1446 1082.66666667 1403 1040 1365 c 0
 998.666666667 1327.66666667 965 1309 939 1309 c 0
 914.333333333 1309 881.666666667 1324.33333333 841 1355 c 0x93
973 -153 m 0
 938.333333333 -115 911.666666667 -63 893 3 c 0xb240
 874.333333333 69 865 173.333333333 865 316 c 2
 865 707 l 1
 858.333333333 705 849.833333333 699.333333333 839.5 690 c 0
 829.166666667 680.666666667 817.166666667 669 803.5 655 c 0
 789.833333333 641 779.333333333 631 772 625 c 0
 654.666666667 521.666666667 565.166666667 452.5 503.5 417.5 c 0
 441.833333333 382.5 378.333333333 365 313 365 c 0
 243 365 186 384.5 142 423.5 c 0
 98 462.5 76 511.666666667 76 571 c 0xb680
 76 595 80.6666666667 621.666666667 90 651 c 0
 98.6666666667 675.666666667 111.666666667 694 129 706 c 0
 146.333333333 718 165 724 185 724 c 0
 203.666666667 724 219.5 719.333333333 232.5 710 c 0
 245.5 700.666666667 252 689 252 675 c 0xba
 252 662.333333333 245.666666667 648.666666667 233 634 c 0
 229 628.666666667 227 624 227 620 c 0
 227 608 237.833333333 598.166666667 259.5 590.5 c 0
 281.166666667 582.833333333 309.333333333 579 344 579 c 0
 406 579 472.833333333 593.166666667 544.5 621.5 c 0
 616.166666667 649.833333333 682 695 742 757 c 0
 849.333333333 868.333333333 936.333333333 924 1003 924 c 2
 1104 924 l 1
 1104 346 l 1
 1104 160 l 2xb680
 1104 6.66666666667 1101.66666667 -96.3333333333 1097 -149 c 0xb240
 1092.33333333 -201.666666667 1081 -228 1063 -228 c 0
 1048.33333333 -228 1018.33333333 -203 973 -153 c 0
375 899 m 0
 332.333333333 931.666666667 311 972.666666667 311 1022 c 0
 311 1063.33333333 326.333333333 1099.5 357 1130.5 c 0
 387.666666667 1161.5 427.333333333 1177 476 1177 c 0
 524.666666667 1177 563.833333333 1163.5 593.5 1136.5 c 0
 623.166666667 1109.5 638 1076.66666667 638 1038 c 0
 638 990 616.666666667 947 574 909 c 0
 532.666666667 871.666666667 499 853 473 853 c 0xd2
 448.333333333 853 415.666666667 868.333333333 375 899 c 0
EndSplineSet
Validated: 1
Ligature2: "ccmp-1 subtable" period I quotesingle I
Ligature2: "ccmp-1 subtable" period I quotesingle i
Ligature2: "ccmp-1 subtable" period i quotesingle I
Ligature2: "ccmp-1 subtable" period i quotesingle i
Ligature2: "ccmp-0 subtable" period I quotesingle I
Ligature2: "ccmp-0 subtable" period I quotesingle i
Ligature2: "ccmp-0 subtable" period i quotesingle I
Ligature2: "ccmp-0 subtable" period i quotesingle i
Ligature2: "ccmp-1" period i quotesingle i
Ligature2: "ccmp-1" period i quotesingle I
Ligature2: "ccmp-1" period I quotesingle i
Ligature2: "ccmp-1" period I quotesingle I
EndChar

StartChar: h.oi
Encoding: 280 -1 74
Width: 1228
GlyphClass: 3
Flags: W
HStem: 365 214<226.799 487.714> 904 20G<280.667 336.667 662.667 674.667 968.667 1103> 1309 324<841.9 1025.71>
VStem: 75 176<620.188 699.251> 75 151<541.333 686.828> 776 327<1385.04 1584.75> 864 239<-46.6304 707> 892 204<-104.344 548.156>
LayerCount: 2
Fore
SplineSet
840 1355 m 0xe4
 797.333333333 1387.66666667 776 1428.66666667 776 1478 c 0
 776 1519.33333333 791.333333333 1555.5 822 1586.5 c 0
 852.666666667 1617.5 892.333333333 1633 941 1633 c 0
 989.666666667 1633 1028.83333333 1619.5 1058.5 1592.5 c 0
 1088.16666667 1565.5 1103 1532.66666667 1103 1494 c 0
 1103 1446 1081.66666667 1403 1039 1365 c 0
 997.666666667 1327.66666667 964 1309 938 1309 c 0
 913.333333333 1309 880.666666667 1324.33333333 840 1355 c 0xe4
972 -153 m 0
 937.333333333 -115 910.666666667 -63 892 3 c 0xe1
 873.333333333 69 864 173.333333333 864 316 c 2
 864 707 l 1
 857.333333333 705 848.833333333 699.333333333 838.5 690 c 0
 828.166666667 680.666666667 816.166666667 669 802.5 655 c 0
 788.833333333 641 778.333333333 631 771 625 c 0
 653.666666667 521.666666667 564.166666667 452.5 502.5 417.5 c 0
 440.833333333 382.5 377.333333333 365 312 365 c 0
 242 365 185 384.5 141 423.5 c 0
 97 462.5 75 511.666666667 75 571 c 0xea
 75 595 79.6666666667 621.666666667 89 651 c 0
 97.6666666667 675.666666667 110.666666667 694 128 706 c 0
 145.333333333 718 164 724 184 724 c 0
 202.666666667 724 218.5 719.333333333 231.5 710 c 0
 244.5 700.666666667 251 689 251 675 c 0xf0
 251 662.333333333 244.666666667 648.666666667 232 634 c 0
 228 628.666666667 226 624 226 620 c 0
 226 608 236.833333333 598.166666667 258.5 590.5 c 0
 280.166666667 582.833333333 308.333333333 579 343 579 c 0
 405 579 471.833333333 593.166666667 543.5 621.5 c 0
 615.166666667 649.833333333 681 695 741 757 c 0
 848.333333333 868.333333333 935.333333333 924 1002 924 c 2
 1103 924 l 1
 1103 346 l 1
 1103 160 l 2xea
 1103 6.66666666667 1100.66666667 -96.3333333333 1096 -149 c 0xe1
 1091.33333333 -201.666666667 1080 -228 1062 -228 c 0
 1047.33333333 -228 1017.33333333 -203 972 -153 c 0
355 848 m 0
 355 882.666666667 337 938 301 1014 c 0
 269 1080 253 1117.66666667 253 1127 c 0
 253 1133 255.5 1136.83333333 260.5 1138.5 c 0
 265.5 1140.16666667 274.333333333 1141 287 1141 c 2
 314 1141 l 2
 359.333333333 1141 393.333333333 1118.66666667 416 1074 c 2
 452 1004 l 1
 549 1100 l 2
 612.333333333 1161.33333333 653.333333333 1192 672 1192 c 0
 677.333333333 1192 680 1189 680 1183 c 0
 680 1169.66666667 667.333333333 1144.33333333 642 1107 c 0
 600.666666667 1045 564 978 532 906 c 0
 513.333333333 862.666666667 495.666666667 832.833333333 479 816.5 c 0
 462.333333333 800.166666667 442 792 418 792 c 0
 395.333333333 792 379.166666667 796.333333333 369.5 805 c 0
 359.833333333 813.666666667 355 828 355 848 c 0
EndSplineSet
Validated: 1
Ligature2: "ccmp-1 subtable" period O quotesingle I
Ligature2: "ccmp-1 subtable" period O quotesingle i
Ligature2: "ccmp-1 subtable" period o quotesingle I
Ligature2: "ccmp-1 subtable" period o quotesingle i
Ligature2: "ccmp-0 subtable" period O quotesingle I
Ligature2: "ccmp-0 subtable" period O quotesingle i
Ligature2: "ccmp-0 subtable" period o quotesingle I
Ligature2: "ccmp-0 subtable" period o quotesingle i
Ligature2: "ccmp-1" period o quotesingle i
Ligature2: "ccmp-1" period o quotesingle I
Ligature2: "ccmp-1" period O quotesingle i
Ligature2: "ccmp-1" period O quotesingle I
EndChar

StartChar: h.ai
Encoding: 281 -1 75
Width: 1227
GlyphClass: 3
Flags: W
HStem: 365 214<225.799 486.714> 904 20G<427.333 527 967.667 1102> 1309 324<840.9 1024.71>
VStem: 74 176<620.188 699.251> 74 151<541.333 686.828> 367 160<873.415 1321.77> 775 327<1385.04 1584.75> 863 239<-46.6304 707> 891 204<-104.344 548.156>
LayerCount: 2
Fore
SplineSet
839 1355 m 0xe6
 796.333333333 1387.66666667 775 1428.66666667 775 1478 c 0
 775 1519.33333333 790.333333333 1555.5 821 1586.5 c 0
 851.666666667 1617.5 891.333333333 1633 940 1633 c 0
 988.666666667 1633 1027.83333333 1619.5 1057.5 1592.5 c 0
 1087.16666667 1565.5 1102 1532.66666667 1102 1494 c 0
 1102 1446 1080.66666667 1403 1038 1365 c 0
 996.666666667 1327.66666667 963 1309 937 1309 c 0
 912.333333333 1309 879.666666667 1324.33333333 839 1355 c 0xe6
971 -153 m 0
 936.333333333 -115 909.666666667 -63 891 3 c 0xe480
 872.333333333 69 863 173.333333333 863 316 c 2
 863 707 l 1
 856.333333333 705 847.833333333 699.333333333 837.5 690 c 0
 827.166666667 680.666666667 815.166666667 669 801.5 655 c 0
 787.833333333 641 777.333333333 631 770 625 c 0
 652.666666667 521.666666667 563.166666667 452.5 501.5 417.5 c 0
 439.833333333 382.5 376.333333333 365 311 365 c 0
 241 365 184 384.5 140 423.5 c 0
 96 462.5 74 511.666666667 74 571 c 0xed
 74 595 78.6666666667 621.666666667 88 651 c 0
 96.6666666667 675.666666667 109.666666667 694 127 706 c 0
 144.333333333 718 163 724 183 724 c 0
 201.666666667 724 217.5 719.333333333 230.5 710 c 0
 243.5 700.666666667 250 689 250 675 c 0xf4
 250 662.333333333 243.666666667 648.666666667 231 634 c 0
 227 628.666666667 225 624 225 620 c 0
 225 608 235.833333333 598.166666667 257.5 590.5 c 0
 279.166666667 582.833333333 307.333333333 579 342 579 c 0
 404 579 470.833333333 593.166666667 542.5 621.5 c 0
 614.166666667 649.833333333 680 695 740 757 c 0
 847.333333333 868.333333333 934.333333333 924 1001 924 c 2
 1102 924 l 1
 1102 346 l 1
 1102 160 l 2xed
 1102 6.66666666667 1099.66666667 -96.3333333333 1095 -149 c 0xe480
 1090.33333333 -201.666666667 1079 -228 1061 -228 c 0
 1046.33333333 -228 1016.33333333 -203 971 -153 c 0
432 843 m 0
 405.333333333 879 387.833333333 915.166666667 379.5 951.5 c 0
 371.166666667 987.833333333 367 1046.66666667 367 1128 c 0
 367 1226 370.5 1283.33333333 377.5 1300 c 0
 384.5 1316.66666667 407.666666667 1325 447 1325 c 2
 527 1325 l 1
 527 1040 l 2
 527 988.666666667 526.333333333 941 525 897 c 0
 523.666666667 853 521.833333333 818.333333333 519.5 793 c 0
 517.166666667 767.666666667 514.666666667 755 512 755 c 0
 502.666666667 755 476 784.333333333 432 843 c 0
EndSplineSet
Validated: 1
Ligature2: "ccmp-1 subtable" period A quotesingle I
Ligature2: "ccmp-1 subtable" period A quotesingle i
Ligature2: "ccmp-1 subtable" period a quotesingle I
Ligature2: "ccmp-1 subtable" period a quotesingle i
Ligature2: "ccmp-0 subtable" period A quotesingle I
Ligature2: "ccmp-0 subtable" period A quotesingle i
Ligature2: "ccmp-0 subtable" period a quotesingle I
Ligature2: "ccmp-0 subtable" period a quotesingle i
Ligature2: "ccmp-1" period a quotesingle i
Ligature2: "ccmp-1" period a quotesingle I
Ligature2: "ccmp-1" period A quotesingle i
Ligature2: "ccmp-1" period A quotesingle I
EndChar

StartChar: h.uo
Encoding: 282 -1 76
Width: 1224
GlyphClass: 3
Flags: W
HStem: 365 214<226.799 487.714> 866 157<393.496 617.387> 924 186G<753.333 768.333 968.667 1103> 1227 21G<834.667 858>
VStem: 75 176<620.188 699.251> 75 151<541.333 686.828> 205 178<1027.43 1144.26> 864 239<-46.6304 707> 892 204<-104.344 548.156>
LayerCount: 2
Fore
SplineSet
783 1283 m 0x90
 783 1317.66666667 765 1373 729 1449 c 0
 697 1515 681 1552.66666667 681 1562 c 0
 681 1568 683.5 1571.83333333 688.5 1573.5 c 0
 693.5 1575.16666667 702.333333333 1576 715 1576 c 2
 742 1576 l 2
 787.333333333 1576 821.333333333 1553.66666667 844 1509 c 2
 880 1439 l 1
 977 1535 l 2
 1040.33333333 1596.33333333 1081.33333333 1627 1100 1627 c 0
 1105.33333333 1627 1108 1624 1108 1618 c 0
 1108 1604.66666667 1095.33333333 1579.33333333 1070 1542 c 0
 1028.66666667 1480 992 1413 960 1341 c 0
 941.333333333 1297.66666667 923.666666667 1267.83333333 907 1251.5 c 0
 890.333333333 1235.16666667 870 1227 846 1227 c 0
 823.333333333 1227 807.166666667 1231.33333333 797.5 1240 c 0
 787.833333333 1248.66666667 783 1263 783 1283 c 0x90
256 922 m 0
 222 960 205 1002 205 1048 c 0
 205 1086.66666667 217.5 1119.16666667 242.5 1145.5 c 0
 267.5 1171.83333333 300.666666667 1185 342 1185 c 0
 360 1185 373 1181.83333333 381 1175.5 c 0
 389 1169.16666667 393 1158.33333333 393 1143 c 0
 393 1134.33333333 391.333333333 1121 388 1103 c 0
 384.666666667 1084.33333333 383 1070.66666667 383 1062 c 0
 383 1045.33333333 388.833333333 1034.66666667 400.5 1030 c 0
 412.166666667 1025.33333333 435 1023 469 1023 c 0
 495 1023 528.166666667 1029.66666667 568.5 1043 c 0
 608.833333333 1056.33333333 644 1072.33333333 674 1091 c 0
 715.333333333 1117 744.666666667 1130 762 1130 c 0
 774.666666667 1130 781 1123 781 1109 c 0
 781 1089.66666667 770.333333333 1060.66666667 749 1022 c 0
 723.666666667 976 679 938.5 615 909.5 c 0
 551 880.5 486 866 420 866 c 0xd2
 344 866 289.333333333 884.666666667 256 922 c 0
972 -153 m 0
 937.333333333 -115 910.666666667 -63 892 3 c 0xb080
 873.333333333 69 864 173.333333333 864 316 c 2
 864 707 l 1
 857.333333333 705 848.833333333 699.333333333 838.5 690 c 0
 828.166666667 680.666666667 816.166666667 669 802.5 655 c 0
 788.833333333 641 778.333333333 631 771 625 c 0
 653.666666667 521.666666667 564.166666667 452.5 502.5 417.5 c 0
 440.833333333 382.5 377.333333333 365 312 365 c 0
 242 365 185 384.5 141 423.5 c 0
 97 462.5 75 511.666666667 75 571 c 0xb5
 75 595 79.6666666667 621.666666667 89 651 c 0
 97.6666666667 675.666666667 110.666666667 694 128 706 c 0
 145.333333333 718 164 724 184 724 c 0
 202.666666667 724 218.5 719.333333333 231.5 710 c 0
 244.5 700.666666667 251 689 251 675 c 0xb8
 251 662.333333333 244.666666667 648.666666667 232 634 c 0
 228 628.666666667 226 624 226 620 c 0
 226 608 236.833333333 598.166666667 258.5 590.5 c 0
 280.166666667 582.833333333 308.333333333 579 343 579 c 0
 405 579 471.833333333 593.166666667 543.5 621.5 c 0
 615.166666667 649.833333333 681 695 741 757 c 0
 848.333333333 868.333333333 935.333333333 924 1002 924 c 2
 1103 924 l 1
 1103 346 l 1
 1103 160 l 2xb5
 1103 6.66666666667 1100.66666667 -96.3333333333 1096 -149 c 0xb080
 1091.33333333 -201.666666667 1080 -228 1062 -228 c 0
 1047.33333333 -228 1017.33333333 -203 972 -153 c 0
EndSplineSet
Validated: 1
Ligature2: "ccmp-1 subtable" period U quotesingle O
Ligature2: "ccmp-1 subtable" period U quotesingle o
Ligature2: "ccmp-1 subtable" period u quotesingle O
Ligature2: "ccmp-1 subtable" period u quotesingle o
Ligature2: "ccmp-0 subtable" period U quotesingle O
Ligature2: "ccmp-0 subtable" period U quotesingle o
Ligature2: "ccmp-0 subtable" period u quotesingle O
Ligature2: "ccmp-0 subtable" period u quotesingle o
Ligature2: "ccmp-1" period u quotesingle o
Ligature2: "ccmp-1" period u quotesingle O
Ligature2: "ccmp-1" period U quotesingle o
Ligature2: "ccmp-1" period U quotesingle O
EndChar

StartChar: h.283
Encoding: 283 -1 77
Width: 1226
GlyphClass: 3
Flags: W
HStem: 365 214<227.799 488.714> 904 20G<969.667 1104> 930 150<191.979 769.375> 1227 21G<835.667 859>
VStem: 76 176<620.188 699.251> 76 151<541.333 686.828> 865 239<-46.6304 707> 893 204<-104.344 548.156>
LayerCount: 2
Fore
SplineSet
160 970 m 0xf0
 160 1000 170.333333333 1022.66666667 191 1038 c 0
 211.666666667 1053.33333333 246.833333333 1064.16666667 296.5 1070.5 c 0
 346.166666667 1076.83333333 419 1080 515 1080 c 2
 788 1080 l 1
 776 1009 l 2
 774 994.333333333 772.166666667 984 770.5 978 c 0
 768.833333333 972 764.166666667 965.166666667 756.5 957.5 c 0
 748.833333333 949.833333333 739.666666667 944.833333333 729 942.5 c 0
 718.333333333 940.166666667 700.333333333 937.666666667 675 935 c 0
 649.666666667 932.333333333 621.5 930.833333333 590.5 930.5 c 0
 559.5 930.166666667 517 930 463 930 c 2
 357 930 l 2
 309 930 273.666666667 930.333333333 251 931 c 0
 228.333333333 931.666666667 209.166666667 933.5 193.5 936.5 c 0
 177.833333333 939.5 168.333333333 943.333333333 165 948 c 0
 161.666666667 952.666666667 160 960 160 970 c 0xf0
973 -153 m 0
 938.333333333 -115 911.666666667 -63 893 3 c 0xf1
 874.333333333 69 865 173.333333333 865 316 c 2
 865 707 l 1
 858.333333333 705 849.833333333 699.333333333 839.5 690 c 0
 829.166666667 680.666666667 817.166666667 669 803.5 655 c 0
 789.833333333 641 779.333333333 631 772 625 c 0
 654.666666667 521.666666667 565.166666667 452.5 503.5 417.5 c 0
 441.833333333 382.5 378.333333333 365 313 365 c 0
 243 365 186 384.5 142 423.5 c 0
 98 462.5 76 511.666666667 76 571 c 0xf6
 76 595 80.6666666667 621.666666667 90 651 c 0
 98.6666666667 675.666666667 111.666666667 694 129 706 c 0
 146.333333333 718 165 724 185 724 c 0
 203.666666667 724 219.5 719.333333333 232.5 710 c 0
 245.5 700.666666667 252 689 252 675 c 0xf8
 252 662.333333333 245.666666667 648.666666667 233 634 c 0
 229 628.666666667 227 624 227 620 c 0
 227 608 237.833333333 598.166666667 259.5 590.5 c 0
 281.166666667 582.833333333 309.333333333 579 344 579 c 0
 406 579 472.833333333 593.166666667 544.5 621.5 c 0
 616.166666667 649.833333333 682 695 742 757 c 0
 849.333333333 868.333333333 936.333333333 924 1003 924 c 2
 1104 924 l 1
 1104 346 l 1
 1104 160 l 2xf6
 1104 6.66666666667 1101.66666667 -96.3333333333 1097 -149 c 0xf1
 1092.33333333 -201.666666667 1081 -228 1063 -228 c 0
 1048.33333333 -228 1018.33333333 -203 973 -153 c 0
784 1283 m 0
 784 1317.66666667 766 1373 730 1449 c 0
 698 1515 682 1552.66666667 682 1562 c 0
 682 1568 684.5 1571.83333333 689.5 1573.5 c 0
 694.5 1575.16666667 703.333333333 1576 716 1576 c 2
 743 1576 l 2
 788.333333333 1576 822.333333333 1553.66666667 845 1509 c 2
 881 1439 l 1
 978 1535 l 2
 1041.33333333 1596.33333333 1082.33333333 1627 1101 1627 c 0
 1106.33333333 1627 1109 1624 1109 1618 c 0
 1109 1604.66666667 1096.33333333 1579.33333333 1071 1542 c 0
 1029.66666667 1480 993 1413 961 1341 c 0
 942.333333333 1297.66666667 924.666666667 1267.83333333 908 1251.5 c 0
 891.333333333 1235.16666667 871 1227 847 1227 c 0
 824.333333333 1227 808.166666667 1231.33333333 798.5 1240 c 0
 788.833333333 1248.66666667 784 1263 784 1283 c 0
EndSplineSet
Validated: 1
Ligature2: "ccmp-1" period E quotesingle O
Ligature2: "ccmp-1" period E quotesingle o
Ligature2: "ccmp-1" period e quotesingle O
Ligature2: "ccmp-1" period e quotesingle o
Ligature2: "ccmp-0 subtable" period e quotesingle o
Ligature2: "ccmp-0 subtable" period e quotesingle O
Ligature2: "ccmp-0 subtable" period E quotesingle o
Ligature2: "ccmp-0 subtable" period E quotesingle O
Ligature2: "ccmp-1 subtable" period e quotesingle o
Ligature2: "ccmp-1 subtable" period e quotesingle O
Ligature2: "ccmp-1 subtable" period E quotesingle o
Ligature2: "ccmp-1 subtable" period E quotesingle O
EndChar

StartChar: h.io
Encoding: 284 -1 78
Width: 1224
GlyphClass: 3
Flags: W
HStem: 365 214<226.799 487.714> 853 324<375.9 559.713> 904 20G<968.667 1103> 1227 21G<834.667 858>
VStem: 75 176<620.188 699.251> 75 151<541.333 686.828> 310 327<929.037 1128.75> 864 239<-46.6304 707> 892 204<-104.344 548.156>
LayerCount: 2
Fore
SplineSet
972 -153 m 0xb280
 937.333333333 -115 910.666666667 -63 892 3 c 0xb280
 873.333333333 69 864 173.333333333 864 316 c 2
 864 707 l 1
 857.333333333 705 848.833333333 699.333333333 838.5 690 c 0
 828.166666667 680.666666667 816.166666667 669 802.5 655 c 0
 788.833333333 641 778.333333333 631 771 625 c 0
 653.666666667 521.666666667 564.166666667 452.5 502.5 417.5 c 0
 440.833333333 382.5 377.333333333 365 312 365 c 0
 242 365 185 384.5 141 423.5 c 0
 97 462.5 75 511.666666667 75 571 c 0xb7
 75 595 79.6666666667 621.666666667 89 651 c 0
 97.6666666667 675.666666667 110.666666667 694 128 706 c 0
 145.333333333 718 164 724 184 724 c 0
 202.666666667 724 218.5 719.333333333 231.5 710 c 0
 244.5 700.666666667 251 689 251 675 c 0xba
 251 662.333333333 244.666666667 648.666666667 232 634 c 0
 228 628.666666667 226 624 226 620 c 0
 226 608 236.833333333 598.166666667 258.5 590.5 c 0
 280.166666667 582.833333333 308.333333333 579 343 579 c 0
 405 579 471.833333333 593.166666667 543.5 621.5 c 0
 615.166666667 649.833333333 681 695 741 757 c 0
 848.333333333 868.333333333 935.333333333 924 1002 924 c 2
 1103 924 l 1
 1103 346 l 1
 1103 160 l 2xb7
 1103 6.66666666667 1100.66666667 -96.3333333333 1096 -149 c 0
 1091.33333333 -201.666666667 1080 -228 1062 -228 c 0
 1047.33333333 -228 1017.33333333 -203 972 -153 c 0xb280
374 899 m 0
 331.333333333 931.666666667 310 972.666666667 310 1022 c 0
 310 1063.33333333 325.333333333 1099.5 356 1130.5 c 0
 386.666666667 1161.5 426.333333333 1177 475 1177 c 0
 523.666666667 1177 562.833333333 1163.5 592.5 1136.5 c 0
 622.166666667 1109.5 637 1076.66666667 637 1038 c 0
 637 990 615.666666667 947 573 909 c 0
 531.666666667 871.666666667 498 853 472 853 c 0xd2
 447.333333333 853 414.666666667 868.333333333 374 899 c 0
783 1283 m 0
 783 1317.66666667 765 1373 729 1449 c 0
 697 1515 681 1552.66666667 681 1562 c 0
 681 1568 683.5 1571.83333333 688.5 1573.5 c 0
 693.5 1575.16666667 702.333333333 1576 715 1576 c 2
 742 1576 l 2
 787.333333333 1576 821.333333333 1553.66666667 844 1509 c 2
 880 1439 l 1
 977 1535 l 2
 1040.33333333 1596.33333333 1081.33333333 1627 1100 1627 c 0
 1105.33333333 1627 1108 1624 1108 1618 c 0
 1108 1604.66666667 1095.33333333 1579.33333333 1070 1542 c 0
 1028.66666667 1480 992 1413 960 1341 c 0
 941.333333333 1297.66666667 923.666666667 1267.83333333 907 1251.5 c 0
 890.333333333 1235.16666667 870 1227 846 1227 c 0
 823.333333333 1227 807.166666667 1231.33333333 797.5 1240 c 0
 787.833333333 1248.66666667 783 1263 783 1283 c 0
EndSplineSet
Validated: 1
Ligature2: "ccmp-1" period I quotesingle O
Ligature2: "ccmp-1" period I quotesingle o
Ligature2: "ccmp-1" period i quotesingle O
Ligature2: "ccmp-1" period i quotesingle o
Ligature2: "ccmp-0 subtable" period i quotesingle o
Ligature2: "ccmp-0 subtable" period i quotesingle O
Ligature2: "ccmp-0 subtable" period I quotesingle o
Ligature2: "ccmp-0 subtable" period I quotesingle O
Ligature2: "ccmp-1 subtable" period i quotesingle o
Ligature2: "ccmp-1 subtable" period i quotesingle O
Ligature2: "ccmp-1 subtable" period I quotesingle o
Ligature2: "ccmp-1 subtable" period I quotesingle O
EndChar

StartChar: h.oo
Encoding: 285 -1 79
Width: 1224
GlyphClass: 3
Flags: W
HStem: 365 214<226.799 487.714> 904 20G<280.667 336.667 662.667 674.667 968.667 1103> 1227 21G<834.667 858>
VStem: 75 176<620.188 699.251> 75 151<541.333 686.828> 864 239<-46.6304 707> 892 204<-104.344 548.156>
LayerCount: 2
Fore
SplineSet
972 -153 m 0xe2
 937.333333333 -115 910.666666667 -63 892 3 c 0xe2
 873.333333333 69 864 173.333333333 864 316 c 2
 864 707 l 1
 857.333333333 705 848.833333333 699.333333333 838.5 690 c 0
 828.166666667 680.666666667 816.166666667 669 802.5 655 c 0
 788.833333333 641 778.333333333 631 771 625 c 0
 653.666666667 521.666666667 564.166666667 452.5 502.5 417.5 c 0
 440.833333333 382.5 377.333333333 365 312 365 c 0
 242 365 185 384.5 141 423.5 c 0
 97 462.5 75 511.666666667 75 571 c 0xec
 75 595 79.6666666667 621.666666667 89 651 c 0
 97.6666666667 675.666666667 110.666666667 694 128 706 c 0
 145.333333333 718 164 724 184 724 c 0
 202.666666667 724 218.5 719.333333333 231.5 710 c 0
 244.5 700.666666667 251 689 251 675 c 0xf0
 251 662.333333333 244.666666667 648.666666667 232 634 c 0
 228 628.666666667 226 624 226 620 c 0
 226 608 236.833333333 598.166666667 258.5 590.5 c 0
 280.166666667 582.833333333 308.333333333 579 343 579 c 0
 405 579 471.833333333 593.166666667 543.5 621.5 c 0
 615.166666667 649.833333333 681 695 741 757 c 0
 848.333333333 868.333333333 935.333333333 924 1002 924 c 2
 1103 924 l 1
 1103 346 l 1
 1103 160 l 2xec
 1103 6.66666666667 1100.66666667 -96.3333333333 1096 -149 c 0
 1091.33333333 -201.666666667 1080 -228 1062 -228 c 0
 1047.33333333 -228 1017.33333333 -203 972 -153 c 0xe2
355 848 m 0
 355 882.666666667 337 938 301 1014 c 0
 269 1080 253 1117.66666667 253 1127 c 0
 253 1133 255.5 1136.83333333 260.5 1138.5 c 0
 265.5 1140.16666667 274.333333333 1141 287 1141 c 2
 314 1141 l 2
 359.333333333 1141 393.333333333 1118.66666667 416 1074 c 2
 452 1004 l 1
 549 1100 l 2
 612.333333333 1161.33333333 653.333333333 1192 672 1192 c 0
 677.333333333 1192 680 1189 680 1183 c 0
 680 1169.66666667 667.333333333 1144.33333333 642 1107 c 0
 600.666666667 1045 564 978 532 906 c 0
 513.333333333 862.666666667 495.666666667 832.833333333 479 816.5 c 0
 462.333333333 800.166666667 442 792 418 792 c 0
 395.333333333 792 379.166666667 796.333333333 369.5 805 c 0
 359.833333333 813.666666667 355 828 355 848 c 0
783 1283 m 0
 783 1317.66666667 765 1373 729 1449 c 0
 697 1515 681 1552.66666667 681 1562 c 0
 681 1568 683.5 1571.83333333 688.5 1573.5 c 0
 693.5 1575.16666667 702.333333333 1576 715 1576 c 2
 742 1576 l 2
 787.333333333 1576 821.333333333 1553.66666667 844 1509 c 2
 880 1439 l 1
 977 1535 l 2
 1040.33333333 1596.33333333 1081.33333333 1627 1100 1627 c 0
 1105.33333333 1627 1108 1624 1108 1618 c 0
 1108 1604.66666667 1095.33333333 1579.33333333 1070 1542 c 0
 1028.66666667 1480 992 1413 960 1341 c 0
 941.333333333 1297.66666667 923.666666667 1267.83333333 907 1251.5 c 0
 890.333333333 1235.16666667 870 1227 846 1227 c 0
 823.333333333 1227 807.166666667 1231.33333333 797.5 1240 c 0
 787.833333333 1248.66666667 783 1263 783 1283 c 0
EndSplineSet
Validated: 1
Ligature2: "ccmp-1" period O quotesingle O
Ligature2: "ccmp-1" period O quotesingle o
Ligature2: "ccmp-1" period o quotesingle O
Ligature2: "ccmp-1" period o quotesingle o
Ligature2: "ccmp-0 subtable" period o quotesingle o
Ligature2: "ccmp-0 subtable" period o quotesingle O
Ligature2: "ccmp-0 subtable" period O quotesingle o
Ligature2: "ccmp-0 subtable" period O quotesingle O
Ligature2: "ccmp-1 subtable" period o quotesingle o
Ligature2: "ccmp-1 subtable" period o quotesingle O
Ligature2: "ccmp-1 subtable" period O quotesingle o
Ligature2: "ccmp-1 subtable" period O quotesingle O
EndChar

StartChar: h.ao
Encoding: 286 -1 80
Width: 1223
GlyphClass: 3
Flags: W
HStem: 365 214<225.799 486.714> 904 20G<427.333 527 967.667 1102> 1227 21G<833.667 857>
VStem: 74 176<620.188 699.251> 74 151<541.333 686.828> 367 160<873.415 1321.77> 863 239<-46.6304 707> 891 204<-104.344 548.156>
LayerCount: 2
Fore
SplineSet
971 -153 m 0xe5
 936.333333333 -115 909.666666667 -63 891 3 c 0xe5
 872.333333333 69 863 173.333333333 863 316 c 2
 863 707 l 1
 856.333333333 705 847.833333333 699.333333333 837.5 690 c 0
 827.166666667 680.666666667 815.166666667 669 801.5 655 c 0
 787.833333333 641 777.333333333 631 770 625 c 0
 652.666666667 521.666666667 563.166666667 452.5 501.5 417.5 c 0
 439.833333333 382.5 376.333333333 365 311 365 c 0
 241 365 184 384.5 140 423.5 c 0
 96 462.5 74 511.666666667 74 571 c 0xee
 74 595 78.6666666667 621.666666667 88 651 c 0
 96.6666666667 675.666666667 109.666666667 694 127 706 c 0
 144.333333333 718 163 724 183 724 c 0
 201.666666667 724 217.5 719.333333333 230.5 710 c 0
 243.5 700.666666667 250 689 250 675 c 0xf4
 250 662.333333333 243.666666667 648.666666667 231 634 c 0
 227 628.666666667 225 624 225 620 c 0
 225 608 235.833333333 598.166666667 257.5 590.5 c 0
 279.166666667 582.833333333 307.333333333 579 342 579 c 0
 404 579 470.833333333 593.166666667 542.5 621.5 c 0
 614.166666667 649.833333333 680 695 740 757 c 0
 847.333333333 868.333333333 934.333333333 924 1001 924 c 2
 1102 924 l 1
 1102 346 l 1
 1102 160 l 2xee
 1102 6.66666666667 1099.66666667 -96.3333333333 1095 -149 c 0
 1090.33333333 -201.666666667 1079 -228 1061 -228 c 0
 1046.33333333 -228 1016.33333333 -203 971 -153 c 0xe5
432 843 m 0
 405.333333333 879 387.833333333 915.166666667 379.5 951.5 c 0
 371.166666667 987.833333333 367 1046.66666667 367 1128 c 0
 367 1226 370.5 1283.33333333 377.5 1300 c 0
 384.5 1316.66666667 407.666666667 1325 447 1325 c 2
 527 1325 l 1
 527 1040 l 2
 527 988.666666667 526.333333333 941 525 897 c 0
 523.666666667 853 521.833333333 818.333333333 519.5 793 c 0
 517.166666667 767.666666667 514.666666667 755 512 755 c 0
 502.666666667 755 476 784.333333333 432 843 c 0
782 1283 m 0
 782 1317.66666667 764 1373 728 1449 c 0
 696 1515 680 1552.66666667 680 1562 c 0
 680 1568 682.5 1571.83333333 687.5 1573.5 c 0
 692.5 1575.16666667 701.333333333 1576 714 1576 c 2
 741 1576 l 2
 786.333333333 1576 820.333333333 1553.66666667 843 1509 c 2
 879 1439 l 1
 976 1535 l 2
 1039.33333333 1596.33333333 1080.33333333 1627 1099 1627 c 0
 1104.33333333 1627 1107 1624 1107 1618 c 0
 1107 1604.66666667 1094.33333333 1579.33333333 1069 1542 c 0
 1027.66666667 1480 991 1413 959 1341 c 0
 939.666666667 1297.66666667 921.833333333 1267.83333333 905.5 1251.5 c 0
 889.166666667 1235.16666667 869 1227 845 1227 c 0
 822.333333333 1227 806.166666667 1231.33333333 796.5 1240 c 0
 786.833333333 1248.66666667 782 1263 782 1283 c 0
EndSplineSet
Validated: 1
Ligature2: "ccmp-1" period A quotesingle O
Ligature2: "ccmp-1" period A quotesingle o
Ligature2: "ccmp-1" period a quotesingle O
Ligature2: "ccmp-1" period a quotesingle o
Ligature2: "ccmp-0 subtable" period a quotesingle o
Ligature2: "ccmp-0 subtable" period a quotesingle O
Ligature2: "ccmp-0 subtable" period A quotesingle o
Ligature2: "ccmp-0 subtable" period A quotesingle O
Ligature2: "ccmp-1 subtable" period a quotesingle o
Ligature2: "ccmp-1 subtable" period a quotesingle O
Ligature2: "ccmp-1 subtable" period A quotesingle o
Ligature2: "ccmp-1 subtable" period A quotesingle O
EndChar

StartChar: h.ua
Encoding: 287 -1 81
Width: 1226
GlyphClass: 3
Flags: W
HStem: 365 214<226.799 487.714> 866 157<393.496 617.387> 924 186G<753.333 768.333 968.667 1103> 1047 21G<1011.33 1017.33>
VStem: 75 176<620.188 699.251> 75 151<541.333 686.828> 205 178<1027.43 1144.26> 864 239<-46.6304 707> 871 160<1165.41 1613.77> 892 204<-104.344 548.156>
LayerCount: 2
Fore
SplineSet
936 1135 m 0x9080
 909.333333333 1171 891.833333333 1207.16666667 883.5 1243.5 c 0
 875.166666667 1279.83333333 871 1338.66666667 871 1420 c 0
 871 1518 874.5 1575.33333333 881.5 1592 c 0
 888.5 1608.66666667 911.666666667 1617 951 1617 c 2
 1031 1617 l 1
 1031 1332 l 2
 1031 1280.66666667 1030.33333333 1233 1029 1189 c 0
 1027.66666667 1145 1025.83333333 1110.33333333 1023.5 1085 c 0
 1021.16666667 1059.66666667 1018.66666667 1047 1016 1047 c 0
 1006.66666667 1047 980 1076.33333333 936 1135 c 0x9080
256 922 m 0
 222 960 205 1002 205 1048 c 0
 205 1086.66666667 217.5 1119.16666667 242.5 1145.5 c 0
 267.5 1171.83333333 300.666666667 1185 342 1185 c 0
 360 1185 373 1181.83333333 381 1175.5 c 0
 389 1169.16666667 393 1158.33333333 393 1143 c 0
 393 1134.33333333 391.333333333 1121 388 1103 c 0
 384.666666667 1084.33333333 383 1070.66666667 383 1062 c 0
 383 1045.33333333 388.833333333 1034.66666667 400.5 1030 c 0
 412.166666667 1025.33333333 435 1023 469 1023 c 0
 495 1023 528.166666667 1029.66666667 568.5 1043 c 0
 608.833333333 1056.33333333 644 1072.33333333 674 1091 c 0
 715.333333333 1117 744.666666667 1130 762 1130 c 0
 774.666666667 1130 781 1123 781 1109 c 0
 781 1089.66666667 770.333333333 1060.66666667 749 1022 c 0
 723.666666667 976 679 938.5 615 909.5 c 0
 551 880.5 486 866 420 866 c 0xc2
 344 866 289.333333333 884.666666667 256 922 c 0
972 -153 m 0
 937.333333333 -115 910.666666667 -63 892 3 c 0xa040
 873.333333333 69 864 173.333333333 864 316 c 2
 864 707 l 1
 857.333333333 705 848.833333333 699.333333333 838.5 690 c 0
 828.166666667 680.666666667 816.166666667 669 802.5 655 c 0
 788.833333333 641 778.333333333 631 771 625 c 0
 653.666666667 521.666666667 564.166666667 452.5 502.5 417.5 c 0
 440.833333333 382.5 377.333333333 365 312 365 c 0
 242 365 185 384.5 141 423.5 c 0
 97 462.5 75 511.666666667 75 571 c 0xa5
 75 595 79.6666666667 621.666666667 89 651 c 0
 97.6666666667 675.666666667 110.666666667 694 128 706 c 0
 145.333333333 718 164 724 184 724 c 0
 202.666666667 724 218.5 719.333333333 231.5 710 c 0
 244.5 700.666666667 251 689 251 675 c 0xa8
 251 662.333333333 244.666666667 648.666666667 232 634 c 0
 228 628.666666667 226 624 226 620 c 0
 226 608 236.833333333 598.166666667 258.5 590.5 c 0
 280.166666667 582.833333333 308.333333333 579 343 579 c 0
 405 579 471.833333333 593.166666667 543.5 621.5 c 0
 615.166666667 649.833333333 681 695 741 757 c 0
 848.333333333 868.333333333 935.333333333 924 1002 924 c 2
 1103 924 l 1
 1103 346 l 1
 1103 160 l 2xa5
 1103 6.66666666667 1100.66666667 -96.3333333333 1096 -149 c 0xa040
 1091.33333333 -201.666666667 1080 -228 1062 -228 c 0
 1047.33333333 -228 1017.33333333 -203 972 -153 c 0
EndSplineSet
Validated: 1
Ligature2: "ccmp-1" period U quotesingle A
Ligature2: "ccmp-1" period U quotesingle a
Ligature2: "ccmp-1" period u quotesingle A
Ligature2: "ccmp-1" period u quotesingle a
Ligature2: "ccmp-0 subtable" period u quotesingle a
Ligature2: "ccmp-0 subtable" period u quotesingle A
Ligature2: "ccmp-0 subtable" period U quotesingle a
Ligature2: "ccmp-0 subtable" period U quotesingle A
Ligature2: "ccmp-1 subtable" period u quotesingle a
Ligature2: "ccmp-1 subtable" period u quotesingle A
Ligature2: "ccmp-1 subtable" period U quotesingle a
Ligature2: "ccmp-1 subtable" period U quotesingle A
EndChar

StartChar: h.ea
Encoding: 288 -1 82
Width: 1227
GlyphClass: 3
Flags: W
HStem: 365 214<227.799 488.714> 904 20G<969.667 1104> 930 150<191.979 769.375> 1047 21G<1012.33 1018.33>
VStem: 76 176<620.188 699.251> 76 151<541.333 686.828> 872 160<1165.41 1613.77> 893 204<-104.344 548.156>
LayerCount: 2
Fore
SplineSet
160 970 m 0xe0
 160 1000 170.333333333 1022.66666667 191 1038 c 0
 211.666666667 1053.33333333 246.833333333 1064.16666667 296.5 1070.5 c 0
 346.166666667 1076.83333333 419 1080 515 1080 c 2
 788 1080 l 1
 776 1009 l 2
 774 994.333333333 772.166666667 984 770.5 978 c 0
 768.833333333 972 764.166666667 965.166666667 756.5 957.5 c 0
 748.833333333 949.833333333 739.666666667 944.833333333 729 942.5 c 0
 718.333333333 940.166666667 700.333333333 937.666666667 675 935 c 0
 649.666666667 932.333333333 621.5 930.833333333 590.5 930.5 c 0
 559.5 930.166666667 517 930 463 930 c 2
 357 930 l 2
 309 930 273.666666667 930.333333333 251 931 c 0
 228.333333333 931.666666667 209.166666667 933.5 193.5 936.5 c 0
 177.833333333 939.5 168.333333333 943.333333333 165 948 c 0
 161.666666667 952.666666667 160 960 160 970 c 0xe0
973 -153 m 0
 938.333333333 -115 911.666666667 -63 893 3 c 0
 874.333333333 69 865 173.333333333 865 316 c 2
 865 707 l 1
 858.333333333 705 849.833333333 699.333333333 839.5 690 c 0
 829.166666667 680.666666667 817.166666667 669 803.5 655 c 0
 789.833333333 641 779.333333333 631 772 625 c 0
 654.666666667 521.666666667 565.166666667 452.5 503.5 417.5 c 0
 441.833333333 382.5 378.333333333 365 313 365 c 0
 243 365 186 384.5 142 423.5 c 0
 98 462.5 76 511.666666667 76 571 c 0xc5
 76 595 80.6666666667 621.666666667 90 651 c 0
 98.6666666667 675.666666667 111.666666667 694 129 706 c 0
 146.333333333 718 165 724 185 724 c 0
 203.666666667 724 219.5 719.333333333 232.5 710 c 0
 245.5 700.666666667 252 689 252 675 c 0xc8
 252 662.333333333 245.666666667 648.666666667 233 634 c 0
 229 628.666666667 227 624 227 620 c 0
 227 608 237.833333333 598.166666667 259.5 590.5 c 0
 281.166666667 582.833333333 309.333333333 579 344 579 c 0
 406 579 472.833333333 593.166666667 544.5 621.5 c 0
 616.166666667 649.833333333 682 695 742 757 c 0
 849.333333333 868.333333333 936.333333333 924 1003 924 c 2
 1104 924 l 1
 1104 346 l 1
 1104 160 l 2
 1104 6.66666666667 1101.66666667 -96.3333333333 1097 -149 c 0xc5
 1092.33333333 -201.666666667 1081 -228 1063 -228 c 0
 1048.33333333 -228 1018.33333333 -203 973 -153 c 0
937 1135 m 0
 910.333333333 1171 892.833333333 1207.16666667 884.5 1243.5 c 0
 876.166666667 1279.83333333 872 1338.66666667 872 1420 c 0
 872 1518 875.5 1575.33333333 882.5 1592 c 0
 889.5 1608.66666667 912.666666667 1617 952 1617 c 2
 1032 1617 l 1
 1032 1332 l 2
 1032 1280.66666667 1031.33333333 1233 1030 1189 c 0
 1028.66666667 1145 1026.83333333 1110.33333333 1024.5 1085 c 0
 1022.16666667 1059.66666667 1019.66666667 1047 1017 1047 c 0xd2
 1007.66666667 1047 981 1076.33333333 937 1135 c 0
EndSplineSet
Validated: 1
Ligature2: "ccmp-1" period E quotesingle A
Ligature2: "ccmp-1" period E quotesingle a
Ligature2: "ccmp-1" period e quotesingle A
Ligature2: "ccmp-1" period e quotesingle a
Ligature2: "ccmp-0 subtable" period e quotesingle a
Ligature2: "ccmp-0 subtable" period e quotesingle A
Ligature2: "ccmp-0 subtable" period E quotesingle a
Ligature2: "ccmp-0 subtable" period E quotesingle A
Ligature2: "ccmp-1 subtable" period e quotesingle a
Ligature2: "ccmp-1 subtable" period e quotesingle A
Ligature2: "ccmp-1 subtable" period E quotesingle a
Ligature2: "ccmp-1 subtable" period E quotesingle A
EndChar

StartChar: h.ia
Encoding: 289 -1 83
Width: 1226
GlyphClass: 3
Flags: W
HStem: 365 214<226.799 487.714> 853 324<375.9 559.713> 904 20G<968.667 1103> 1047 21G<1011.33 1017.33>
VStem: 75 176<620.188 699.251> 75 151<541.333 686.828> 310 327<929.037 1128.75> 871 160<1165.41 1613.77> 892 204<-104.344 548.156>
LayerCount: 2
Fore
SplineSet
972 -153 m 0xa680
 937.333333333 -115 910.666666667 -63 892 3 c 0
 873.333333333 69 864 173.333333333 864 316 c 2
 864 707 l 1
 857.333333333 705 848.833333333 699.333333333 838.5 690 c 0
 828.166666667 680.666666667 816.166666667 669 802.5 655 c 0
 788.833333333 641 778.333333333 631 771 625 c 0
 653.666666667 521.666666667 564.166666667 452.5 502.5 417.5 c 0
 440.833333333 382.5 377.333333333 365 312 365 c 0
 242 365 185 384.5 141 423.5 c 0
 97 462.5 75 511.666666667 75 571 c 0xa680
 75 595 79.6666666667 621.666666667 89 651 c 0
 97.6666666667 675.666666667 110.666666667 694 128 706 c 0
 145.333333333 718 164 724 184 724 c 0
 202.666666667 724 218.5 719.333333333 231.5 710 c 0
 244.5 700.666666667 251 689 251 675 c 0xaa
 251 662.333333333 244.666666667 648.666666667 232 634 c 0
 228 628.666666667 226 624 226 620 c 0
 226 608 236.833333333 598.166666667 258.5 590.5 c 0
 280.166666667 582.833333333 308.333333333 579 343 579 c 0
 405 579 471.833333333 593.166666667 543.5 621.5 c 0
 615.166666667 649.833333333 681 695 741 757 c 0
 848.333333333 868.333333333 935.333333333 924 1002 924 c 2
 1103 924 l 1
 1103 346 l 1
 1103 160 l 2
 1103 6.66666666667 1100.66666667 -96.3333333333 1096 -149 c 0
 1091.33333333 -201.666666667 1080 -228 1062 -228 c 0
 1047.33333333 -228 1017.33333333 -203 972 -153 c 0xa680
374 899 m 0
 331.333333333 931.666666667 310 972.666666667 310 1022 c 0
 310 1063.33333333 325.333333333 1099.5 356 1130.5 c 0
 386.666666667 1161.5 426.333333333 1177 475 1177 c 0
 523.666666667 1177 562.833333333 1163.5 592.5 1136.5 c 0
 622.166666667 1109.5 637 1076.66666667 637 1038 c 0
 637 990 615.666666667 947 573 909 c 0
 531.666666667 871.666666667 498 853 472 853 c 0xc2
 447.333333333 853 414.666666667 868.333333333 374 899 c 0
936 1135 m 0
 909.333333333 1171 891.833333333 1207.16666667 883.5 1243.5 c 0
 875.166666667 1279.83333333 871 1338.66666667 871 1420 c 0
 871 1518 874.5 1575.33333333 881.5 1592 c 0
 888.5 1608.66666667 911.666666667 1617 951 1617 c 2
 1031 1617 l 1
 1031 1332 l 2
 1031 1280.66666667 1030.33333333 1233 1029 1189 c 0
 1027.66666667 1145 1025.83333333 1110.33333333 1023.5 1085 c 0
 1021.16666667 1059.66666667 1018.66666667 1047 1016 1047 c 0x93
 1006.66666667 1047 980 1076.33333333 936 1135 c 0
EndSplineSet
Validated: 1
Ligature2: "ccmp-1" period I quotesingle A
Ligature2: "ccmp-1" period I quotesingle a
Ligature2: "ccmp-1" period i quotesingle A
Ligature2: "ccmp-1" period i quotesingle a
Ligature2: "ccmp-0 subtable" period i quotesingle a
Ligature2: "ccmp-0 subtable" period i quotesingle A
Ligature2: "ccmp-0 subtable" period I quotesingle a
Ligature2: "ccmp-0 subtable" period I quotesingle A
Ligature2: "ccmp-1 subtable" period i quotesingle a
Ligature2: "ccmp-1 subtable" period i quotesingle A
Ligature2: "ccmp-1 subtable" period I quotesingle a
Ligature2: "ccmp-1 subtable" period I quotesingle A
EndChar

StartChar: h.oa
Encoding: 290 -1 84
Width: 1226
GlyphClass: 3
Flags: W
HStem: 365 214<226.799 487.714> 904 20G<280.667 336.667 662.667 674.667 968.667 1103> 1047 21G<1011.33 1017.33>
VStem: 75 176<620.188 699.251> 75 151<541.333 686.828> 871 160<1165.41 1613.77> 892 204<-104.344 548.156>
LayerCount: 2
Fore
SplineSet
972 -153 m 0xea
 937.333333333 -115 910.666666667 -63 892 3 c 0
 873.333333333 69 864 173.333333333 864 316 c 2
 864 707 l 1
 857.333333333 705 848.833333333 699.333333333 838.5 690 c 0
 828.166666667 680.666666667 816.166666667 669 802.5 655 c 0
 788.833333333 641 778.333333333 631 771 625 c 0
 653.666666667 521.666666667 564.166666667 452.5 502.5 417.5 c 0
 440.833333333 382.5 377.333333333 365 312 365 c 0
 242 365 185 384.5 141 423.5 c 0
 97 462.5 75 511.666666667 75 571 c 0xea
 75 595 79.6666666667 621.666666667 89 651 c 0
 97.6666666667 675.666666667 110.666666667 694 128 706 c 0
 145.333333333 718 164 724 184 724 c 0
 202.666666667 724 218.5 719.333333333 231.5 710 c 0
 244.5 700.666666667 251 689 251 675 c 0xf0
 251 662.333333333 244.666666667 648.666666667 232 634 c 0
 228 628.666666667 226 624 226 620 c 0
 226 608 236.833333333 598.166666667 258.5 590.5 c 0
 280.166666667 582.833333333 308.333333333 579 343 579 c 0
 405 579 471.833333333 593.166666667 543.5 621.5 c 0
 615.166666667 649.833333333 681 695 741 757 c 0
 848.333333333 868.333333333 935.333333333 924 1002 924 c 2
 1103 924 l 1
 1103 346 l 1
 1103 160 l 2
 1103 6.66666666667 1100.66666667 -96.3333333333 1096 -149 c 0
 1091.33333333 -201.666666667 1080 -228 1062 -228 c 0
 1047.33333333 -228 1017.33333333 -203 972 -153 c 0xea
355 848 m 0
 355 882.666666667 337 938 301 1014 c 0
 269 1080 253 1117.66666667 253 1127 c 0
 253 1133 255.5 1136.83333333 260.5 1138.5 c 0
 265.5 1140.16666667 274.333333333 1141 287 1141 c 2
 314 1141 l 2
 359.333333333 1141 393.333333333 1118.66666667 416 1074 c 2
 452 1004 l 1
 549 1100 l 2
 612.333333333 1161.33333333 653.333333333 1192 672 1192 c 0
 677.333333333 1192 680 1189 680 1183 c 0
 680 1169.66666667 667.333333333 1144.33333333 642 1107 c 0
 600.666666667 1045 564 978 532 906 c 0
 513.333333333 862.666666667 495.666666667 832.833333333 479 816.5 c 0
 462.333333333 800.166666667 442 792 418 792 c 0
 395.333333333 792 379.166666667 796.333333333 369.5 805 c 0
 359.833333333 813.666666667 355 828 355 848 c 0
936 1135 m 0
 909.333333333 1171 891.833333333 1207.16666667 883.5 1243.5 c 0
 875.166666667 1279.83333333 871 1338.66666667 871 1420 c 0
 871 1518 874.5 1575.33333333 881.5 1592 c 0
 888.5 1608.66666667 911.666666667 1617 951 1617 c 2
 1031 1617 l 1
 1031 1332 l 2xe4
 1031 1280.66666667 1030.33333333 1233 1029 1189 c 0
 1027.66666667 1145 1025.83333333 1110.33333333 1023.5 1085 c 0
 1021.16666667 1059.66666667 1018.66666667 1047 1016 1047 c 0
 1006.66666667 1047 980 1076.33333333 936 1135 c 0
EndSplineSet
Validated: 1
Ligature2: "ccmp-1" period O quotesingle A
Ligature2: "ccmp-1" period O quotesingle a
Ligature2: "ccmp-1" period o quotesingle A
Ligature2: "ccmp-1" period o quotesingle a
Ligature2: "ccmp-0 subtable" period o quotesingle a
Ligature2: "ccmp-0 subtable" period o quotesingle A
Ligature2: "ccmp-0 subtable" period O quotesingle a
Ligature2: "ccmp-0 subtable" period O quotesingle A
Ligature2: "ccmp-1 subtable" period o quotesingle a
Ligature2: "ccmp-1 subtable" period o quotesingle A
Ligature2: "ccmp-1 subtable" period O quotesingle a
Ligature2: "ccmp-1 subtable" period O quotesingle A
EndChar

StartChar: h.aa
Encoding: 291 -1 85
Width: 1225
GlyphClass: 3
Flags: W
HStem: 365 214<225.799 486.714> 904 20G<427.333 527 967.667 1102> 1047 21G<1010.33 1016.33>
VStem: 74 176<620.188 699.251> 74 151<541.333 686.828> 367 160<873.415 1321.77> 870 160<1165.41 1613.77> 891 204<-104.344 548.156>
LayerCount: 2
Fore
SplineSet
971 -153 m 0xed
 936.333333333 -115 909.666666667 -63 891 3 c 0
 872.333333333 69 863 173.333333333 863 316 c 2
 863 707 l 1
 856.333333333 705 847.833333333 699.333333333 837.5 690 c 0
 827.166666667 680.666666667 815.166666667 669 801.5 655 c 0
 787.833333333 641 777.333333333 631 770 625 c 0
 652.666666667 521.666666667 563.166666667 452.5 501.5 417.5 c 0
 439.833333333 382.5 376.333333333 365 311 365 c 0
 241 365 184 384.5 140 423.5 c 0
 96 462.5 74 511.666666667 74 571 c 0xed
 74 595 78.6666666667 621.666666667 88 651 c 0
 96.6666666667 675.666666667 109.666666667 694 127 706 c 0
 144.333333333 718 163 724 183 724 c 0
 201.666666667 724 217.5 719.333333333 230.5 710 c 0
 243.5 700.666666667 250 689 250 675 c 0xf4
 250 662.333333333 243.666666667 648.666666667 231 634 c 0
 227 628.666666667 225 624 225 620 c 0
 225 608 235.833333333 598.166666667 257.5 590.5 c 0
 279.166666667 582.833333333 307.333333333 579 342 579 c 0
 404 579 470.833333333 593.166666667 542.5 621.5 c 0
 614.166666667 649.833333333 680 695 740 757 c 0
 847.333333333 868.333333333 934.333333333 924 1001 924 c 2
 1102 924 l 1
 1102 346 l 1
 1102 160 l 2
 1102 6.66666666667 1099.66666667 -96.3333333333 1095 -149 c 0
 1090.33333333 -201.666666667 1079 -228 1061 -228 c 0
 1046.33333333 -228 1016.33333333 -203 971 -153 c 0xed
432 843 m 0
 405.333333333 879 387.833333333 915.166666667 379.5 951.5 c 0
 371.166666667 987.833333333 367 1046.66666667 367 1128 c 0
 367 1226 370.5 1283.33333333 377.5 1300 c 0
 384.5 1316.66666667 407.666666667 1325 447 1325 c 2
 527 1325 l 1
 527 1040 l 2
 527 988.666666667 526.333333333 941 525 897 c 0
 523.666666667 853 521.833333333 818.333333333 519.5 793 c 0
 517.166666667 767.666666667 514.666666667 755 512 755 c 0
 502.666666667 755 476 784.333333333 432 843 c 0
935 1135 m 0
 908.333333333 1171 890.833333333 1207.16666667 882.5 1243.5 c 0
 874.166666667 1279.83333333 870 1338.66666667 870 1420 c 0
 870 1518 873.5 1575.33333333 880.5 1592 c 0
 887.5 1608.66666667 910.666666667 1617 950 1617 c 2
 1030 1617 l 1
 1030 1332 l 2xe6
 1030 1280.66666667 1029.33333333 1233 1028 1189 c 0
 1026.66666667 1145 1024.83333333 1110.33333333 1022.5 1085 c 0
 1020.16666667 1059.66666667 1017.66666667 1047 1015 1047 c 0
 1005.66666667 1047 979 1076.33333333 935 1135 c 0
EndSplineSet
Validated: 1
Ligature2: "ccmp-1" period A quotesingle A
Ligature2: "ccmp-1" period A quotesingle a
Ligature2: "ccmp-1" period a quotesingle A
Ligature2: "ccmp-1" period a quotesingle a
Ligature2: "ccmp-0 subtable" period a quotesingle a
Ligature2: "ccmp-0 subtable" period a quotesingle A
Ligature2: "ccmp-0 subtable" period A quotesingle a
Ligature2: "ccmp-0 subtable" period A quotesingle A
Ligature2: "ccmp-1 subtable" period a quotesingle a
Ligature2: "ccmp-1 subtable" period a quotesingle A
Ligature2: "ccmp-1 subtable" period A quotesingle a
Ligature2: "ccmp-1 subtable" period A quotesingle A
EndChar

StartChar: h.ue
Encoding: 292 -1 86
Width: 1226
GlyphClass: 3
Flags: W
HStem: 365 214<227.799 488.714> 866 157<394.496 618.387> 924 186G<754 769.333 969.667 1104> 1447 150<521.979 1099.37>
VStem: 76 176<620.188 699.251> 76 151<541.333 686.828> 206 178<1027.43 1144.26> 865 239<-46.6304 707> 893 204<-104.344 548.156>
LayerCount: 2
Fore
SplineSet
490 1487 m 0x90
 490 1517 500.333333333 1539.66666667 521 1555 c 0
 541.666666667 1570.33333333 576.833333333 1581.16666667 626.5 1587.5 c 0
 676.166666667 1593.83333333 749 1597 845 1597 c 2
 1118 1597 l 1
 1106 1526 l 2
 1104 1511.33333333 1102.16666667 1501 1100.5 1495 c 0
 1098.83333333 1489 1094.16666667 1482.16666667 1086.5 1474.5 c 0
 1078.83333333 1466.83333333 1069.66666667 1461.83333333 1059 1459.5 c 0
 1048.33333333 1457.16666667 1030.33333333 1454.66666667 1005 1452 c 0
 979.666666667 1449.33333333 951.5 1447.83333333 920.5 1447.5 c 0
 889.5 1447.16666667 847 1447 793 1447 c 2
 687 1447 l 2
 639 1447 603.666666667 1447.33333333 581 1448 c 0
 558.333333333 1448.66666667 539.166666667 1450.5 523.5 1453.5 c 0
 507.833333333 1456.5 498.333333333 1460.33333333 495 1465 c 0
 491.666666667 1469.66666667 490 1477 490 1487 c 0x90
257 922 m 0
 223 960 206 1002 206 1048 c 0
 206 1086.66666667 218.5 1119.16666667 243.5 1145.5 c 0
 268.5 1171.83333333 301.666666667 1185 343 1185 c 0
 361 1185 374 1181.83333333 382 1175.5 c 0
 390 1169.16666667 394 1158.33333333 394 1143 c 0
 394 1134.33333333 392.333333333 1121 389 1103 c 0
 385.666666667 1084.33333333 384 1070.66666667 384 1062 c 0
 384 1045.33333333 389.833333333 1034.66666667 401.5 1030 c 0
 413.166666667 1025.33333333 436 1023 470 1023 c 0
 496 1023 529.166666667 1029.66666667 569.5 1043 c 0
 609.833333333 1056.33333333 645 1072.33333333 675 1091 c 0
 715.666666667 1117 745 1130 763 1130 c 0
 775.666666667 1130 782 1123 782 1109 c 0
 782 1089.66666667 771.333333333 1060.66666667 750 1022 c 0
 724.666666667 976 680 938.5 616 909.5 c 0
 552 880.5 487 866 421 866 c 0xd2
 345 866 290.333333333 884.666666667 257 922 c 0
973 -153 m 0
 938.333333333 -115 911.666666667 -63 893 3 c 0xb080
 874.333333333 69 865 173.333333333 865 316 c 2
 865 707 l 1
 858.333333333 705 849.833333333 699.333333333 839.5 690 c 0
 829.166666667 680.666666667 817.166666667 669 803.5 655 c 0
 789.833333333 641 779.333333333 631 772 625 c 0
 654.666666667 521.666666667 565.166666667 452.5 503.5 417.5 c 0
 441.833333333 382.5 378.333333333 365 313 365 c 0
 243 365 186 384.5 142 423.5 c 0
 98 462.5 76 511.666666667 76 571 c 0xb5
 76 595 80.6666666667 621.666666667 90 651 c 0
 98.6666666667 675.666666667 111.666666667 694 129 706 c 0
 146.333333333 718 165 724 185 724 c 0
 203.666666667 724 219.5 719.333333333 232.5 710 c 0
 245.5 700.666666667 252 689 252 675 c 0xb8
 252 662.333333333 245.666666667 648.666666667 233 634 c 0
 229 628.666666667 227 624 227 620 c 0
 227 608 237.833333333 598.166666667 259.5 590.5 c 0
 281.166666667 582.833333333 309.333333333 579 344 579 c 0
 406 579 472.833333333 593.166666667 544.5 621.5 c 0
 616.166666667 649.833333333 682 695 742 757 c 0
 849.333333333 868.333333333 936.333333333 924 1003 924 c 2
 1104 924 l 1
 1104 346 l 1
 1104 160 l 2xb5
 1104 6.66666666667 1101.66666667 -96.3333333333 1097 -149 c 0xb080
 1092.33333333 -201.666666667 1081 -228 1063 -228 c 0
 1048.33333333 -228 1018.33333333 -203 973 -153 c 0
EndSplineSet
Validated: 1
Ligature2: "ccmp-1" period U quotesingle E
Ligature2: "ccmp-1" period U quotesingle e
Ligature2: "ccmp-1" period u quotesingle E
Ligature2: "ccmp-1" period u quotesingle e
Ligature2: "ccmp-0 subtable" period u quotesingle e
Ligature2: "ccmp-0 subtable" period u quotesingle E
Ligature2: "ccmp-0 subtable" period U quotesingle e
Ligature2: "ccmp-0 subtable" period U quotesingle E
Ligature2: "ccmp-1 subtable" period u quotesingle e
Ligature2: "ccmp-1 subtable" period u quotesingle E
Ligature2: "ccmp-1 subtable" period U quotesingle e
Ligature2: "ccmp-1 subtable" period U quotesingle E
EndChar

StartChar: h.ee
Encoding: 293 -1 87
Width: 1228
GlyphClass: 3
Flags: W
HStem: 365 214<229.799 490.714> 904 20G<971.667 1106> 930 150<193.979 771.375> 1447 150<523.979 1101.37>
VStem: 78 176<620.188 699.251> 78 151<541.333 686.828> 867 239<-46.6304 707> 895 204<-104.344 548.156>
LayerCount: 2
Fore
SplineSet
492 1487 m 0xf0
 492 1517 502.333333333 1539.66666667 523 1555 c 0
 543.666666667 1570.33333333 578.833333333 1581.16666667 628.5 1587.5 c 0
 678.166666667 1593.83333333 751 1597 847 1597 c 2
 1120 1597 l 1
 1108 1526 l 2
 1106 1511.33333333 1104.16666667 1501 1102.5 1495 c 0
 1100.83333333 1489 1096.16666667 1482.16666667 1088.5 1474.5 c 0
 1080.83333333 1466.83333333 1071.66666667 1461.83333333 1061 1459.5 c 0
 1050.33333333 1457.16666667 1032.33333333 1454.66666667 1007 1452 c 0
 981.666666667 1449.33333333 953.5 1447.83333333 922.5 1447.5 c 0
 891.5 1447.16666667 849 1447 795 1447 c 2
 689 1447 l 2
 641 1447 605.666666667 1447.33333333 583 1448 c 0
 560.333333333 1448.66666667 541.166666667 1450.5 525.5 1453.5 c 0
 509.833333333 1456.5 500.333333333 1460.33333333 497 1465 c 0
 493.666666667 1469.66666667 492 1477 492 1487 c 0xf0
162 970 m 0
 162 1000 172.333333333 1022.66666667 193 1038 c 0
 213.666666667 1053.33333333 248.833333333 1064.16666667 298.5 1070.5 c 0
 348.166666667 1076.83333333 421 1080 517 1080 c 2
 790 1080 l 1
 778 1009 l 2
 776 994.333333333 774.166666667 984 772.5 978 c 0
 770.833333333 972 766.166666667 965.166666667 758.5 957.5 c 0
 750.833333333 949.833333333 741.666666667 944.833333333 731 942.5 c 0
 720.333333333 940.166666667 702.333333333 937.666666667 677 935 c 0
 651.666666667 932.333333333 623.5 930.833333333 592.5 930.5 c 0
 561.5 930.166666667 519 930 465 930 c 2
 359 930 l 2
 311 930 275.666666667 930.333333333 253 931 c 0
 230.333333333 931.666666667 211.166666667 933.5 195.5 936.5 c 0
 179.833333333 939.5 170.333333333 943.333333333 167 948 c 0
 163.666666667 952.666666667 162 960 162 970 c 0
975 -153 m 0
 940.333333333 -115 913.666666667 -63 895 3 c 0xf1
 876.333333333 69 867 173.333333333 867 316 c 2
 867 707 l 1
 860.333333333 705 851.833333333 699.333333333 841.5 690 c 0
 831.166666667 680.666666667 819.166666667 669 805.5 655 c 0
 791.833333333 641 781.333333333 631 774 625 c 0
 656.666666667 521.666666667 567.166666667 452.5 505.5 417.5 c 0
 443.833333333 382.5 380.333333333 365 315 365 c 0
 245 365 188 384.5 144 423.5 c 0
 100 462.5 78 511.666666667 78 571 c 0xf6
 78 595 82.6666666667 621.666666667 92 651 c 0
 100.666666667 675.666666667 113.666666667 694 131 706 c 0
 148.333333333 718 167 724 187 724 c 0
 205.666666667 724 221.5 719.333333333 234.5 710 c 0
 247.5 700.666666667 254 689 254 675 c 0xf8
 254 662.333333333 247.666666667 648.666666667 235 634 c 0
 231 628.666666667 229 624 229 620 c 0
 229 608 239.833333333 598.166666667 261.5 590.5 c 0
 283.166666667 582.833333333 311.333333333 579 346 579 c 0
 408 579 474.833333333 593.166666667 546.5 621.5 c 0
 618.166666667 649.833333333 684 695 744 757 c 0
 851.333333333 868.333333333 938.333333333 924 1005 924 c 2
 1106 924 l 1
 1106 346 l 1
 1106 160 l 2xf6
 1106 6.66666666667 1103.66666667 -96.3333333333 1099 -149 c 0xf1
 1094.33333333 -201.666666667 1083 -228 1065 -228 c 0
 1050.33333333 -228 1020.33333333 -203 975 -153 c 0
EndSplineSet
Validated: 1
Ligature2: "ccmp-1" period E quotesingle E
Ligature2: "ccmp-1" period E quotesingle e
Ligature2: "ccmp-1" period e quotesingle E
Ligature2: "ccmp-1" period e quotesingle e
Ligature2: "ccmp-0 subtable" period e quotesingle e
Ligature2: "ccmp-0 subtable" period e quotesingle E
Ligature2: "ccmp-0 subtable" period E quotesingle e
Ligature2: "ccmp-0 subtable" period E quotesingle E
Ligature2: "ccmp-1 subtable" period e quotesingle e
Ligature2: "ccmp-1 subtable" period e quotesingle E
Ligature2: "ccmp-1 subtable" period E quotesingle e
Ligature2: "ccmp-1 subtable" period E quotesingle E
EndChar

StartChar: h.ie
Encoding: 294 -1 88
Width: 1227
GlyphClass: 3
Flags: W
HStem: 365 214<228.799 489.714> 853 324<377.9 561.713> 904 20G<970.667 1105> 1447 150<522.979 1100.37>
VStem: 77 176<620.188 699.251> 77 151<541.333 686.828> 312 327<929.037 1128.75> 866 239<-46.6304 707> 894 204<-104.344 548.156>
LayerCount: 2
Fore
SplineSet
491 1487 m 0x92
 491 1517 501.333333333 1539.66666667 522 1555 c 0
 542.666666667 1570.33333333 577.833333333 1581.16666667 627.5 1587.5 c 0
 677.166666667 1593.83333333 750 1597 846 1597 c 2
 1119 1597 l 1
 1107 1526 l 2
 1105 1511.33333333 1103.16666667 1501 1101.5 1495 c 0
 1099.83333333 1489 1095.16666667 1482.16666667 1087.5 1474.5 c 0
 1079.83333333 1466.83333333 1070.66666667 1461.83333333 1060 1459.5 c 0
 1049.33333333 1457.16666667 1031.33333333 1454.66666667 1006 1452 c 0
 980.666666667 1449.33333333 952.5 1447.83333333 921.5 1447.5 c 0
 890.5 1447.16666667 848 1447 794 1447 c 2
 688 1447 l 2
 640 1447 604.666666667 1447.33333333 582 1448 c 0
 559.333333333 1448.66666667 540.166666667 1450.5 524.5 1453.5 c 0
 508.833333333 1456.5 499.333333333 1460.33333333 496 1465 c 0
 492.666666667 1469.66666667 491 1477 491 1487 c 0x92
974 -153 m 0
 939.333333333 -115 912.666666667 -63 894 3 c 0xb280
 875.333333333 69 866 173.333333333 866 316 c 2
 866 707 l 1
 859.333333333 705 850.833333333 699.333333333 840.5 690 c 0
 830.166666667 680.666666667 818.166666667 669 804.5 655 c 0
 790.833333333 641 780.333333333 631 773 625 c 0
 655.666666667 521.666666667 566.166666667 452.5 504.5 417.5 c 0
 442.833333333 382.5 379.333333333 365 314 365 c 0
 244 365 187 384.5 143 423.5 c 0
 99 462.5 77 511.666666667 77 571 c 0xb7
 77 595 81.6666666667 621.666666667 91 651 c 0
 99.6666666667 675.666666667 112.666666667 694 130 706 c 0
 147.333333333 718 166 724 186 724 c 0
 204.666666667 724 220.5 719.333333333 233.5 710 c 0
 246.5 700.666666667 253 689 253 675 c 0xba
 253 662.333333333 246.666666667 648.666666667 234 634 c 0
 230 628.666666667 228 624 228 620 c 0
 228 608 238.833333333 598.166666667 260.5 590.5 c 0
 282.166666667 582.833333333 310.333333333 579 345 579 c 0
 407 579 473.833333333 593.166666667 545.5 621.5 c 0
 617.166666667 649.833333333 683 695 743 757 c 0
 850.333333333 868.333333333 937.333333333 924 1004 924 c 2
 1105 924 l 1
 1105 346 l 1
 1105 160 l 2xb7
 1105 6.66666666667 1102.66666667 -96.3333333333 1098 -149 c 0xb280
 1093.33333333 -201.666666667 1082 -228 1064 -228 c 0
 1049.33333333 -228 1019.33333333 -203 974 -153 c 0
376 899 m 0
 333.333333333 931.666666667 312 972.666666667 312 1022 c 0
 312 1063.33333333 327.333333333 1099.5 358 1130.5 c 0
 388.666666667 1161.5 428.333333333 1177 477 1177 c 0
 525.666666667 1177 564.833333333 1163.5 594.5 1136.5 c 0
 624.166666667 1109.5 639 1076.66666667 639 1038 c 0
 639 990 617.666666667 947 575 909 c 0
 533.666666667 871.666666667 500 853 474 853 c 0xd2
 449.333333333 853 416.666666667 868.333333333 376 899 c 0
EndSplineSet
Validated: 1
Ligature2: "ccmp-1" period I quotesingle E
Ligature2: "ccmp-1" period I quotesingle e
Ligature2: "ccmp-1" period i quotesingle E
Ligature2: "ccmp-1" period i quotesingle e
Ligature2: "ccmp-0 subtable" period i quotesingle e
Ligature2: "ccmp-0 subtable" period i quotesingle E
Ligature2: "ccmp-0 subtable" period I quotesingle e
Ligature2: "ccmp-0 subtable" period I quotesingle E
Ligature2: "ccmp-1 subtable" period i quotesingle e
Ligature2: "ccmp-1 subtable" period i quotesingle E
Ligature2: "ccmp-1 subtable" period I quotesingle e
Ligature2: "ccmp-1 subtable" period I quotesingle E
EndChar

